# File generated by ImageToStl.com - Free Image and 3D model conversion tools

mtllib fridge.mtl

o obj1
v -3.47458297 9.08873859 2.35309218
v -3.21704549 9.08873864 2.53502897
v -3.18407026 9.09106662 2.55832425
v -3.5075582 9.09106656 2.3297969
v -3.25318751 10.18727246 1.95155569
v -3.21164924 10.23304484 1.98090044
v -2.95411168 10.23304489 2.16283719
v -2.91255866 10.18729053 2.19219227
v -2.87518854 9.18536911 2.21859187
v -2.87518865 9.52805562 2.21859194
v -3.1381228 9.52805548 2.59078391
v -3.13812269 9.18536896 2.59078385
v -2.87518884 10.13641454 2.21859205
v -3.13812299 10.13641441 2.59078402
v -3.1381228 9.52805548 2.59078391
v -3.13812299 10.13641441 2.59078402
v -3.55350612 10.13641432 2.29733753
v -3.55350592 9.5280554 2.29733741
v -3.21164887 9.08873872 1.98090023
v -2.95411132 9.08873877 2.16283697
v -3.21704549 9.08873864 2.53502897
v -3.47458297 9.08873859 2.35309218
v -2.95411168 10.23304489 2.16283719
v -3.21164924 10.23304484 1.98090044
v -3.47458333 10.23304471 2.35309239
v -3.21704585 10.23304476 2.53502918
v -3.55350581 9.18536889 2.29733735
v -3.55350592 9.5280554 2.29733741
v -3.29057181 9.52805553 1.92514544
v -3.2905717 9.18536901 1.92514537
v -3.25318732 9.57382784 1.95155558
v -3.25318751 10.18727246 1.95155569
v -3.49782212 10.18727234 2.29784407
v -3.49782193 9.57382772 2.29784395
v -3.25318718 9.13451096 1.9515555
v -3.25318729 9.48228332 1.95155556
v -3.4978219 9.48228319 2.29784393
v -3.49782179 9.13451084 2.29784387
v -2.91257313 9.57382791 2.19218179
v -2.87518865 9.52805562 2.21859194
v -3.29057181 9.52805553 1.92514544
v -3.25318732 9.57382784 1.95155558
v -3.29057201 10.13641446 1.92514555
v -2.87518884 10.13641454 2.21859205
v -3.25318718 9.13451096 1.9515555
v -2.91255833 9.13449306 2.19219207
v -2.95411132 9.08873877 2.16283697
v -3.21164887 9.08873872 1.98090023
v -2.91257311 9.48228338 2.19218177
v -2.87518854 9.18536911 2.21859187
v -3.25318729 9.48228332 1.95155556
v -3.15720772 9.48228326 2.53847012
v -3.15720761 9.1345109 2.53847006
v -3.15720775 9.57382778 2.53847014
v -3.15720794 10.18727241 2.53847026
v -2.91257311 9.48228338 2.19218177
v -2.91255833 9.13449306 2.19219207
v -2.91257313 9.57382791 2.19218179
v -3.25318732 9.57382784 1.95155558
v -2.91255833 9.13449306 2.19219207
v -3.25318718 9.13451096 1.9515555
v -2.91255866 10.18729053 2.19219227
v -2.91257313 9.57382791 2.19218179
v -3.25318751 10.18727246 1.95155569
v -2.91255866 10.18729053 2.19219227
v -3.25318729 9.48228332 1.95155556
v -2.91257311 9.48228338 2.19218177
v -3.2905717 9.18536901 1.92514537
v -3.24462407 9.09106669 1.95760491
v -3.27442366 9.10850976 1.93655308
v -3.28867032 9.1449953 1.92648859
v -2.87709024 10.17678815 2.21724883
v -2.8913369 10.21327374 2.20718433
v -2.87708991 9.1449954 2.21724864
v -2.89133655 9.10850984 2.20718412
v -2.92113648 10.23071682 2.18613251
v -2.92113612 9.09106676 2.1861323
v -3.24462444 10.23071675 1.95760512
v -3.27442401 10.21327366 1.93655329
v -3.5075582 9.09106656 2.3297969
v -3.24462407 9.09106669 1.95760491
v -3.53735777 9.10850962 2.30874507
v -3.27442366 9.10850976 1.93655308
v -3.55160443 9.14499518 2.29868056
v -3.28867032 9.1449953 1.92648859
v -3.21704549 9.08873864 2.53502897
v -2.95411132 9.08873877 2.16283697
v -2.92113612 9.09106676 2.1861323
v -3.18407026 9.09106662 2.55832425
v -2.89133655 9.10850984 2.20718412
v -3.15427068 9.1085097 2.5793761
v -2.87708991 9.1449954 2.21724864
v -3.14002405 9.14499525 2.58944062
v -3.47458333 10.23304471 2.35309239
v -3.21164924 10.23304484 1.98090044
v -3.24462444 10.23071675 1.95760512
v -3.50755856 10.23071662 2.32979711
v -3.27442401 10.21327366 1.93655329
v -3.53735812 10.21327353 2.30874527
v -3.28867065 10.17678807 1.92648878
v -3.55160476 10.17678793 2.29868075
v -3.29057201 10.13641446 1.92514555
v -3.55350612 10.13641432 2.29733753
v -3.18407062 10.23071668 2.55832446
v -2.92113648 10.23071682 2.18613251
v -3.15427103 10.2132736 2.57937631
v -2.8913369 10.21327374 2.20718433
v -3.14002438 10.17678802 2.58944081
v -2.87709024 10.17678815 2.21724883
v -3.15427068 9.1085097 2.5793761
v -3.53735777 9.10850962 2.30874507
v -3.14002405 9.14499525 2.58944062
v -3.55160443 9.14499518 2.29868056
v -3.13812269 9.18536896 2.59078385
v -3.55350581 9.18536889 2.29733735
v -3.14002438 10.17678802 2.58944081
v -3.55160476 10.17678793 2.29868075
v -3.15427103 10.2132736 2.57937631
v -3.53735812 10.21327353 2.30874527
v -3.18407062 10.23071668 2.55832446
v -3.50755856 10.23071662 2.32979711
v -3.21704585 10.23304476 2.53502918
v -3.47458333 10.23304471 2.35309239
v -3.28867065 10.17678807 1.92648878
v -3.50215022 9.72857141 2.29596328
v -3.15398868 9.72857148 2.54192128
v -2.91136339 9.7285716 2.19847716
v -3.25952492 9.72857153 1.95251915
v -3.50215027 9.88114562 2.29596331
v -3.15398873 9.88114569 2.54192131
v -2.91136343 9.88114581 2.19847719
v -3.25952496 9.88114574 1.95251918
v -3.50215031 10.03371983 2.29596334
v -3.15398878 10.0337199 2.54192134
v -2.91136348 10.03372002 2.19847722
v -3.25952501 10.03371995 1.95251921
v -3.50215009 9.32316559 2.29596321
v -3.15398855 9.32316566 2.54192121
v -2.91136326 9.32316579 2.19847709
v -3.25952479 9.32316572 1.95251907
v -3.50215021 9.71585691 2.29596328
v -3.25952491 9.71585703 1.95251915
v -2.91136338 9.7158571 2.19847716
v -3.15398868 9.71585698 2.54192128
v -3.50215026 9.86843112 2.29596331
v -3.25952496 9.86843124 1.95251918
v -2.91136343 9.86843131 2.19847719
v -3.15398872 9.86843119 2.54192131
v -3.50215031 10.02100533 2.29596333
v -3.25952501 10.02100545 1.9525192
v -2.91136348 10.02100552 2.19847722
v -3.15398877 10.0210054 2.54192134
v -3.50215009 9.31045109 2.2959632
v -3.25952478 9.31045122 1.95251907
v -2.91136325 9.31045129 2.19847709
v -3.15398855 9.31045116 2.54192121
v -3.01967319 9.06085617 2.21290293
v -2.9958359 9.06085618 2.17916049
v -2.96209341 9.06085619 2.20299778
v -2.98593071 9.06085618 2.2367402
v -3.0196732 9.0944522 2.21290294
v -2.98593072 9.09445221 2.23674021
v -2.98593072 9.09445221 2.23674021
v -2.96209342 9.09445222 2.20299779
v -2.96209342 9.09445222 2.20299779
v -2.99583591 9.09445221 2.1791605
v -2.99583591 9.09445221 2.1791605
v -3.0196732 9.0944522 2.21290294
v -3.23692819 9.06085613 2.05942345
v -3.27067063 9.06085612 2.0355862
v -3.24683336 9.06085613 2.00184376
v -3.21309093 9.06085614 2.025681
v -3.2369282 9.09445216 2.05942346
v -3.27067064 9.09445215 2.03558621
v -3.27067064 9.09445215 2.03558621
v -3.24683337 9.09445216 2.00184376
v -3.24683337 9.09445216 2.00184376
v -3.21309094 9.09445217 2.02568101
v -3.21309094 9.09445217 2.02568101
v -3.2369282 9.09445216 2.05942346
v -3.15954917 9.0608561 2.41090194
v -3.1258067 9.06085611 2.4347392
v -3.14964394 9.06085609 2.46848166
v -3.18338642 9.06085609 2.44464439
v -3.15954918 9.09445213 2.41090195
v -3.12580671 9.09445214 2.4347392
v -3.12580671 9.09445214 2.4347392
v -3.14964395 9.09445212 2.46848167
v -3.14964395 9.09445212 2.46848167
v -3.18338643 9.09445212 2.4446444
v -3.18338643 9.09445212 2.4446444
v -3.15954918 9.09445213 2.41090195
v -3.37680418 9.06085606 2.25742247
v -3.40064144 9.06085604 2.29116491
v -3.43438388 9.06085604 2.26732766
v -3.41054664 9.06085605 2.23358522
v -3.37680419 9.09445208 2.25742248
v -3.41054665 9.09445208 2.23358523
v -3.41054665 9.09445208 2.23358523
v -3.43438389 9.09445207 2.26732767
v -3.43438389 9.09445207 2.26732767
v -3.40064145 9.09445207 2.29116491
v -3.40064145 9.09445207 2.29116491
v -3.37680419 9.09445208 2.25742248
v -3.26953443 9.11772204 1.94278499
v -3.26953455 9.50135873 1.94278506
v -3.26393282 9.50135869 1.93485562
v -3.2639327 9.11772205 1.93485555
v -2.91336588 9.13550257 2.19439906
v -2.91336599 9.48357827 2.19439912
v -2.90776426 9.48357827 2.18646969
v -2.90776415 9.13550258 2.18646962
v -2.89884359 9.11772212 2.20465823
v -3.26953443 9.11772204 1.94278499
v -3.2639327 9.11772205 1.93485555
v -2.89324187 9.11772212 2.19672879
v -2.91336599 9.48357827 2.19439912
v -3.25501227 9.4835782 1.95304423
v -3.24941054 9.4835782 1.9451148
v -2.90776426 9.48357827 2.18646969
v -2.89324199 9.5013588 2.19672887
v -2.89324187 9.11772212 2.19672879
v -3.24941054 9.4835782 1.9451148
v -3.24941043 9.13550251 1.94511473
v -3.26393282 9.50135869 1.93485562
v -2.89324199 9.5013588 2.19672887
v -3.24941043 9.13550251 1.94511473
v -2.90776415 9.13550258 2.18646962
v -3.25501216 9.13550251 1.95304417
v -2.91336588 9.13550257 2.19439906
v -3.25501227 9.4835782 1.95304423
v -3.25501216 9.13550251 1.95304417
v -3.26953455 9.50135873 1.94278506
v -2.89884371 9.50135876 2.2046583
v -2.89884371 9.50135876 2.2046583
v -2.89884359 9.11772212 2.20465823
v -3.26953457 9.55541567 1.94278507
v -3.26953477 10.20568506 1.94278519
v -3.26393305 10.20568507 1.93485575
v -3.26393284 9.55541571 1.93485563
v -2.91336601 9.57319623 2.19439914
v -2.91336621 10.18790453 2.19439925
v -2.90776448 10.18790454 2.18646982
v -2.90776429 9.57319624 2.1864697
v -2.89884373 9.55541578 2.20465831
v -3.26953457 9.55541567 1.94278507
v -3.26393284 9.55541571 1.93485563
v -2.893242 9.55541574 2.19672888
v -2.91336621 10.18790453 2.19439925
v -3.25501249 10.18790446 1.95304436
v -3.24941076 10.18790447 1.94511493
v -2.90776448 10.18790454 2.18646982
v -2.89324221 10.20568514 2.196729
v -2.893242 9.55541574 2.19672888
v -3.24941076 10.18790447 1.94511493
v -3.24941057 9.57319617 1.94511481
v -3.26393305 10.20568507 1.93485575
v -2.89324221 10.20568514 2.196729
v -3.24941057 9.57319617 1.94511481
v -2.90776429 9.57319624 2.1864697
v -3.2550123 9.57319617 1.95304425
v -2.91336601 9.57319623 2.19439914
v -3.25501249 10.18790446 1.95304436
v -3.2550123 9.57319617 1.95304425
v -3.26953477 10.20568506 1.94278519
v -2.89884394 10.20568514 2.20465843
v -2.89884394 10.20568514 2.20465843
v -2.89884373 9.55541578 2.20465831
vn 0.0205 0.70068 -0.71318
vn -0.0206 0.70068 -0.71318
vn -0.18581 0.66612 -0.72233
vn 0.18581 0.66612 -0.72233
vn -0.30151 -0.90453 -0.30151
vn 0.0205 -0.70068 0.71318
vn -0.0206 -0.70068 0.71318
vn 0.30148 -0.90455 -0.30148
vn -0.71313 -0.70073 -0.0206
vn -0.70711 -0.70711 0
vn -0.70711 0.70711 0
vn -0.71318 0.70068 -0.0205
vn -0.71313 -0.70073 0.0205
vn -0.71318 0.70068 0.0205
vn -0.71318 0.70068 0.0206
vn 0.71318 0.70068 0.0205
vn 0.70711 0.70711 0
vn 0.0205 -0.70073 -0.71313
vn -0.0205 -0.70073 -0.71313
vn -0.0205 0.70073 -0.71313
vn 0.0206 0.70068 -0.71318
vn -0.0206 -0.70073 0.71313
vn 0.0205 -0.70073 0.71313
vn 0.0205 0.70073 0.71313
vn -0.0205 0.70068 0.71318
vn 0.71313 0.70073 -0.0205
vn 0.70711 -0.70711 0
vn 0.71318 -0.70068 -0.0206
vn -0.3016 -0.90451 0.3015
vn -0.3016 -0.90451 -0.3015
vn -0.57738 -0.57738 -0.57728
vn -0.57732 -0.57732 0.57742
vn -0.57742 -0.57732 -0.57732
vn -0.57728 -0.57738 0.57738
vn 0.30151 -0.90453 0.30151
vn -0.30151 -0.90453 0.30151
vn 0.71318 -0.70068 0.0206
vn -0.71318 -0.70068 0.0205
vn 0.30148 -0.90455 0.30148
vn -0.0205 -0.70068 -0.71318
vn 0.0206 -0.70068 -0.71318
vn 0.30151 -0.90453 -0.30151
vn -0.71318 -0.70068 -0.0206
vn 0.57728 -0.57738 -0.57738
vn 0.57738 -0.57738 0.57728
vn 0.57732 -0.57742 0.57732
vn 0.3016 -0.90451 -0.3015
vn 0.3015 -0.90451 0.3016
vn -0.3015 -0.90451 0.3016
vn -0.3015 -0.90451 -0.3016
vn 0.3015 -0.90451 -0.3016
vn 0.71318 -0.70068 -0.0205
vn 0.18581 -0.66612 -0.72233
vn 0.54373 -0.63923 -0.54383
vn 0.72233 -0.66612 -0.18581
vn -0.72233 -0.66612 0.18581
vn -0.54369 -0.63929 0.54379
vn -0.72233 -0.66612 -0.18581
vn -0.54379 -0.63929 -0.54369
vn -0.18581 -0.66612 0.72233
vn -0.18581 -0.66612 -0.72233
vn 0.18581 -0.66612 0.72233
vn 0.54383 -0.63923 0.54373
vn 0.18579 0.66618 -0.72228
vn 0.18579 -0.66618 -0.72228
vn 0.54372 0.63932 -0.54372
vn 0.54372 -0.63932 -0.54372
vn 0.72228 0.66618 -0.18579
vn 0.72228 -0.66618 -0.18579
vn -0.0206 0.70073 -0.71313
vn -0.0206 -0.70073 -0.71313
vn -0.18579 -0.66618 -0.72228
vn -0.18579 0.66618 -0.72228
vn -0.54372 -0.63932 -0.54372
vn -0.54372 0.63932 -0.54372
vn -0.72228 -0.66618 -0.18579
vn -0.72228 0.66618 -0.18579
vn 0.0206 0.70073 0.71313
vn 0.0206 -0.70073 0.71313
vn 0.18579 -0.66618 0.72228
vn 0.18579 0.66618 0.72228
vn 0.54372 -0.63932 0.54372
vn 0.54372 0.63932 0.54372
vn 0.72228 -0.66618 0.18579
vn 0.72228 0.66618 0.18579
vn 0.71318 -0.70068 0.0205
vn 0.71313 0.70073 0.0206
vn -0.18579 0.66618 0.72228
vn -0.18579 -0.66618 0.72228
vn -0.54372 0.63932 0.54372
vn -0.54372 -0.63932 0.54372
vn -0.72228 0.66618 0.18579
vn -0.72228 -0.66618 0.18579
vn -0.54369 0.63929 -0.54379
vn 0.54379 0.63929 -0.54369
vn -0.72233 0.66612 -0.18581
vn 0.72233 0.66612 -0.18581
vn 0.71318 0.70068 -0.0206
vn -0.72233 0.66612 0.18581
vn 0.72233 0.66612 0.18581
vn -0.54379 0.63929 0.54369
vn 0.54369 0.63929 0.54379
vn -0.18581 0.66612 0.72233
vn 0.18581 0.66612 0.72233
vn 0.0206 0.70068 0.71318
vn 0.72233 -0.66612 0.18581
vn 0 0 1
vn 0 -0.70711 0.70711
vn 0 0 -1
vn 0 -0.70711 -0.70711
vn 0.57738 0.57728 -0.57738
vn 0.57732 -0.57742 -0.57732
vn -0.57738 -0.57728 -0.57738
vn -0.57732 0.57742 -0.57732
vn -0.57738 0.57728 -0.57738
vn 0.57732 0.57742 -0.57732
vn 0.57738 -0.57728 -0.57738
vn -0.57732 -0.57742 -0.57732
vn 0.70711 0 -0.70711
vn 0.70711 0 0.70711
vn 0.57728 -0.57738 0.57738
vn -0.70711 0 -0.70711
vn 0.57738 -0.57738 -0.57728
vn -0.57728 -0.57738 -0.57738
vn -0.57738 -0.57738 0.57728
vn -0.70711 0 0.70711
vn 0.3016 -0.90451 0.3015
vn -0.57732 -0.57742 0.57732
vt 0.6264 0.52791
vt 0.62671 0.45203
vt 0.62487 0.42009
vt 0.62487 0.5376
vt 0.58497 0.26948
vt 0.59857 0.25436
vt 0.59857 0.16063
vt 0.58497 0.14551
vt 0.27935 0.94996
vt 0.27935 0.8481
vt 0.14389 0.8481
vt 0.14389 0.94996
vt 0.27935 0.66726
vt 0.14389 0.66726
vt 0.49521 0.40339
vt 0.3147 0.40339
vt 0.3147 0.5543
vt 0.49521 0.5543
vt 0.00195 0.90432
vt 0.00195 0.99805
vt 0.13741 0.99805
vt 0.13741 0.90432
vt 0.27935 0.61918
vt 0.27935 0.52545
vt 0.14389 0.52545
vt 0.14389 0.61918
vt 0.13741 0.85623
vt 0.13741 0.75437
vt 0.00195 0.75437
vt 0.00195 0.85623
vt 0.65815 0.87097
vt 0.65815 0.68786
vt 0.53423 0.68786
vt 0.53423 0.87097
vt 0.37797 0.39294
vt 0.37797 0.28957
vt 0.25195 0.28957
vt 0.25195 0.39294
vt 0.40262 0.14552
vt 0.38901 0.13191
vt 0.38901 0.28309
vt 0.40262 0.26948
vt 0.56985 0.28309
vt 0.56985 0.13191
vt 0.27203 0.26948
vt 0.27203 0.14551
vt 0.25843 0.16063
vt 0.25843 0.25436
vt 0.37541 0.14552
vt 0.28715 0.13191
vt 0.37541 0.26948
vt 0.12798 0.28957
vt 0.12798 0.39294
vt 0.40975 0.87097
vt 0.40975 0.68786
vt 0.00195 0.28957
vt 0.00195 0.39295
vt 0.40975 0.99805
vt 0.53423 0.99805
vt 0.12798 0.51897
vt 0.25195 0.51897
vt 0.28583 0.68786
vt 0.28583 0.87097
vt 0.53423 0.56078
vt 0.40975 0.56078
vt 0.25195 0.16354
vt 0.12798 0.16354
vt 0.28715 0.28309
vt 0.25912 0.26636
vt 0.2643 0.27721
vt 0.27515 0.28239
vt 0.58185 0.1326
vt 0.59269 0.13779
vt 0.27515 0.1326
vt 0.2643 0.13779
vt 0.59788 0.14863
vt 0.25912 0.14863
vt 0.59788 0.26636
vt 0.59269 0.27721
vt 0.13741 0.8923
vt 0.00195 0.8923
vt 0.13741 0.88028
vt 0.00195 0.88028
vt 0.13741 0.86826
vt 0.00195 0.86825
vt 0.14389 0.99805
vt 0.27935 0.99805
vt 0.27935 0.98603
vt 0.14389 0.98603
vt 0.27935 0.974
vt 0.14389 0.974
vt 0.27935 0.96198
vt 0.14389 0.96198
vt 0.13741 0.52545
vt 0.00195 0.52545
vt 0.00195 0.53747
vt 0.13741 0.53747
vt 0.00195 0.54949
vt 0.13741 0.54949
vt 0.00195 0.56152
vt 0.13741 0.56152
vt 0.00195 0.57354
vt 0.13741 0.57354
vt 0.14389 0.6312
vt 0.27935 0.6312
vt 0.14389 0.64322
vt 0.27935 0.64322
vt 0.14389 0.65524
vt 0.27935 0.65524
vt 0.61969 0.40926
vt 0.61969 0.54843
vt 0.60887 0.40408
vt 0.60887 0.55361
vt 0.59689 0.40339
vt 0.59689 0.5543
vt 0.30272 0.40408
vt 0.30272 0.55361
vt 0.2919 0.40926
vt 0.2919 0.54843
vt 0.28672 0.42009
vt 0.28672 0.5376
vt 0.28519 0.42979
vt 0.28488 0.50566
vt 0.58185 0.28239
vt 0.60559 0.39722
vt 0.7323 0.39722
vt 0.7323 0.27223
vt 0.60559 0.27223
vt 0.7599 0.42761
vt 0.63319 0.42761
vt 0.63319 0.5526
vt 0.7599 0.5526
vt 0.79134 0.74428
vt 0.66463 0.74428
vt 0.66463 0.86927
vt 0.79134 0.86927
vt 0.73878 0.42113
vt 0.86549 0.42113
vt 0.86549 0.29614
vt 0.73878 0.29614
vt 0.60559 0.14346
vt 0.60559 0.26845
vt 0.7323 0.26845
vt 0.7323 0.14346
vt 0.7599 0.68138
vt 0.7599 0.55638
vt 0.63319 0.55638
vt 0.63319 0.68138
vt 0.79134 0.99805
vt 0.79134 0.87305
vt 0.66463 0.87305
vt 0.66463 0.99805
vt 0.73878 0.16736
vt 0.73878 0.29236
vt 0.86549 0.29236
vt 0.86549 0.16736
vt 0.08174 0.27214
vt 0.08174 0.25986
vt 0.06946 0.25986
vt 0.06946 0.27214
vt 0.08174 0.28213
vt 0.06946 0.28213
vt 0.05948 0.27214
vt 0.05948 0.25986
vt 0.06946 0.24987
vt 0.08174 0.24987
vt 0.09173 0.25986
vt 0.09173 0.27214
vt 0.26755 0.04379
vt 0.26755 0.03151
vt 0.25527 0.03151
vt 0.25527 0.04379
vt 0.27754 0.04379
vt 0.27754 0.03151
vt 0.26755 0.02152
vt 0.25527 0.02152
vt 0.24529 0.03151
vt 0.24529 0.04379
vt 0.25527 0.05377
vt 0.26755 0.05377
vt 0.08536 0.2351
vt 0.08536 0.22282
vt 0.07308 0.22282
vt 0.07308 0.2351
vt 0.09535 0.2351
vt 0.09535 0.22282
vt 0.08536 0.21283
vt 0.07308 0.21283
vt 0.06309 0.22282
vt 0.06309 0.2351
vt 0.07308 0.24509
vt 0.08536 0.24509
vt 0.08746 0.19655
vt 0.08746 0.18427
vt 0.07518 0.18427
vt 0.07518 0.19655
vt 0.08746 0.20653
vt 0.07518 0.20653
vt 0.06519 0.19655
vt 0.06519 0.18427
vt 0.07518 0.17428
vt 0.08746 0.17428
vt 0.09745 0.18427
vt 0.09745 0.19655
vt 0.05204 0.28309
vt 0.05203 0.18617
vt 0.04933 0.18617
vt 0.04933 0.28309
vt 0.05203 0.51897
vt 0.05204 0.42206
vt 0.04933 0.42206
vt 0.04933 0.51897
vt 0.00195 0.1671
vt 0.00195 0.28309
vt 0.00464 0.28309
vt 0.00465 0.1671
vt 0.00195 0.40298
vt 0.00195 0.51897
vt 0.00465 0.51897
vt 0.00464 0.40298
vt 0.04233 0.42206
vt 0.04233 0.51897
vt 0.04233 0.18617
vt 0.04233 0.28309
vt 0.01162 0.51897
vt 0.01162 0.40298
vt 0.01162 0.28309
vt 0.01162 0.1671
vt 0.01431 0.28309
vt 0.01431 0.1671
vt 0.03963 0.18617
vt 0.03963 0.28309
vt 0.01431 0.51897
vt 0.01431 0.40298
vt 0.03963 0.42205
vt 0.03963 0.51897
vt 0.88344 0.17189
vt 0.88344 0.33297
vt 0.88625 0.33297
vt 0.88625 0.17189
vt 0.88488 0.50053
vt 0.88488 0.33945
vt 0.88206 0.33945
vt 0.88206 0.50053
vt 0.02079 0.40298
vt 0.02079 0.51897
vt 0.02348 0.51897
vt 0.02348 0.40298
vt 0.03315 0.28309
vt 0.03315 0.1671
vt 0.03046 0.1671
vt 0.03046 0.28309
vt 0.87478 0.33943
vt 0.87478 0.50051
vt 0.89354 0.33298
vt 0.89354 0.1719
vt 0.02348 0.1671
vt 0.02348 0.28309
vt 0.03046 0.51897
vt 0.03046 0.40298
vt 0.03315 0.51897
vt 0.03315 0.40298
vt 0.89635 0.33299
vt 0.89635 0.17191
vt 0.02079 0.1671
vt 0.02079 0.28309
vt 0.87197 0.33943
vt 0.87197 0.50051
usemtl mat0
f 1/1/1 2/2/2 3/3/3
f 1/1/1 3/3/3 4/4/4
f 5/5/5 6/6/6 7/7/7
f 5/5/5 7/7/7 8/8/8
f 9/9/9 10/10/10 11/11/11
f 9/9/9 11/11/11 12/12/12
f 11/11/11 10/10/10 13/13/13
f 11/11/11 13/13/13 14/14/14
f 15/15/11 16/16/15 17/17/16
f 15/15/11 17/17/16 18/18/17
f 19/19/18 20/20/19 21/21/20
f 19/19/18 21/21/20 22/22/21
f 23/23/22 24/24/23 25/25/24
f 23/23/22 25/25/24 26/26/25
f 27/27/26 28/28/17 29/29/27
f 27/27/26 29/29/27 30/30/28
f 31/31/29 32/32/30 33/33/31
f 31/31/29 33/33/31 34/34/32
f 35/35/29 36/36/30 37/37/33
f 35/35/29 37/37/33 38/38/34
f 39/39/35 40/40/10 41/41/27
f 39/39/35 41/41/27 42/42/36
f 42/42/36 41/41/27 43/43/37
f 42/42/36 43/43/37 5/5/5
f 8/8/8 44/44/38 40/40/10
f 8/8/8 40/40/10 39/39/35
f 45/45/36 46/46/39 47/47/40
f 45/45/36 47/47/40 48/48/41
f 46/46/39 49/49/42 40/40/10
f 46/46/39 40/40/10 50/50/43
f 49/49/42 51/51/5 41/41/27
f 49/49/42 41/41/27 40/40/10
f 38/38/34 37/37/33 52/52/44
f 38/38/34 52/52/44 53/53/45
f 54/54/46 34/34/32 33/33/31
f 54/54/46 33/33/31 55/55/44
f 56/56/47 57/57/35 53/53/45
f 56/56/47 53/53/45 52/52/44
f 58/58/48 59/59/49 34/34/32
f 58/58/48 34/34/32 54/54/46
f 60/60/35 61/61/36 38/38/34
f 60/60/35 38/38/34 53/53/45
f 62/62/42 63/63/35 54/54/46
f 62/62/42 54/54/46 55/55/44
f 64/64/50 65/65/42 55/55/44
f 64/64/50 55/55/44 33/33/31
f 66/66/50 67/67/51 52/52/44
f 66/66/50 52/52/44 37/37/33
f 51/51/5 45/45/36 68/68/52
f 51/51/5 68/68/52 41/41/27
f 69/69/53 70/70/54 45/45/36
f 69/69/53 45/45/36 48/48/41
f 71/71/55 68/68/52 45/45/36
f 71/71/55 45/45/36 70/70/54
f 72/72/56 44/44/38 8/8/8
f 72/72/56 8/8/8 73/73/57
f 74/74/58 75/75/59 46/46/39
f 74/74/58 46/46/39 50/50/43
f 76/76/60 73/73/57 8/8/8
f 76/76/60 8/8/8 7/7/7
f 77/77/61 47/47/40 46/46/39
f 77/77/61 46/46/39 75/75/59
f 78/78/62 6/6/6 5/5/5
f 78/78/62 5/5/5 79/79/63
f 19/19/18 22/22/21 80/80/64
f 19/19/18 80/80/64 81/81/65
f 81/81/65 80/80/64 82/82/66
f 81/81/65 82/82/66 83/83/67
f 83/83/67 82/82/66 84/84/68
f 83/83/67 84/84/68 85/85/69
f 85/85/69 84/84/68 27/27/26
f 85/85/69 27/27/26 30/30/28
f 86/86/70 87/87/71 88/88/72
f 86/86/70 88/88/72 89/89/73
f 89/89/73 88/88/72 90/90/74
f 89/89/73 90/90/74 91/91/75
f 91/91/75 90/90/74 92/92/76
f 91/91/75 92/92/76 93/93/77
f 93/93/77 92/92/76 9/9/9
f 93/93/77 9/9/9 12/12/12
f 94/94/78 95/95/79 96/96/80
f 94/94/78 96/96/80 97/97/81
f 97/97/81 96/96/80 98/98/82
f 97/97/81 98/98/82 99/99/83
f 99/99/83 98/98/82 100/100/84
f 99/99/83 100/100/84 101/101/85
f 101/101/85 100/100/84 102/102/86
f 101/101/85 102/102/86 103/103/87
f 23/23/22 26/26/25 104/104/88
f 23/23/22 104/104/88 105/105/89
f 105/105/89 104/104/88 106/106/90
f 105/105/89 106/106/90 107/107/91
f 107/107/91 106/106/90 108/108/92
f 107/107/91 108/108/92 109/109/93
f 109/109/93 108/108/92 14/14/14
f 109/109/93 14/14/14 13/13/13
f 29/29/27 28/28/17 103/103/87
f 29/29/27 103/103/87 102/102/86
f 4/4/4 3/3/3 110/110/94
f 4/4/4 110/110/94 111/111/95
f 111/111/95 110/110/94 112/112/96
f 111/111/95 112/112/96 113/113/97
f 113/113/97 112/112/96 114/114/12
f 113/113/97 114/114/12 115/115/98
f 15/15/11 18/18/17 115/115/98
f 15/15/11 115/115/98 114/114/12
f 17/17/16 16/16/15 116/116/99
f 17/17/16 116/116/99 117/117/100
f 117/117/100 116/116/99 118/118/101
f 117/117/100 118/118/101 119/119/102
f 119/119/102 118/118/101 120/120/103
f 119/119/102 120/120/103 121/121/104
f 121/121/104 120/120/103 122/122/25
f 121/121/104 122/122/25 123/123/105
f 124/124/106 79/79/63 5/5/5
f 124/124/106 5/5/5 43/43/37
f 125/125/107 126/126/107 127/127/108
f 125/125/107 127/127/108 128/128/108
f 129/129/107 130/130/107 131/131/108
f 129/129/107 131/131/108 132/132/108
f 133/133/107 134/134/107 135/135/108
f 133/133/107 135/135/108 136/136/108
f 137/137/107 138/138/107 139/139/108
f 137/137/107 139/139/108 140/140/108
f 141/141/109 142/142/110 143/143/110
f 141/141/109 143/143/110 144/144/109
f 145/145/109 146/146/110 147/147/110
f 145/145/109 147/147/110 148/148/109
f 149/149/109 150/150/110 151/151/110
f 149/149/109 151/151/110 152/152/109
f 153/153/109 154/154/110 155/155/110
f 153/153/109 155/155/110 156/156/109
f 128/128/108 127/127/108 143/143/110
f 128/128/108 143/143/110 142/142/110
f 132/132/108 131/131/108 147/147/110
f 132/132/108 147/147/110 146/146/110
f 136/136/108 135/135/108 151/151/110
f 136/136/108 151/151/110 150/150/110
f 140/140/108 139/139/108 155/155/110
f 140/140/108 155/155/110 154/154/110
f 157/157/111 158/158/112 159/159/113
f 157/157/111 159/159/113 160/160/114
f 161/161/17 157/157/111 160/160/114
f 161/161/17 160/160/114 162/162/11
f 163/163/11 160/160/114 159/159/113
f 163/163/11 159/159/113 164/164/10
f 165/165/10 159/159/113 158/158/112
f 165/165/10 158/158/112 166/166/27
f 167/167/27 158/158/112 157/157/111
f 167/167/27 157/157/111 168/168/17
f 169/169/115 170/170/116 171/171/117
f 169/169/115 171/171/117 172/172/118
f 173/173/11 174/174/17 170/170/116
f 173/173/11 170/170/116 169/169/115
f 175/175/17 176/176/27 171/171/117
f 175/175/17 171/171/117 170/170/116
f 177/177/27 178/178/10 172/172/118
f 177/177/27 172/172/118 171/171/117
f 179/179/10 180/180/11 169/169/115
f 179/179/10 169/169/115 172/172/118
f 181/181/117 182/182/118 183/183/115
f 181/181/117 183/183/115 184/184/116
f 185/185/27 186/186/10 182/182/118
f 185/185/27 182/182/118 181/181/117
f 187/187/10 188/188/11 183/183/115
f 187/187/10 183/183/115 182/182/118
f 189/189/11 190/190/17 184/184/116
f 189/189/11 184/184/116 183/183/115
f 191/191/17 192/192/27 181/181/117
f 191/191/17 181/181/117 184/184/116
f 193/193/113 194/194/114 195/195/111
f 193/193/113 195/195/111 196/196/112
f 197/197/10 193/193/113 196/196/112
f 197/197/10 196/196/112 198/198/27
f 199/199/27 196/196/112 195/195/111
f 199/199/27 195/195/111 200/200/17
f 201/201/17 195/195/111 194/194/114
f 201/201/17 194/194/114 202/202/11
f 203/203/11 194/194/114 193/193/113
f 203/203/11 193/193/113 204/204/10
f 205/205/119 206/206/120 207/207/121
f 205/205/119 207/207/121 208/208/44
f 209/209/120 210/210/119 211/211/42
f 209/209/120 211/211/42 212/212/35
f 213/213/122 214/214/119 215/215/123
f 213/213/122 215/215/123 216/216/31
f 217/217/119 218/218/122 219/219/5
f 217/217/119 219/219/5 220/220/42
f 212/212/35 211/211/42 221/221/34
f 212/212/35 221/221/34 222/222/124
f 223/223/5 224/224/36 208/208/44
f 223/223/5 208/208/44 207/207/121
f 220/220/42 219/219/5 225/225/45
f 220/220/42 225/225/45 226/226/125
f 227/227/36 228/228/35 216/216/31
f 227/227/36 216/216/31 215/215/123
f 229/229/126 230/230/120 228/228/35
f 229/229/126 228/228/35 227/227/36
f 231/231/122 232/232/126 224/224/36
f 231/231/122 224/224/36 223/223/5
f 233/233/120 234/234/126 226/226/125
f 233/233/120 226/226/125 225/225/45
f 235/235/126 236/236/122 222/222/124
f 235/235/126 222/222/124 221/221/34
f 237/237/119 238/238/120 239/239/121
f 237/237/119 239/239/121 240/240/44
f 241/241/120 242/242/119 243/243/42
f 241/241/120 243/243/42 244/244/127
f 245/245/122 246/246/119 247/247/123
f 245/245/122 247/247/123 248/248/31
f 249/249/119 250/250/122 251/251/5
f 249/249/119 251/251/5 252/252/42
f 244/244/127 243/243/42 253/253/128
f 244/244/127 253/253/128 254/254/124
f 255/255/5 256/256/36 240/240/44
f 255/255/5 240/240/44 239/239/121
f 252/252/42 251/251/5 257/257/45
f 252/252/42 257/257/45 258/258/125
f 259/259/36 260/260/35 248/248/31
f 259/259/36 248/248/31 247/247/123
f 261/261/126 262/262/120 260/260/35
f 261/261/126 260/260/35 259/259/36
f 263/263/122 264/264/126 256/256/36
f 263/263/122 256/256/36 255/255/5
f 265/265/120 266/266/126 258/258/125
f 265/265/120 258/258/125 257/257/45
f 267/267/126 268/268/122 254/254/124
f 267/267/126 254/254/124 253/253/128
# Vertices: 268, normals: 128, texture coordinates: 268, faces: 228

o obj2
v -2.88372967 9.36731599 2.0624956
v -2.88372965 9.30307898 2.06249559
v -2.87639351 9.29036447 2.052111
v -2.87639354 9.38003049 2.05211102
v -2.90237688 9.29036446 2.03375513
v -2.90237691 9.38003049 2.03375514
v -2.90971305 9.30307897 2.0441397
v -2.90971307 9.36731598 2.04413971
v -2.90971305 9.30307897 2.0441397
v -2.90971307 9.36731598 2.04413971
v -2.89943914 9.39454247 2.08473285
v -2.92542253 9.39454247 2.06637696
v -2.92542249 9.27585247 2.06637694
v -2.8994391 9.27585248 2.08473283
v -2.91808637 9.40725697 2.0559924
v -2.89210298 9.40725698 2.07434829
v -2.89210293 9.26313796 2.07434826
v -2.91808633 9.26313796 2.05599237
v -2.92542253 9.39454247 2.06637696
v -2.92542249 9.27585247 2.06637694
v -3.24243114 9.09106698 1.95450088
v -2.91894296 9.09106705 2.18302852
v -2.88914342 9.10851012 2.20408037
v -3.27223073 9.10851004 1.933449
v -3.14799376 9.18536937 1.89079449
v -3.14799387 9.52653215 1.89079456
v -2.89045611 9.5265322 2.07273154
v -2.890456 9.18536942 2.07273147
v -2.84589409 9.1853694 2.1730906
v -2.84589417 9.5265322 2.17309069
v -2.87299553 9.52653219 2.21548817
v -2.87299542 9.18536939 2.2154881
v -3.20945593 9.088739 1.9777962
v -2.9519182 9.08873905 2.15973316
v -3.28647739 9.1449956 1.9233845
v -3.25460696 9.14499562 1.88435635
v -3.24163359 9.11046234 1.89352133
v -3.27223073 9.10851004 1.933449
v -3.25747478 9.18536932 1.8823304
v -3.22217628 9.18536934 1.86259526
v -3.22170819 9.14499563 1.86531624
v -3.24243114 9.09106698 1.95450088
v -3.21342854 9.09457824 1.91344674
v -3.1804533 9.091067 1.93674205
v -3.20945593 9.088739 1.9777962
v -3.21986678 9.11814277 1.87602082
v -3.14933697 9.14499565 1.89269586
v -3.18433819 9.14499564 1.87226834
v -3.18231223 9.18536936 1.86940055
v -3.15940147 9.1085101 1.90694249
v -3.19350316 9.11046237 1.88524168
v -2.9519182 9.08873905 2.15973316
v -2.92291552 9.09106706 2.11867891
v -2.88994024 9.09457831 2.14197424
v -2.91894296 9.09106705 2.18302852
v -2.86173523 9.11046243 2.16189964
v -2.88914342 9.10851012 2.20408037
v -2.90186374 9.10851015 2.08887945
v -2.87001496 9.11046243 2.11376933
v -2.87489678 9.14499569 2.21414488
v -2.84876189 9.1449957 2.17106464
v -2.85251444 9.11814285 2.13553617
v -2.858824 9.18536943 2.09792814
v -2.86084998 9.14499571 2.10079596
v -2.89179922 9.1449957 2.07463283
v -2.83908896 9.18536942 2.13322664
v -2.84180994 9.14499571 2.13369474
v -3.28837878 9.18536929 1.92204129
v -3.28837889 9.52653211 1.92204136
v -3.25747489 9.52653212 1.88233046
v -3.1823123 9.52653215 1.86940056
v -3.22217639 9.52653213 1.86259533
v -2.83908903 9.52653221 2.13322672
v -2.85882411 9.52653221 2.0979282
v -2.87489678 9.14499569 2.21414488
v -3.28647739 9.1449956 1.9233845
v -2.87299542 9.18536939 2.2154881
v -3.28837878 9.18536929 1.92204129
v -2.87299553 9.52653219 2.21548817
v -3.28837889 9.52653211 1.92204136
v -3.25747489 9.52653212 1.88233046
v -3.28837889 9.52653211 1.92204136
v -2.87299553 9.52653219 2.21548817
v -2.84589417 9.5265322 2.17309069
v -2.83908903 9.52653221 2.13322672
v -3.22217639 9.52653213 1.86259533
v -2.85882411 9.52653221 2.0979282
v -3.1823123 9.52653215 1.86940056
v -2.89045611 9.5265322 2.07273154
v -3.14799387 9.52653215 1.89079456
vn -0.8042 0.5491 -0.2275
vn -0.8042 0.5491 0.2275
vn -0.63028 -0.71728 -0.29709
vn -0.63028 -0.71728 0.29709
vn 0.63028 -0.71728 -0.29709
vn 0.63028 -0.71728 0.29709
vn 0.8042 0.5491 0.2275
vn 0.80417 0.54918 -0.22739
vn 0.80422 0.54911 0.2274
vn 0.80422 0.54911 -0.2274
vn -0.7071 0.5 -0.5
vn 0.7071 0.5 -0.5
vn 0.7071 0.5 0.5
vn -0.7071 0.5 0.5
vn 0.7071 -0.5 0.5
vn -0.7071 -0.5 0.5
vn -0.7071 -0.5 -0.5
vn 0.7071 -0.5 -0.5
vn 0.1918 0.64389 -0.74069
vn -0.19189 0.64388 -0.74067
vn -0.55659 0.61678 -0.55659
vn 0.55659 0.61678 -0.55659
vn 0.0324 -0.99895 -0.0324
vn 0.0206 -0.71318 0.70068
vn -0.0205 -0.71313 0.70073
vn -0.0324 -0.99895 -0.0324
vn -0.96921 -0.2435 -0.0366
vn -0.72428 -0.18189 0.66508
vn -0.59181 0.56501 0.57491
vn -0.73089 0.68199 -0.0264
vn 0.0264 0.68188 -0.73098
vn -0.0264 0.68188 -0.73098
vn 0.74064 0.64394 -0.19181
vn 0.94322 -0.2312 -0.2385
vn 0.6892 -0.2236 -0.6892
vn 0.96927 -0.24329 -0.0364
vn 0.70661 -0.70661 -0.0376
vn 0.68798 -0.68798 -0.23099
vn 0.19191 0.64393 -0.74063
vn 0.2385 -0.2313 -0.9432
vn 0.0363 -0.24329 -0.96927
vn 0.0264 0.68193 -0.73094
vn 0.57735 -0.57735 -0.57735
vn 0.0363 -0.96769 -0.2495
vn 0.23801 -0.94165 -0.23801
vn 0.2495 -0.96769 -0.0363
vn 0.0376 -0.70661 -0.70661
vn 0.23099 -0.68798 -0.68798
vn -0.0263 0.68199 -0.73089
vn -0.0364 -0.24329 -0.96927
vn -0.2385 -0.2313 -0.9432
vn -0.19181 0.64394 -0.74064
vn -0.6892 -0.2236 -0.6892
vn -0.0376 -0.70661 -0.70661
vn -0.23099 -0.68798 -0.68798
vn -0.74063 0.64393 -0.19191
vn -0.9432 -0.2313 -0.2385
vn -0.57738 -0.57738 -0.57728
vn -0.2495 -0.96769 -0.0363
vn -0.23801 -0.94165 -0.23801
vn -0.0363 -0.96769 -0.2495
vn -0.70661 -0.70661 -0.0376
vn -0.68798 -0.68798 -0.23099
vn 0.73094 0.68194 -0.0263
vn 0.59181 0.56491 0.57501
vn 0.72428 -0.18189 0.66508
vn 0.18579 -0.72228 0.66618
vn 0.54372 -0.54372 0.63932
vn -0.54372 -0.54372 0.63932
vn -0.18579 -0.72228 0.66618
vn -0.74069 0.64389 -0.1918
vn 0.74067 0.64388 -0.19189
vn -0.73098 0.68188 -0.0264
vn 0.73098 0.68188 -0.0264
vn -0.59171 0.56501 0.57501
vn 0.59181 0.56501 0.57491
vn 0.72431 -0.182 0.66501
vn 0.59168 0.56508 0.57498
vn -0.59181 0.56491 0.57501
vn -0.72433 -0.18191 0.66503
vn -0.54379 -0.54369 0.63929
vn 0.54369 -0.54379 0.63929
vn -0.18581 -0.72233 0.66612
vn 0.18581 -0.72233 0.66612
vn -0.0205 -0.71318 0.70068
vn 0.0206 -0.71323 0.70063
vt 0.06705 0.42574
vt 0.06705 0.45052
vt 0.07172 0.45052
vt 0.07172 0.42574
vt 0.07999 0.45052
vt 0.07999 0.42574
vt 0.08466 0.45052
vt 0.08466 0.42574
vt 0.05878 0.45052
vt 0.05878 0.42574
vt 0.06705 0.41334
vt 0.05878 0.41334
vt 0.05878 0.46292
vt 0.06705 0.46292
vt 0.07999 0.41334
vt 0.07172 0.41334
vt 0.07172 0.46292
vt 0.07999 0.46292
vt 0.08466 0.41334
vt 0.08466 0.46292
vt 0.59351 0.131
vt 0.71088 0.131
vt 0.7217 0.12583
vt 0.5827 0.12583
vt 0.05343 0.06111
vt 0.05343 0.15706
vt 0.14734 0.15706
vt 0.14734 0.06111
vt 0.18362 0.05719
vt 0.18362 0.15706
vt 0.19887 0.15706
vt 0.19887 0.05294
vt 0.61559 0.13284
vt 0.6891 0.13318
vt 0.00641 0.03771
vt 0.02195 0.04542
vt 0.0287 0.03623
vt 0.01594 0.0233
vt 0.01722 0.05719
vt 0.02959 0.05984
vt 0.03213 0.04886
vt 0.03058 0.01377
vt 0.03823 0.02988
vt 0.05048 0.02602
vt 0.04635 0.00918
vt 0.03407 0.04172
vt 0.05338 0.04975
vt 0.04214 0.04993
vt 0.0416 0.06093
vt 0.05264 0.03818
vt 0.04139 0.04009
vt 0.15448 0.00918
vt 0.15042 0.02596
vt 0.16264 0.02988
vt 0.1703 0.01379
vt 0.17215 0.03623
vt 0.18493 0.02335
vt 0.14821 0.03818
vt 0.15946 0.04009
vt 0.19442 0.03775
vt 0.17889 0.04542
vt 0.16677 0.04172
vt 0.15919 0.06093
vt 0.15867 0.04993
vt 0.14741 0.04975
vt 0.17122 0.05985
vt 0.16869 0.04886
vt 0.00195 0.05294
vt 0.00195 0.15706
vt 0.01722 0.15706
vt 0.0416 0.15706
vt 0.02959 0.15706
vt 0.17122 0.15706
vt 0.15919 0.15706
vt 0.72686 0.11502
vt 0.57753 0.11502
vt 0.72755 0.10305
vt 0.57684 0.10305
vt 0.72755 0.00195
vt 0.57684 0.00195
vt 0.90615 0.3514
vt 0.89136 0.35072
vt 0.89136 0.50038
vt 0.90615 0.4997
vt 0.91689 0.49456
vt 0.91689 0.35653
vt 0.92202 0.48383
vt 0.92202 0.36727
vt 0.92354 0.47421
vt 0.92385 0.39896
usemtl mat0
f 269/269/129 270/270/130 271/271/131
f 269/269/129 271/271/131 272/272/132
f 273/273/133 274/274/134 272/272/132
f 273/273/133 272/272/132 271/271/131
f 275/275/135 276/276/136 274/274/134
f 275/275/135 274/274/134 273/273/133
f 277/277/137 270/270/130 269/269/129
f 277/277/137 269/269/129 278/278/138
f 279/279/139 280/280/140 278/278/138
f 279/279/139 278/278/138 269/269/129
f 281/281/141 282/282/142 270/270/130
f 281/281/141 270/270/130 277/277/137
f 272/272/132 274/274/134 283/283/143
f 272/272/132 283/283/143 284/284/144
f 273/273/133 271/271/131 285/285/145
f 273/273/133 285/285/145 286/286/146
f 269/269/129 272/272/132 284/284/144
f 269/269/129 284/284/144 279/279/139
f 287/287/140 283/283/143 274/274/134
f 287/287/140 274/274/134 276/276/136
f 282/282/142 285/285/145 271/271/131
f 282/282/142 271/271/131 270/270/130
f 275/275/135 273/273/133 286/286/146
f 275/275/135 286/286/146 288/288/141
f 289/289/147 290/290/148 291/291/149
f 289/289/147 291/291/149 292/292/150
f 293/293/151 294/294/152 295/295/153
f 293/293/151 295/295/153 296/296/154
f 297/297/155 298/298/156 299/299/157
f 297/297/155 299/299/157 300/300/158
f 289/289/147 301/301/159 302/302/160
f 289/289/147 302/302/160 290/290/148
f 303/303/161 304/304/162 305/305/163
f 303/303/161 305/305/163 306/306/150
f 307/307/164 308/308/165 309/309/166
f 307/307/164 309/309/166 304/304/162
f 310/310/167 311/311/168 312/312/169
f 310/310/167 312/312/169 313/313/170
f 304/304/162 309/309/166 314/314/171
f 304/304/162 314/314/171 305/305/163
f 293/293/151 315/315/172 316/316/173
f 293/293/151 316/316/173 317/317/174
f 315/315/172 318/318/175 319/319/176
f 315/315/172 319/319/176 316/316/173
f 317/317/174 316/316/173 309/309/166
f 317/317/174 309/309/166 308/308/165
f 316/316/173 319/319/176 314/314/171
f 316/316/173 314/314/171 309/309/166
f 306/306/150 305/305/163 311/311/168
f 306/306/150 311/311/168 310/310/167
f 320/320/177 321/321/178 322/322/179
f 320/320/177 322/322/179 323/323/180
f 312/312/169 311/311/168 319/319/176
f 312/312/169 319/319/176 318/318/175
f 311/311/168 305/305/163 314/314/171
f 311/311/168 314/314/171 319/319/176
f 323/323/180 322/322/179 324/324/181
f 323/323/180 324/324/181 325/325/149
f 321/321/178 326/326/182 327/327/183
f 321/321/178 327/327/183 322/322/179
f 328/328/184 329/329/185 297/297/155
f 328/328/184 297/297/155 300/300/158
f 322/322/179 327/327/183 330/330/186
f 322/322/179 330/330/186 324/324/181
f 296/296/154 331/331/187 332/332/188
f 296/296/154 332/332/188 333/333/189
f 331/331/187 334/334/190 335/335/191
f 331/331/187 335/335/191 332/332/188
f 333/333/189 332/332/188 327/327/183
f 333/333/189 327/327/183 326/326/182
f 332/332/188 335/335/191 330/330/186
f 332/332/188 330/330/186 327/327/183
f 325/325/149 324/324/181 329/329/185
f 325/325/149 329/329/185 328/328/184
f 297/297/155 329/329/185 335/335/191
f 297/297/155 335/335/191 334/334/190
f 329/329/185 324/324/181 330/330/186
f 329/329/185 330/330/186 335/335/191
f 336/336/192 337/337/193 338/338/194
f 336/336/192 338/338/194 307/307/164
f 294/294/152 293/293/151 317/317/174
f 294/294/152 317/317/174 339/339/195
f 339/339/195 317/317/174 308/308/165
f 339/339/195 308/308/165 340/340/196
f 340/340/196 308/308/165 307/307/164
f 340/340/196 307/307/164 338/338/194
f 312/312/169 321/321/178 320/320/177
f 312/312/169 320/320/177 313/313/170
f 321/321/178 312/312/169 318/318/175
f 321/321/178 318/318/175 326/326/182
f 326/326/182 318/318/175 315/315/172
f 326/326/182 315/315/172 333/333/189
f 333/333/189 315/315/172 293/293/151
f 333/333/189 293/293/151 296/296/154
f 298/298/156 297/297/155 334/334/190
f 298/298/156 334/334/190 341/341/197
f 341/341/197 334/334/190 331/331/187
f 341/341/197 331/331/187 342/342/198
f 342/342/198 331/331/187 296/296/154
f 342/342/198 296/296/154 295/295/153
f 336/336/192 307/307/164 304/304/162
f 336/336/192 304/304/162 303/303/161
f 343/343/199 344/344/200 292/292/150
f 343/343/199 292/292/150 291/291/149
f 345/345/201 346/346/202 344/344/200
f 345/345/201 344/344/200 343/343/199
f 346/346/202 345/345/201 347/347/203
f 346/346/202 347/347/203 348/348/204
f 349/349/205 350/350/206 351/351/207
f 349/349/205 351/351/207 352/352/208
f 349/349/205 352/352/208 353/353/209
f 349/349/205 353/353/209 354/354/210
f 354/354/210 353/353/209 355/355/211
f 354/354/210 355/355/211 356/356/212
f 356/356/212 355/355/211 357/357/213
f 356/356/212 357/357/213 358/358/214
# Vertices: 90, normals: 86, texture coordinates: 90, faces: 116

o obj3
v -2.90971333 9.91862322 2.04413984
v -2.88372994 9.91862322 2.06249574
v -2.88372996 9.98286031 2.06249575
v -2.90971335 9.9828603 2.04413985
v -2.87639379 9.90590873 2.05211115
v -2.87639382 9.99557481 2.05211117
v -2.90237717 9.90590872 2.03375527
v -2.9023772 9.9955748 2.03375529
v -2.92542277 9.89139675 2.06637709
v -2.89943938 9.89139676 2.08473298
v -2.89943942 10.01008675 2.084733
v -2.92542281 10.01008675 2.06637711
v -2.89210321 9.87868226 2.07434841
v -2.91808661 9.87868226 2.05599251
v -2.91808666 10.02280125 2.05599254
v -2.89210326 10.02280126 2.07434844
v -2.90971333 9.91862322 2.04413984
v -2.92542277 9.89139675 2.06637709
v -2.92542281 10.01008675 2.06637711
v -2.90971335 9.9828603 2.04413985
v -2.89748386 9.57459965 2.17882995
v -3.24564515 9.57459958 1.93287202
v -3.24564515 9.59590391 1.93287203
v -2.89748387 9.59590398 2.17882996
v -3.2456452 9.72857219 1.93287205
v -2.89748391 9.72857226 2.17882998
v -2.85764842 9.72857228 2.12244148
v -3.20580967 9.72857221 1.87648357
v -3.2456452 9.74847804 1.93287205
v -2.89748392 9.74847811 2.17882998
v -3.24564525 9.88114611 1.93287208
v -2.89748396 9.88114618 2.17883001
v -2.85764847 9.8811462 2.12244151
v -3.20580972 9.88114613 1.8764836
v -3.24564525 9.90105211 1.93287208
v -2.89748397 9.90105218 2.17883001
v -3.24564529 10.03372032 1.93287211
v -2.89748401 10.03372039 2.17883004
v -2.85764851 10.03372041 2.12244153
v -3.20580977 10.03372034 1.87648363
v -3.2456453 10.05362632 1.93287211
v -2.89748401 10.05362639 2.17883004
v -2.90481992 9.57459964 2.18921437
v -2.90481993 9.59590397 2.18921437
v -3.25298122 9.5959039 1.94325644
v -3.25298121 9.57459957 1.94325644
v -3.25298126 9.71585768 1.94325646
v -3.20580967 9.71585771 1.87648357
v -2.85764841 9.71585778 2.12244147
v -2.90481997 9.71585775 2.18921439
v -2.90481998 9.74847811 2.1892144
v -3.25298127 9.74847804 1.94325647
v -3.2529813 9.8684316 1.94325649
v -3.20580972 9.86843163 1.8764836
v -2.85764846 9.8684317 2.1224415
v -2.90482002 9.86843167 2.18921442
v -2.90482003 9.90105217 2.18921443
v -3.25298131 9.9010521 1.9432565
v -3.25298135 10.02100574 1.94325652
v -3.20580977 10.02100576 1.87648362
v -2.85764851 10.02100583 2.12244153
v -2.90482007 10.02100581 2.18921445
v -2.90482008 10.05362638 2.18921446
v -3.25298136 10.05362631 1.94325653
v -2.96351195 10.05161326 2.0178636
v -3.01015172 10.05526963 1.98473537
v -3.00895053 10.08658266 1.9856219
v -2.96231081 10.08292512 2.01875009
v -2.98752369 9.59274215 2.00104549
v -2.98442205 9.66752574 2.00323666
v -2.93904204 9.66470434 2.03529519
v -2.94214364 9.58992079 2.03310409
v -3.10458057 9.65661854 1.91835066
v -3.10713884 9.73143304 1.91654341
v -3.06174028 9.73376019 1.94861536
v -3.05918196 9.65894576 1.95042265
v -2.963113 9.99038459 2.01391003
v -3.00984547 9.99412812 1.98072792
v -3.01046718 10.02289521 1.98309041
v -2.96378386 10.0193011 2.01624629
v -3.13137914 10.04011781 1.90025163
v -3.0870908 10.03459975 1.93132193
v -3.08825169 10.00526437 1.92776658
v -3.13254014 10.01078236 1.89669651
v -3.08787747 9.97788073 1.92236981
v -3.13216595 9.98339893 1.89129972
v -2.95553457 9.78741218 2.02152421
v -2.9527235 9.75988544 2.01784894
v -2.99724017 9.75950937 1.9866176
v -3.00005119 9.7870359 1.99029286
v -3.00150084 9.8165236 1.99200399
v -2.9569842 9.81689988 2.02323536
v -3.09202627 9.84847536 1.92721906
v -3.08583383 9.92297049 1.93159373
v -3.0406289 9.91733749 1.96352866
v -3.0468213 9.84284229 1.95915398
v -2.96498688 10.05156609 2.01993497
v -2.96378348 10.08292294 2.02082315
v -3.01042319 10.08658048 1.98769496
v -3.01162661 10.05522369 1.98680682
v -2.98899093 9.59274215 2.00312242
v -2.94361088 9.58992079 2.03518102
v -2.94050926 9.66470434 2.03737209
v -2.9858893 9.66752574 2.00531359
v -3.10604781 9.65661854 1.92042759
v -3.06064922 9.65894576 1.95249957
v -3.06320754 9.73376019 1.95069228
v -3.10860609 9.73143304 1.91862034
v -2.9645912 9.99018372 2.01596941
v -2.96526179 10.01915408 2.0183111
v -3.01194509 10.02275029 1.9851554
v -3.01132368 9.99392732 1.98278728
v -3.13285136 10.03992586 1.90231611
v -3.1340169 10.01047582 1.89874708
v -3.08972844 10.00495784 1.92981716
v -3.08856303 10.03440781 1.93338641
v -3.13364117 9.98297905 1.89332797
v -3.08935268 9.97746085 1.92439807
v -2.95698408 9.78710492 2.02359403
v -3.0015007 9.78672865 1.99236267
v -2.99867804 9.75908818 1.98867219
v -2.9541614 9.75946425 2.01990356
v -3.00295603 9.81633159 1.99408051
v -2.95843939 9.81670786 2.02531188
v -3.09349352 9.84847536 1.929296
v -3.04828855 9.84284229 1.96123092
v -3.04209614 9.91733749 1.96560559
v -3.08730108 9.92297049 1.93367066
v -2.9645912 9.99018372 2.01596941
v -3.01132368 9.99392732 1.98278728
v -3.01042319 10.08658048 1.98769496
v -2.96378348 10.08292294 2.02082315
v -3.01132368 9.99392732 1.98278728
v -3.01194509 10.02275029 1.9851554
v -2.96378348 10.08292294 2.02082315
v -2.96498688 10.05156609 2.01993497
v -3.13364117 9.98297905 1.89332797
v -3.1340169 10.01047582 1.89874708
v -2.94361088 9.58992079 2.03518102
v -2.98899093 9.59274215 2.00312242
v -2.9858893 9.66752574 2.00531359
v -2.94050926 9.66470434 2.03737209
v -2.94050926 9.66470434 2.03737209
v -2.94361088 9.58992079 2.03518102
v -2.98899093 9.59274215 2.00312242
v -2.9858893 9.66752574 2.00531359
v -3.10604781 9.65661854 1.92042759
v -3.10860609 9.73143304 1.91862034
v -3.06320754 9.73376019 1.95069228
v -3.06064922 9.65894576 1.95249957
v -3.10860609 9.73143304 1.91862034
v -3.06320754 9.73376019 1.95069228
v -3.06064922 9.65894576 1.95249957
v -3.10604781 9.65661854 1.92042759
v -3.01162661 10.05522369 1.98680682
v -3.01042319 10.08658048 1.98769496
v -2.96526179 10.01915408 2.0183111
v -2.9645912 9.99018372 2.01596941
v -3.08856303 10.03440781 1.93338641
v -3.08972844 10.00495784 1.92981716
v -3.13285136 10.03992586 1.90231611
v -3.08935268 9.97746085 1.92439807
v -3.13285136 10.03992586 1.90231611
v -3.08856303 10.03440781 1.93338641
v -3.08935268 9.97746085 1.92439807
v -3.13364117 9.98297905 1.89332797
v -2.9541614 9.75946425 2.01990356
v -2.99867804 9.75908818 1.98867219
v -3.00295603 9.81633159 1.99408051
v -2.95843939 9.81670786 2.02531188
v -2.95698408 9.78710492 2.02359403
v -2.9541614 9.75946425 2.01990356
v -3.0015007 9.78672865 1.99236267
v -3.00295603 9.81633159 1.99408051
v -2.95843939 9.81670786 2.02531188
v -2.99867804 9.75908818 1.98867219
v -3.04828855 9.84284229 1.96123092
v -3.09349352 9.84847536 1.929296
v -3.08730108 9.92297049 1.93367066
v -3.04209614 9.91733749 1.96560559
v -3.04209614 9.91733749 1.96560559
v -3.04828855 9.84284229 1.96123092
v -3.09349352 9.84847536 1.929296
v -3.08730108 9.92297049 1.93367066
v -3.25099466 10.1872742 1.9484517
v -3.25099447 9.57600752 1.94845158
v -3.20335474 9.57600754 1.88101601
v -3.20335493 10.18727422 1.88101612
v -2.92291593 10.23071857 2.11867918
v -3.18045375 10.23071851 1.93674229
v -3.20945638 10.23304636 1.97779644
v -2.95191865 10.23304641 2.1597334
v -3.25099466 10.1872742 1.9484517
v -2.91038036 10.18727427 2.18907812
v -2.95191865 10.23304641 2.1597334
v -3.20945638 10.23304636 1.97779644
v -2.91038017 9.57600758 2.18907801
v -2.91038036 10.18727427 2.18907812
v -2.86274066 10.18727429 2.12164253
v -2.86274046 9.57600761 2.12164242
v -2.84589427 9.53023527 2.17309071
v -2.84589445 10.13641608 2.17309083
v -2.87299581 10.13641606 2.21548831
v -2.87299561 9.53023526 2.2154882
v -3.25747517 10.13641599 1.8823306
v -3.25747498 9.53023519 1.88233049
v -3.28837898 9.53023517 1.92204139
v -3.28837917 10.13641598 1.9220415
v -2.8904562 9.53023527 2.07273157
v -3.14799396 9.53023522 1.89079459
v -3.14799415 10.13641603 1.8907947
v -2.89045639 10.13641608 2.07273168
v -2.91038017 9.57600758 2.18907801
v -3.25099447 9.57600752 1.94845158
v -3.28837898 9.53023517 1.92204139
v -2.87299561 9.53023526 2.2154882
v -3.28837917 10.13641598 1.9220415
v -2.87299581 10.13641606 2.21548831
v -3.25099447 9.57600752 1.94845158
v -2.91038017 9.57600758 2.18907801
v -2.91038036 10.18727427 2.18907812
v -3.25099466 10.1872742 1.9484517
v -3.21342899 10.22720719 1.91344698
v -3.24243158 10.2307182 1.95450112
v -3.24163403 10.21132302 1.89352156
v -3.27223117 10.21327518 1.93344924
v -3.15940191 10.21327522 1.90694273
v -3.19350359 10.21132304 1.88524191
v -3.28647781 10.17678981 1.92338473
v -3.25460737 10.17678982 1.88435657
v -3.21986722 10.20364271 1.87602105
v -3.18231262 10.13641602 1.86940076
v -3.18433861 10.17678985 1.87226857
v -3.14933738 10.17678985 1.89269608
v -3.22217672 10.13641601 1.86259553
v -3.22170863 10.17678984 1.86531649
v -2.91894341 10.23071827 2.18302876
v -2.88994069 10.22720726 2.14197448
v -2.88914386 10.21327526 2.2040806
v -2.86173564 10.2113231 2.1618999
v -2.84876227 10.1767899 2.17106488
v -2.87489719 10.17678989 2.2141451
v -2.87001536 10.2113231 2.1137695
v -2.90186415 10.21327527 2.08887971
v -2.85251486 10.20364278 2.13553642
v -2.83908936 10.13641608 2.13322693
v -2.84181034 10.17678991 2.13369497
v -2.89179962 10.17678991 2.07463306
v -2.86085039 10.17678991 2.10079619
v -2.85882439 10.13641608 2.09792835
v -3.28647781 10.17678981 1.92338473
v -3.27223117 10.21327518 1.93344924
v -2.91894341 10.23071827 2.18302876
v -2.88914386 10.21327526 2.2040806
v -2.87489719 10.17678989 2.2141451
v -3.22217648 9.5302352 1.86259536
v -3.18231239 9.53023521 1.86940059
v -2.83908912 9.53023528 2.13322675
v -2.85882419 9.53023528 2.09792824
v -3.24243158 10.2307182 1.95450112
v -3.28837898 9.53023517 1.92204139
v -3.25747498 9.53023519 1.88233049
v -2.84589427 9.53023527 2.17309071
v -2.87299561 9.53023526 2.2154882
v -3.22217648 9.5302352 1.86259536
v -2.83908912 9.53023528 2.13322675
v -3.18231239 9.53023521 1.86940059
v -2.85882419 9.53023528 2.09792824
v -3.14799396 9.53023522 1.89079459
v -2.8904562 9.53023527 2.07273157
v -2.97851786 10.07259995 2.00544951
v -2.98968287 10.07357694 1.99751875
v -2.9893411 10.07924972 1.99773643
v -2.97817608 10.07827266 2.00566719
v -2.98582907 10.08297461 2.00021296
v -2.98120454 10.08257004 2.00349807
v -2.98120454 10.08257004 2.00349807
v -2.98582907 10.08297461 2.00021296
v -2.98669498 10.08298013 2.00143263
v -2.98207049 10.08257541 2.0047178
v -2.97817608 10.07827266 2.00566719
v -2.97904203 10.0782781 2.00688693
v -2.97851786 10.07259995 2.00544951
v -2.9793838 10.07260539 2.00666925
v -2.9820299 10.06887499 2.00297301
v -2.98289583 10.06888043 2.00419271
v -2.98665441 10.06927971 1.99968787
v -2.9820299 10.06887499 2.00297301
v -2.98289583 10.06888043 2.00419271
v -2.98752031 10.06928515 2.00090755
v -2.98968287 10.07357694 1.99751875
v -2.99054877 10.07358238 1.99873842
v -2.9893411 10.07924972 1.99773643
v -2.990207 10.07925524 1.9989561
v -2.9820299 10.06887499 2.00297301
v -2.98665441 10.06927971 1.99968787
v -2.98669498 10.08298013 2.00143263
v -2.990207 10.07925524 1.9989561
v -2.97904203 10.0782781 2.00688693
v -2.98207049 10.08257541 2.0047178
v -2.9793838 10.07260539 2.00666925
v -2.99054877 10.07358238 1.99873842
v -2.98289583 10.06888043 2.00419271
v -2.98752031 10.06928515 2.00090755
vn 0.80422 0.54911 0.2274
vn -0.8042 0.5491 0.2275
vn -0.8042 0.5491 -0.2275
vn 0.8042 0.5491 -0.2275
vn -0.63028 -0.71728 -0.29709
vn -0.63028 -0.71728 0.29709
vn 0.63028 -0.71728 -0.29709
vn 0.63028 -0.71728 0.29709
vn 0.7071 0.5 0.5
vn -0.7071 0.5 0.5
vn -0.7071 0.5 -0.5
vn 0.7071 0.5 -0.5
vn -0.7071 -0.5 -0.5
vn 0.7071 -0.5 -0.5
vn 0.7071 -0.5 0.5
vn -0.7071 -0.5 0.5
vn 0.8042 0.5491 0.2275
vn 0.80417 0.54918 -0.22739
vn 0 -1 0
vn 0 -0.70711 0.70711
vn 0 0 1
vn 0 1 0
vn 0 0.70711 0.70711
vn 0 0.70711 -0.70711
vn 0 0 -1
vn -0.71179 -0.70219 -0.0165
vn 0.709 -0.7039 0.043
vn 0.54318 -0.57738 0.60958
vn -0.60967 -0.57617 0.54437
vn 0.60589 -0.57739 -0.54729
vn 0.54732 -0.57732 0.60592
vn -0.60589 -0.57739 0.54729
vn -0.54732 -0.57732 -0.60592
vn 0.55268 -0.57738 -0.60098
vn 0.60101 -0.57731 0.55271
vn -0.55268 -0.57738 0.60098
vn -0.60101 -0.57731 -0.55271
vn -0.5553 -0.6172 -0.5574
vn 0.59863 -0.62523 -0.50073
vn 0.7081 -0.7032 0.064
vn -0.7151 -0.6988 0.0179
vn 0.51328 -0.53018 0.67487
vn -0.63549 -0.53399 0.55769
vn -0.72009 -0.69379 0.0111
vn 0.70746 -0.68916 0.15669
vn -0.52417 -0.66686 -0.52967
vn 0.62461 -0.66311 -0.4125
vn -0.71462 -0.69382 0.089
vn -0.57842 -0.66693 -0.46972
vn 0.57623 -0.66313 -0.47772
vn 0.72027 -0.68917 0.0791
vn 0.58332 -0.53021 0.61532
vn -0.57132 -0.53392 0.62332
vn 0.63281 -0.57741 -0.51591
vn 0.51594 -0.57734 0.63284
vn -0.63281 -0.57741 0.51591
vn -0.51594 -0.57734 -0.63284
vn -0.69852 0.71432 -0.0425
vn -0.6066 0.5803 0.5434
vn 0.54629 0.57549 0.60859
vn 0.7064 0.7076 0.0171
vn 0.60579 0.57739 -0.54739
vn -0.54739 0.57739 -0.60579
vn -0.60579 0.57739 0.54739
vn 0.54739 0.57739 0.60579
vn 0.55271 0.57731 -0.60101
vn -0.60098 0.57738 -0.55268
vn -0.55261 0.57741 0.60101
vn 0.60101 0.57731 0.55271
vn -0.54678 0.52988 -0.64828
vn -0.69666 0.71456 -0.0637
vn 0.70701 0.70701 -0.0168
vn 0.60724 0.52963 -0.59224
vn 0.5184 0.62119 0.58769
vn 0.69994 0.71404 -0.0156
vn -0.687 0.7095 -0.157
vn -0.63032 0.61742 0.47062
vn 0.64029 0.47559 -0.60319
vn -0.50848 0.47188 -0.72027
vn -0.69998 0.70948 -0.0817
vn 0.69408 0.71408 -0.0913
vn 0.57113 0.47562 -0.66903
vn -0.58348 0.47188 -0.66097
vn 0.57899 0.62119 0.52809
vn -0.57563 0.61743 0.53613
vn 0.63277 0.57738 -0.51598
vn -0.51598 0.57738 -0.63277
vn -0.63277 0.57738 0.51598
vn 0.51598 0.57738 0.63277
vn -0.54667 0.52987 -0.64837
vn 0.6073 0.5296 -0.5922
vn 0.54619 0.57559 0.60859
vn -0.60666 0.58027 0.54337
vn 0.60721 0.52971 -0.59221
vn 0.70696 0.70706 -0.0168
vn -0.69847 0.71437 -0.0425
vn 0.6403 0.4757 -0.6031
vn 0.69989 0.71408 -0.0156
vn -0.54729 0.57739 -0.60589
vn 0.60592 0.57732 -0.54732
vn 0.54729 0.57739 0.60589
vn -0.60592 0.57732 0.54732
vn -0.60589 0.57739 0.54729
vn -0.54732 0.57732 -0.60592
vn 0.60589 0.57739 -0.54729
vn 0.54732 0.57732 0.60592
vn 0.55268 0.57738 -0.60098
vn -0.55268 0.57738 0.60098
vn -0.60101 0.57731 -0.55271
vn 0.60098 0.57738 0.55268
vn -0.55271 0.57731 0.60101
vn 0.70635 0.70765 0.0172
vn 0.54619 0.57549 0.60868
vn -0.69661 0.71461 -0.0637
vn -0.5467 0.5298 -0.6484
vn -0.63037 0.61748 0.47048
vn -0.68688 0.70958 -0.1571
vn 0.51829 0.62119 0.58779
vn -0.50839 0.47179 -0.72038
vn 0.51832 0.62123 0.58772
vn -0.63041 0.61741 0.47051
vn -0.5084 0.4719 -0.7203
vn 0.64039 0.47559 -0.60309
vn 0.57119 0.47559 -0.66899
vn -0.5757 0.61739 0.5361
vn -0.69987 0.70957 -0.0818
vn -0.5835 0.4718 -0.661
vn 0.69403 0.71413 -0.0913
vn -0.57569 0.61749 0.53599
vn 0.5712 0.4757 -0.6689
vn -0.51591 0.57741 -0.63281
vn 0.6329 0.5773 -0.5159
vn 0.51591 0.57741 0.63281
vn -0.6329 0.5773 0.5159
vn -0.63281 0.57741 0.51591
vn -0.5159 0.5773 -0.6329
vn 0.63281 0.57741 -0.51591
vn 0.5159 0.5773 0.6329
vn -0.3016 0.90451 -0.3015
vn -0.3016 0.90451 0.3015
vn -0.57735 0.57735 0.57735
vn -0.57738 0.57738 -0.57728
vn -0.0365 -0.2435 0.96921
vn 0.0364 -0.24339 0.96925
vn 0.0264 0.68199 0.73089
vn -0.0264 0.68199 0.73089
vn -0.30151 0.90453 -0.30151
vn 0.30151 0.90453 -0.30151
vn -0.0264 0.68188 0.73098
vn 0.0264 0.68188 0.73098
vn 0.3016 0.90451 0.3015
vn 0.3016 0.90451 -0.3015
vn 0.57738 0.57728 -0.57738
vn 0.57738 0.57738 0.57728
vn -0.72428 -0.18189 -0.66508
vn -0.96927 -0.24329 0.0364
vn -0.73089 0.68199 0.0264
vn -0.59181 0.56491 -0.57501
vn 0.96921 -0.2435 0.0365
vn 0.72428 -0.18189 -0.66508
vn 0.59181 0.56501 -0.57491
vn 0.73089 0.68199 0.0264
vn -0.0205 -0.71318 -0.70068
vn 0.0205 -0.71318 -0.70068
vn 0.0324 -0.99895 0.0324
vn -0.0324 -0.99895 0.0324
vn 0.30151 0.90453 0.30151
vn -0.30151 0.90453 0.30151
vn 0.59171 0.56501 -0.57501
vn -0.59181 0.56501 -0.57491
vn 0.73098 0.68188 0.0264
vn -0.73098 0.68188 0.0264
vn -0.3015 0.90451 0.3016
vn 0.3015 0.90451 0.3016
vn 0.3015 0.90451 -0.3016
vn -0.3015 0.90451 -0.3016
vn 0.2385 -0.2312 0.94322
vn 0.19181 0.64394 0.74064
vn 0.6892 -0.2236 0.6892
vn 0.55659 0.61678 0.55659
vn 0.0376 -0.70661 0.70661
vn 0.23099 -0.68798 0.68798
vn 0.74063 0.64393 0.19191
vn 0.9432 -0.2313 0.2385
vn 0.57732 -0.57732 0.57742
vn 0.2495 -0.96769 0.0363
vn 0.23801 -0.94165 0.23801
vn 0.0363 -0.96769 0.2495
vn 0.70661 -0.70661 0.0376
vn 0.68798 -0.68798 0.23099
vn -0.19191 0.64393 0.74063
vn -0.2385 -0.2313 0.9432
vn -0.55659 0.61678 0.55659
vn -0.6892 -0.2236 0.6892
vn -0.94322 -0.2312 0.2385
vn -0.74064 0.64394 0.19181
vn -0.23099 -0.68798 0.68798
vn -0.0376 -0.70661 0.70661
vn -0.57735 -0.57735 0.57735
vn -0.70661 -0.70661 0.0376
vn -0.68798 -0.68798 0.23099
vn -0.0363 -0.96769 0.2495
vn -0.23801 -0.94165 0.23801
vn -0.2495 -0.96769 0.0363
vn 0.74069 0.64389 0.1918
vn -0.1918 0.64389 0.74069
vn -0.74067 0.64388 0.19189
vn 0.54372 -0.54372 -0.63932
vn 0.18579 -0.72228 -0.66618
vn -0.54369 -0.54379 -0.63929
vn -0.18579 -0.72228 -0.66618
vn 0.19189 0.64388 0.74067
vn 0.59181 0.56491 -0.57501
vn 0.72433 -0.18191 -0.66503
vn -0.72431 -0.182 -0.66501
vn -0.59168 0.56508 -0.57498
vn 0.54379 -0.54369 -0.63929
vn 0.18581 -0.72233 -0.66612
vn -0.18581 -0.72233 -0.66612
vn -0.0206 -0.71323 -0.70063
vn -0.6958 -0.6274 -0.3496
vn 0.73509 -0.6311 -0.2477
vn 0.69289 -0.63309 0.3451
vn -0.73809 -0.62939 0.2431
vn 0.2439 -0.6335 0.7343
vn -0.34881 -0.63191 0.69211
vn -0.34881 -0.63202 0.69202
vn 0.24379 -0.63357 0.73427
vn 0.2468 0.627 0.7389
vn -0.34589 0.62859 0.69659
vn -0.73801 -0.62951 0.243
vn -0.73511 0.63111 0.2476
vn -0.69578 -0.62738 -0.34969
vn -0.6928 0.6332 -0.3451
vn -0.2467 -0.62701 -0.73891
vn -0.24379 0.63357 -0.73427
vn 0.34589 -0.62859 -0.69659
vn -0.2468 -0.627 -0.7389
vn -0.2439 0.6335 -0.7343
vn 0.3489 0.63199 -0.69199
vn 0.73511 -0.63111 -0.2476
vn 0.73811 0.6294 -0.243
vn 0.6928 -0.6332 0.3451
vn 0.69578 0.62738 0.34969
vn 0.34589 -0.62848 -0.69668
vn 0.2467 0.62701 0.73891
vn -0.73518 0.63108 0.24749
vn -0.346 0.62851 0.69661
vn -0.69287 0.63307 -0.34518
vn -0.24381 0.63351 -0.73432
vn 0.34892 0.63193 -0.69204
vt 0.0844 0.48179
vt 0.07613 0.48179
vt 0.07613 0.50657
vt 0.0844 0.50657
vt 0.07146 0.48179
vt 0.07146 0.50657
vt 0.06319 0.48179
vt 0.06319 0.50657
vt 0.0844 0.4694
vt 0.07613 0.4694
vt 0.07613 0.51897
vt 0.0844 0.51897
vt 0.07146 0.4694
vt 0.06319 0.4694
vt 0.06319 0.51897
vt 0.07146 0.51897
vt 0.05852 0.48179
vt 0.05852 0.4694
vt 0.05852 0.51897
vt 0.05852 0.50657
vt 0.93033 0.39837
vt 0.93033 0.52508
vt 0.93666 0.52508
vt 0.93666 0.39837
vt 0.24433 0.08174
vt 0.37104 0.08174
vt 0.37104 0.06121
vt 0.24433 0.06121
vt 0.24433 0.08765
vt 0.37104 0.08765
vt 0.92793 0.34482
vt 0.92793 0.21811
vt 0.90741 0.21811
vt 0.90741 0.34482
vt 0.93384 0.34482
vt 0.93384 0.21811
vt 0.38446 0.35322
vt 0.51117 0.35322
vt 0.51117 0.3327
vt 0.38446 0.3327
vt 0.38446 0.35914
vt 0.51117 0.35914
vt 0.94677 0.39837
vt 0.94044 0.39837
vt 0.94044 0.52508
vt 0.94677 0.52508
vt 0.24432 0.10113
vt 0.24432 0.12543
vt 0.37104 0.12543
vt 0.37104 0.10113
vt 0.37104 0.09143
vt 0.24433 0.09143
vt 0.94732 0.34482
vt 0.97162 0.34482
vt 0.97162 0.21811
vt 0.94732 0.21811
vt 0.93762 0.21811
vt 0.93762 0.34482
vt 0.38446 0.37261
vt 0.38446 0.39691
vt 0.51117 0.39691
vt 0.51117 0.37261
vt 0.51117 0.36292
vt 0.38446 0.36292
vt 0.10871 0.50892
vt 0.09164 0.50892
vt 0.09164 0.51822
vt 0.10871 0.51822
vt 0.27572 0.42738
vt 0.27572 0.40512
vt 0.25918 0.40512
vt 0.25918 0.42738
vt 0.11646 0.28233
vt 0.11646 0.26007
vt 0.09993 0.26007
vt 0.09993 0.28233
vt 0.10871 0.49071
vt 0.09164 0.49071
vt 0.09164 0.4993
vt 0.10871 0.4993
vt 0.29547 0.24519
vt 0.27927 0.24519
vt 0.27927 0.25396
vt 0.29547 0.25396
vt 0.27927 0.26225
vt 0.29547 0.26225
vt 0.0919 0.41009
vt 0.0919 0.41838
vt 0.1081 0.41838
vt 0.1081 0.41009
vt 0.1081 0.40132
vt 0.0919 0.40132
vt 0.10843 0.44862
vt 0.10843 0.42637
vt 0.0919 0.42637
vt 0.0919 0.44862
vt 0.09114 0.47414
vt 0.09114 0.48348
vt 0.10818 0.48348
vt 0.10818 0.47414
vt 0.25843 0.46149
vt 0.27496 0.46149
vt 0.27496 0.43924
vt 0.25843 0.43924
vt 0.25843 0.49023
vt 0.27496 0.49023
vt 0.27496 0.46797
vt 0.25843 0.46797
vt 0.09114 0.45586
vt 0.09114 0.46448
vt 0.10818 0.46448
vt 0.10818 0.45586
vt 0.29468 0.23795
vt 0.29468 0.22913
vt 0.27851 0.22913
vt 0.27851 0.23795
vt 0.29468 0.2208
vt 0.27851 0.2208
vt 0.27851 0.20549
vt 0.29468 0.20549
vt 0.29468 0.19716
vt 0.27851 0.19716
vt 0.29468 0.21432
vt 0.27851 0.21432
vt 0.27496 0.49671
vt 0.25843 0.49671
vt 0.25843 0.51897
vt 0.27496 0.51897
vt 0.10871 0.48996
vt 0.09164 0.48996
vt 0.09164 0.51897
vt 0.10871 0.51897
vt 0.09088 0.49071
vt 0.09088 0.4993
vt 0.10947 0.51822
vt 0.10947 0.50892
vt 0.29622 0.26225
vt 0.29622 0.25396
vt 0.25918 0.42813
vt 0.27572 0.42813
vt 0.27572 0.40436
vt 0.25918 0.40436
vt 0.25843 0.40512
vt 0.25843 0.42738
vt 0.27648 0.42738
vt 0.27648 0.40512
vt 0.11722 0.28233
vt 0.11722 0.26007
vt 0.09917 0.26007
vt 0.09917 0.28233
vt 0.11646 0.25932
vt 0.09993 0.25932
vt 0.09993 0.28309
vt 0.11646 0.28309
vt 0.09088 0.50892
vt 0.09088 0.51822
vt 0.10947 0.4993
vt 0.10947 0.49071
vt 0.27851 0.24519
vt 0.27851 0.25396
vt 0.29622 0.24519
vt 0.27851 0.26225
vt 0.29547 0.24444
vt 0.27927 0.24444
vt 0.27927 0.263
vt 0.29547 0.263
vt 0.0919 0.41913
vt 0.1081 0.41913
vt 0.1081 0.40056
vt 0.0919 0.40056
vt 0.09114 0.41009
vt 0.09114 0.41838
vt 0.10885 0.41009
vt 0.10885 0.40132
vt 0.09114 0.40132
vt 0.10885 0.41838
vt 0.0919 0.44938
vt 0.10843 0.44938
vt 0.10843 0.42561
vt 0.0919 0.42561
vt 0.09114 0.42637
vt 0.09114 0.44862
vt 0.10919 0.44862
vt 0.10919 0.42637
vt 0.76638 0.53156
vt 0.76638 0.71326
vt 0.79093 0.71326
vt 0.79093 0.53156
vt 0.84524 0.7876
vt 0.94607 0.7876
vt 0.95074 0.77032
vt 0.84049 0.77032
vt 0.93408 0.02331
vt 0.93408 0.14728
vt 0.94769 0.13216
vt 0.94769 0.03843
vt 0.93943 0.71326
vt 0.93943 0.53156
vt 0.91489 0.53156
vt 0.91489 0.71326
vt 0.81316 0.99804
vt 0.81316 0.81945
vt 0.79782 0.81528
vt 0.79782 0.99805
vt 0.97807 0.81953
vt 0.97807 0.99804
vt 0.99348 0.99805
vt 0.99348 0.81531
vt 0.84802 0.99805
vt 0.94312 0.99805
vt 0.94312 0.82339
vt 0.84802 0.82339
vt 0.75239 0.14728
vt 0.75238 0.02331
vt 0.73878 0.00971
vt 0.73878 0.16088
vt 0.91897 0.00971
vt 0.91897 0.16088
vt 0.79093 0.7378
vt 0.91489 0.7378
vt 0.91489 0.50702
vt 0.79093 0.50702
vt 0.95833 0.79187
vt 0.96662 0.77587
vt 0.96758 0.79852
vt 0.98072 0.78607
vt 0.94365 0.80009
vt 0.9549 0.80215
vt 0.98945 0.80051
vt 0.97391 0.80777
vt 0.96213 0.80389
vt 0.9546 0.823
vt 0.95406 0.81205
vt 0.94288 0.8119
vt 0.96621 0.82193
vt 0.96389 0.81104
vt 0.82468 0.77586
vt 0.83295 0.79187
vt 0.8106 0.78601
vt 0.82368 0.7985
vt 0.81733 0.80773
vt 0.80184 0.80045
vt 0.83634 0.80215
vt 0.84759 0.80009
vt 0.82911 0.80388
vt 0.82499 0.82189
vt 0.82733 0.81102
vt 0.84829 0.8119
vt 0.83714 0.81204
vt 0.83657 0.82299
vt 0.93097 0.0104
vt 0.94181 0.01558
vt 0.947 0.14416
vt 0.94181 0.15501
vt 0.93097 0.16019
vt 0.96621 0.99804
vt 0.9546 0.99805
vt 0.82499 0.99804
vt 0.83657 0.99804
vt 0.947 0.02643
vt 0.23784 0.00721
vt 0.22305 0.0079
vt 0.22305 0.15622
vt 0.23784 0.1569
vt 0.21231 0.01303
vt 0.21231 0.15109
vt 0.20718 0.02377
vt 0.20718 0.14035
vt 0.20566 0.0435
vt 0.20535 0.11876
vt 0.01322 0.01223
vt 0.01033 0.01512
vt 0.01153 0.01631
vt 0.01441 0.01343
vt 0.01322 0.01631
vt 0.01441 0.01512
vt 0.0024 0.02469
vt 0.0024 0.023
vt 0.00195 0.023
vt 0.00195 0.02469
vt 0.0024 0.02638
vt 0.00195 0.02638
vt 0.0024 0.02807
vt 0.00195 0.02807
vt 0.0024 0.02976
vt 0.00195 0.02976
vt 0.0024 0.01793
vt 0.0024 0.01624
vt 0.00195 0.01624
vt 0.00195 0.01793
vt 0.0024 0.01962
vt 0.00195 0.01962
vt 0.0024 0.02131
vt 0.00195 0.02131
vt 0.01153 0.01223
vt 0.01033 0.01343
vt 0.00315 0.00975
vt 0.00484 0.00975
vt 0.00195 0.00687
vt 0.00195 0.00856
vt 0.00315 0.00567
vt 0.00603 0.00856
vt 0.00484 0.00567
vt 0.00603 0.00687
usemtl mat0
f 359/359/215 360/360/216 361/361/217
f 359/359/215 361/361/217 362/362/218
f 361/361/217 360/360/216 363/363/219
f 361/361/217 363/363/219 364/364/220
f 365/365/221 366/366/222 364/364/220
f 365/365/221 364/364/220 363/363/219
f 367/367/223 368/368/224 360/360/216
f 367/367/223 360/360/216 359/359/215
f 369/369/225 370/370/226 362/362/218
f 369/369/225 362/362/218 361/361/217
f 365/365/221 363/363/219 371/371/227
f 365/365/221 371/371/227 372/372/228
f 364/364/220 366/366/222 373/373/229
f 364/364/220 373/373/229 374/374/230
f 375/375/231 365/365/221 372/372/228
f 375/375/231 372/372/228 376/376/223
f 368/368/224 371/371/227 363/363/219
f 368/368/224 363/363/219 360/360/216
f 377/377/226 373/373/229 366/366/222
f 377/377/226 366/366/222 378/378/232
f 361/361/217 364/364/220 374/374/230
f 361/361/217 374/374/230 369/369/225
f 375/375/231 378/378/232 366/366/222
f 375/375/231 366/366/222 365/365/221
f 379/379/233 380/380/233 381/381/234
f 379/379/233 381/381/234 382/382/234
f 383/383/234 384/384/234 385/385/235
f 383/383/234 385/385/235 386/386/235
f 384/384/234 383/383/234 387/387/234
f 384/384/234 387/387/234 388/388/234
f 389/389/234 390/390/234 391/391/235
f 389/389/234 391/391/235 392/392/235
f 390/390/234 389/389/234 393/393/234
f 390/390/234 393/393/234 394/394/234
f 395/395/234 396/396/234 397/397/235
f 395/395/234 397/397/235 398/398/235
f 396/396/234 395/395/234 399/399/234
f 396/396/234 399/399/234 400/400/234
f 401/401/236 402/402/237 403/403/237
f 401/401/236 403/403/237 404/404/236
f 405/405/238 406/406/239 407/407/239
f 405/405/238 407/407/239 408/408/238
f 408/408/238 409/409/237 410/410/237
f 408/408/238 410/410/237 405/405/238
f 411/411/238 412/412/239 413/413/239
f 411/411/238 413/413/239 414/414/238
f 414/414/238 415/415/237 416/416/237
f 414/414/238 416/416/237 411/411/238
f 417/417/238 418/418/239 419/419/239
f 417/417/238 419/419/239 420/420/238
f 420/420/238 421/421/237 422/422/237
f 420/420/238 422/422/237 417/417/238
f 382/382/234 381/381/234 403/403/237
f 382/382/234 403/403/237 402/402/237
f 388/388/234 387/387/234 410/410/237
f 388/388/234 410/410/237 409/409/237
f 394/394/234 393/393/234 416/416/237
f 394/394/234 416/416/237 415/415/237
f 400/400/234 399/399/234 422/422/237
f 400/400/234 422/422/237 421/421/237
f 423/423/240 424/424/241 425/425/242
f 423/423/240 425/425/242 426/426/243
f 427/427/244 428/428/245 429/429/246
f 427/427/244 429/429/246 430/430/247
f 431/431/248 432/432/249 433/433/250
f 431/431/248 433/433/250 434/434/251
f 435/435/252 436/436/253 437/437/254
f 435/435/252 437/437/254 438/438/255
f 439/439/256 440/440/257 441/441/258
f 439/439/256 441/441/258 442/442/259
f 441/441/258 443/443/260 444/444/261
f 441/441/258 444/444/261 442/442/259
f 424/424/241 423/423/240 438/438/255
f 424/424/241 438/438/255 437/437/254
f 445/445/262 446/446/263 447/447/264
f 445/445/262 447/447/264 448/448/265
f 449/449/266 450/450/267 445/445/262
f 449/449/266 445/445/262 448/448/265
f 451/451/268 452/452/269 453/453/270
f 451/451/268 453/453/270 454/454/271
f 455/455/272 456/456/273 457/457/274
f 455/455/272 457/457/274 458/458/275
f 459/459/276 460/460/277 461/461/278
f 459/459/276 461/461/278 462/462/279
f 463/463/280 464/464/281 465/465/282
f 463/463/280 465/465/282 466/466/283
f 467/467/284 468/468/285 469/469/286
f 467/467/284 469/469/286 470/470/287
f 471/471/288 472/472/289 473/473/290
f 471/471/288 473/473/290 474/474/291
f 473/473/290 472/472/289 475/475/292
f 473/473/290 475/475/292 476/476/293
f 458/458/275 469/469/286 468/468/285
f 458/458/275 468/468/285 455/455/272
f 477/477/294 478/478/295 479/479/296
f 477/477/294 479/479/296 480/480/297
f 481/481/298 478/478/295 477/477/294
f 481/481/298 477/477/294 482/482/299
f 483/483/300 484/484/301 485/485/302
f 483/483/300 485/485/302 486/486/303
f 436/436/253 435/435/252 487/487/304
f 436/436/253 487/487/304 488/488/305
f 426/426/243 425/425/242 489/489/306
f 426/426/243 489/489/306 490/490/307
f 437/437/254 436/436/253 491/491/308
f 437/437/254 491/491/308 492/492/309
f 423/423/240 426/426/243 493/493/273
f 423/423/240 493/493/273 494/494/310
f 442/442/259 444/444/261 495/495/311
f 442/442/259 495/495/311 496/496/312
f 427/427/244 430/430/247 497/497/313
f 427/427/244 497/497/313 498/498/314
f 429/429/246 428/428/245 499/499/315
f 429/429/246 499/499/315 500/500/316
f 430/430/247 429/429/246 501/501/317
f 430/430/247 501/501/317 502/502/318
f 428/428/245 427/427/244 503/503/319
f 428/428/245 503/503/319 504/504/320
f 432/432/249 431/431/248 505/505/321
f 432/432/249 505/505/321 506/506/283
f 434/434/251 433/433/250 507/507/322
f 434/434/251 507/507/322 508/508/323
f 433/433/250 432/432/249 509/509/324
f 433/433/250 509/509/324 510/510/325
f 431/431/248 434/434/251 511/511/281
f 431/431/248 511/511/281 512/512/280
f 425/425/242 424/424/241 513/513/326
f 425/425/242 513/513/326 514/514/327
f 424/424/241 437/437/254 492/492/309
f 424/424/241 492/492/309 513/513/326
f 435/435/252 438/438/255 515/515/328
f 435/435/252 515/515/328 516/516/329
f 438/438/255 423/423/240 494/494/310
f 438/438/255 494/494/310 515/515/328
f 441/441/258 440/440/257 517/517/330
f 441/441/258 517/517/330 518/518/331
f 439/439/256 442/442/259 496/496/312
f 439/439/256 496/496/312 519/519/332
f 443/443/260 441/441/258 518/518/331
f 443/443/260 518/518/331 520/520/333
f 440/440/257 439/439/256 521/521/334
f 440/440/257 521/521/334 522/522/335
f 444/444/261 443/443/260 523/523/336
f 444/444/261 523/523/336 524/524/337
f 447/447/264 446/446/263 525/525/297
f 447/447/264 525/525/297 526/526/338
f 450/450/267 449/449/266 527/527/298
f 450/450/267 527/527/298 528/528/339
f 446/446/263 445/445/262 529/529/340
f 446/446/263 529/529/340 530/530/341
f 449/449/266 448/448/265 531/531/342
f 449/449/266 531/531/342 532/532/298
f 445/445/262 450/450/267 533/533/343
f 445/445/262 533/533/343 529/529/340
f 448/448/265 447/447/264 534/534/344
f 448/448/265 534/534/344 531/531/342
f 451/451/268 454/454/271 535/535/345
f 451/451/268 535/535/345 536/536/346
f 453/453/270 452/452/269 537/537/347
f 453/453/270 537/537/347 538/538/348
f 454/454/271 453/453/270 539/539/349
f 454/454/271 539/539/349 540/540/350
f 452/452/269 451/451/268 541/541/351
f 452/452/269 541/541/351 542/542/352
f 543/543/353 544/544/354 545/545/355
f 543/543/353 545/545/355 546/546/356
f 547/547/357 548/548/358 549/549/359
f 547/547/357 549/549/359 550/550/360
f 551/551/361 552/552/362 553/553/363
f 551/551/361 553/553/363 554/554/364
f 555/555/365 556/556/366 557/557/367
f 555/555/365 557/557/367 558/558/368
f 559/559/369 560/560/370 561/561/371
f 559/559/369 561/561/371 562/562/372
f 563/563/373 564/564/374 565/565/375
f 563/563/373 565/565/375 566/566/376
f 567/567/377 568/568/378 569/569/379
f 567/567/377 569/569/379 570/570/380
f 571/571/381 572/572/382 573/573/383
f 571/571/381 573/573/383 574/574/384
f 572/572/382 551/551/361 575/575/385
f 572/572/382 575/575/385 573/573/383
f 552/552/362 571/571/381 574/574/384
f 552/552/362 574/574/384 576/576/386
f 577/577/387 578/578/388 558/558/368
f 577/577/387 558/558/368 545/545/355
f 579/579/389 580/580/390 546/546/356
f 579/579/389 546/546/356 557/557/367
f 558/558/368 557/557/367 546/546/356
f 558/558/368 546/546/356 545/545/355
f 581/581/391 582/582/392 549/549/359
f 581/581/391 549/549/359 548/548/358
f 583/583/393 584/584/394 582/582/392
f 583/583/393 582/582/392 581/581/391
f 548/548/358 585/585/395 586/586/396
f 548/548/358 586/586/396 581/581/391
f 563/563/373 566/566/376 587/587/397
f 563/563/373 587/587/397 588/588/398
f 581/581/391 586/586/396 589/589/399
f 581/581/391 589/589/399 583/583/393
f 569/569/379 590/590/400 591/591/401
f 569/569/379 591/591/401 592/592/402
f 590/590/400 593/593/403 594/594/404
f 590/590/400 594/594/404 591/591/401
f 592/592/402 591/591/401 586/586/396
f 592/592/402 586/586/396 585/585/395
f 591/591/401 594/594/404 589/589/399
f 591/591/401 589/589/399 586/586/396
f 588/588/398 587/587/397 584/584/394
f 588/588/398 584/584/394 583/583/393
f 547/547/357 550/550/360 595/595/405
f 547/547/357 595/595/405 596/596/406
f 563/563/373 588/588/398 594/594/404
f 563/563/373 594/594/404 593/593/403
f 588/588/398 583/583/393 589/589/399
f 588/588/398 589/589/399 594/594/404
f 596/596/406 595/595/405 597/597/407
f 596/596/406 597/597/407 598/598/408
f 599/599/409 600/600/410 561/561/371
f 599/599/409 561/561/371 560/560/370
f 547/547/357 596/596/406 601/601/411
f 547/547/357 601/601/411 602/602/412
f 596/596/406 598/598/408 603/603/413
f 596/596/406 603/603/413 601/601/411
f 598/598/408 597/597/407 600/600/410
f 598/598/408 600/600/410 599/599/409
f 560/560/370 604/604/414 605/605/415
f 560/560/370 605/605/415 599/599/409
f 599/599/409 605/605/415 603/603/413
f 599/599/409 603/603/413 598/598/408
f 570/570/380 606/606/416 607/607/417
f 570/570/380 607/607/417 608/608/418
f 606/606/416 602/602/412 601/601/411
f 606/606/416 601/601/411 607/607/417
f 608/608/418 607/607/417 605/605/415
f 608/608/418 605/605/415 604/604/414
f 607/607/417 601/601/411 603/603/413
f 607/607/417 603/603/413 605/605/415
f 609/609/419 575/575/385 551/551/361
f 609/609/419 551/551/361 610/610/394
f 611/611/420 553/553/363 552/552/362
f 611/611/420 552/552/362 612/612/407
f 613/613/421 612/612/407 552/552/362
f 613/613/421 552/552/362 576/576/386
f 548/548/358 547/547/357 602/602/412
f 548/548/358 602/602/412 585/585/395
f 585/585/395 602/602/412 606/606/416
f 585/585/395 606/606/416 592/592/402
f 592/592/402 606/606/416 570/570/380
f 592/592/402 570/570/380 569/569/379
f 564/564/374 563/563/373 593/593/403
f 564/564/374 593/593/403 614/614/422
f 614/614/422 593/593/403 590/590/400
f 614/614/422 590/590/400 615/615/423
f 615/615/423 590/590/400 569/569/379
f 615/615/423 569/569/379 568/568/378
f 560/560/370 559/559/369 616/616/424
f 560/560/370 616/616/424 604/604/414
f 604/604/414 616/616/424 617/617/425
f 604/604/414 617/617/425 608/608/418
f 608/608/418 617/617/425 567/567/377
f 608/608/418 567/567/377 570/570/380
f 618/618/426 610/610/394 551/551/361
f 618/618/426 551/551/361 554/554/364
f 619/619/427 620/620/428 621/621/429
f 619/619/427 621/621/429 622/622/430
f 623/623/431 624/624/424 621/621/429
f 623/623/431 621/621/429 620/620/428
f 625/625/432 626/626/433 624/624/424
f 625/625/432 624/624/424 623/623/431
f 627/627/378 628/628/434 626/626/433
f 627/627/378 626/626/433 625/625/432
f 629/629/435 630/630/436 631/631/437
f 629/629/435 631/631/437 632/632/438
f 633/633/439 634/634/440 632/632/438
f 633/633/439 632/632/438 631/631/437
f 635/635/441 636/636/442 637/637/443
f 635/635/441 637/637/443 638/638/444
f 639/639/445 635/635/441 638/638/444
f 639/639/445 638/638/444 640/640/446
f 641/641/447 639/639/445 640/640/446
f 641/641/447 640/640/446 642/642/448
f 643/643/449 641/641/447 642/642/448
f 643/643/449 642/642/448 644/644/450
f 645/645/451 646/646/452 647/647/453
f 645/645/451 647/647/453 648/648/454
f 649/649/455 645/645/451 648/648/454
f 649/649/455 648/648/454 650/650/456
f 651/651/457 649/649/455 650/650/456
f 651/651/457 650/650/456 652/652/458
f 636/636/442 651/651/457 652/652/458
f 636/636/442 652/652/458 637/637/443
f 653/653/452 654/654/459 630/630/436
f 653/653/452 630/630/436 629/629/435
f 655/655/460 656/656/458 657/657/461
f 655/655/460 657/657/461 658/658/462
f 659/659/463 657/657/461 656/656/458
f 659/659/463 656/656/458 660/660/456
f 661/661/464 659/659/463 660/660/456
f 661/661/464 660/660/456 662/662/465
# Vertices: 304, normals: 251, texture coordinates: 304, faces: 300

