# Blender 4.2.1 LTS
# www.blender.org
mtllib main.mtl
o Wall#1_Walls_0
v -20.241161 6.591267 -16.832827
v -20.241165 10.638084 -21.029612
v -20.241159 7.567787 -16.571165
v -20.241159 8.544306 -14.879753
v -20.241159 8.282649 -15.856290
v -20.241161 10.638084 -16.832829
v -20.241158 8.544306 -10.860726
v -20.241158 10.638084 -8.907652
v -20.241158 8.282649 -9.884190
v -20.241158 6.591267 -8.907652
v -20.241158 7.567787 -9.169315
v -20.241154 10.638084 -1.687419
v -21.928392 6.591266 -16.832825
v -21.928392 7.567786 -16.571163
v -21.928396 10.638084 -21.029612
v -21.928391 8.544306 -14.879752
v -21.928392 10.638084 -16.832827
v -21.928391 8.282648 -15.856289
v -21.928391 8.544306 -10.860725
v -21.928391 8.282648 -9.884190
v -21.928391 10.638084 -8.907652
v -21.928391 6.591267 -8.907652
v -21.928387 10.624533 -0.000193
v -21.928391 7.567787 -9.169314
v -0.077682 8.692616 -18.921936
v -0.077682 4.328375 -18.921936
v -0.077686 1.687492 -21.029627
v -0.077683 10.638086 -21.029627
v -0.077681 4.328375 -15.847472
v -0.077675 1.687492 -0.000195
v -0.077686 1.687492 -21.029627
v -0.077681 8.692616 -15.847472
v -0.077675 10.638086 -0.000195
v -16.179113 8.692614 -0.000194
v -21.928387 10.624533 -0.000193
v -21.928387 1.687490 -0.000193
v -16.179113 4.328374 -0.000194
v -0.077675 1.687492 -0.000195
v -13.116249 4.328374 -0.000193
v -13.116249 8.692615 -0.000193
v -0.077675 10.638086 -0.000195
v -1.764914 8.692616 -18.921934
v -1.764915 10.638086 -21.029625
v -1.764916 1.687492 -21.029625
v -1.764914 4.328375 -18.921934
v -1.764912 4.328375 -15.847471
v -1.764916 1.687492 -21.029625
v -1.764908 1.687492 -1.687428
v -1.764912 8.692616 -15.847471
v -1.764908 10.638086 -1.687428
v -16.179113 8.692615 -1.687422
v -16.179113 4.328373 -1.687422
v -20.241154 1.687490 -1.687419
v -20.241154 10.638084 -1.687419
v -13.116249 4.328374 -1.687423
v -1.764908 1.687492 -1.687428
v -13.116249 8.692616 -1.687423
v -1.764908 10.638086 -1.687428
v -0.077682 8.692616 -18.921936
v -0.077681 8.692616 -15.847472
v -1.764912 8.692616 -15.847471
v -1.764914 8.692616 -18.921934
v -0.077682 4.328375 -18.921936
v -0.077682 8.692616 -18.921936
v -1.764914 8.692616 -18.921934
v -1.764914 4.328375 -18.921934
v -0.077681 4.328375 -15.847472
v -0.077682 4.328375 -18.921936
v -1.764914 4.328375 -18.921934
v -1.764912 4.328375 -15.847471
v -0.077681 8.692616 -15.847472
v -0.077681 4.328375 -15.847472
v -1.764912 4.328375 -15.847471
v -1.764912 8.692616 -15.847471
v -0.077683 10.638086 -21.029627
v -0.077686 1.687492 -21.029627
v -1.764916 1.687492 -21.029625
v -1.764915 10.638086 -21.029625
v -0.077686 1.687492 -21.029627
v -0.077675 1.687492 -0.000195
v -1.764908 1.687492 -1.687428
v -1.764916 1.687492 -21.029625
v -0.077675 10.638086 -0.000195
v -0.077683 10.638086 -21.029627
v -1.764915 10.638086 -21.029625
v -1.764908 10.638086 -1.687428
v -16.179113 8.692614 -0.000194
v -16.179113 4.328374 -0.000194
v -16.179113 4.328373 -1.687422
v -16.179113 8.692615 -1.687422
v -13.116249 8.692615 -0.000193
v -16.179113 8.692614 -0.000194
v -16.179113 8.692615 -1.687422
v -13.116249 8.692616 -1.687423
v -16.179113 4.328374 -0.000194
v -13.116249 4.328374 -0.000193
v -13.116249 4.328374 -1.687423
v -16.179113 4.328373 -1.687422
v -13.116249 4.328374 -0.000193
v -13.116249 8.692615 -0.000193
v -13.116249 8.692616 -1.687423
v -13.116249 4.328374 -1.687423
v -21.928387 1.687490 -0.000193
v -20.241154 1.687490 -1.687419
v -21.928387 10.624533 -0.000193
v -20.241154 10.638084 -1.687419
v -20.241161 1.687490 -16.832827
v -20.241165 1.687490 -21.029612
v -20.241154 1.687490 -1.687419
v -20.241158 1.687490 -8.907652
v -21.928396 1.687490 -21.029610
v -21.928392 1.687490 -16.832825
v -21.928391 1.687490 -8.907651
v -21.928387 1.687490 -0.000193
v -20.241158 10.638084 -8.907652
v -20.241161 10.638084 -16.832829
v -21.928392 10.638084 -16.832827
v -21.928391 10.638084 -8.907652
v -20.241165 1.687490 -21.029612
v -20.241161 1.687490 -16.832827
v -21.928392 1.687490 -16.832825
v -21.928396 1.687490 -21.029610
v -20.241161 6.591267 -16.832827
v -20.241159 7.567787 -16.571165
v -21.928392 7.567786 -16.571163
v -21.928392 6.591266 -16.832825
v -20.241159 8.282649 -15.856290
v -21.928391 8.282648 -15.856289
v -20.241159 8.544306 -14.879753
v -21.928391 8.544306 -14.879752
v -20.241158 7.567787 -9.169315
v -20.241158 6.591267 -8.907652
v -21.928391 6.591267 -8.907652
v -21.928391 7.567787 -9.169314
v -20.241158 8.282649 -9.884190
v -21.928391 8.282648 -9.884190
v -20.241158 8.544306 -10.860726
v -21.928391 8.544306 -10.860725
v -20.241161 1.687490 -16.832827
v -21.928392 1.687490 -16.832825
v -20.241158 1.687490 -8.907652
v -21.928391 1.687490 -8.907651
v -20.241158 1.687490 -8.907652
v -21.928391 1.687490 -8.907651
v -20.241165 10.638084 -21.029612
v -20.241165 1.687490 -21.029612
v -21.928396 1.687490 -21.029610
v -21.928396 10.638084 -21.029612
v -20.241165 10.638084 -21.029612
v -21.928396 10.638084 -21.029612
vn 1.0000 -0.0000 -0.0000
vn -1.0000 -0.0000 -0.0000
vn -0.0000 -0.0000 1.0000
vn -0.0000 -0.0000 -1.0000
vn -0.0000 -1.0000 -0.0000
vn -0.0000 1.0000 -0.0000
vn -0.0002 1.0000 0.0020
vn -0.0020 1.0000 0.0024
vn -0.0020 1.0000 0.0025
vn -0.0018 1.0000 0.0004
vn -0.0017 1.0000 0.0004
vn -0.0000 -0.1305 0.9914
vn -0.0000 -0.5000 0.8660
vn -0.0000 -0.8660 0.5000
vn -0.0000 -0.9914 0.1305
vn -0.0000 -0.5000 -0.8660
vn -0.0000 -0.1305 -0.9914
vn -0.0000 -0.8660 -0.5000
vn -0.0000 -0.9914 -0.1305
vt 0.000000 1.000000
vt 0.500000 1.000000
vt 0.500000 0.250000
vt 0.032127 1.000000
vt 0.051699 1.000000
vt 0.277141 1.000000
vt 0.139033 1.000000
s 0
usemtl Walls
f 1/1/1 2/1/1 3/1/1
f 4/1/1 5/1/1 6/1/1
f 7/1/1 8/1/1 9/1/1
f 10/1/1 11/1/1 12/1/1
f 13/1/2 14/1/2 15/1/2
f 16/1/2 17/1/2 18/1/2
f 19/1/2 20/1/2 21/1/2
f 22/1/2 23/1/2 24/1/2
f 25/1/1 26/1/1 27/1/1
f 25/1/1 27/1/1 28/1/1
f 29/1/1 30/2/1 31/3/1
f 29/1/1 31/3/1 26/1/1
f 32/1/1 33/1/1 30/2/1
f 32/1/1 30/2/1 29/1/1
f 32/1/1 25/1/1 28/1/1
f 32/1/1 28/1/1 33/1/1
f 34/4/3 35/1/3 36/1/3
f 34/4/3 36/1/3 37/5/3
f 37/5/3 36/1/3 38/2/3
f 37/5/3 38/2/3 39/6/3
f 40/7/3 41/1/3 35/1/3
f 40/7/3 35/1/3 34/4/3
f 39/6/3 38/2/3 41/1/3
f 39/6/3 41/1/3 40/7/3
f 42/1/2 43/1/2 44/1/2
f 42/1/2 44/1/2 45/1/2
f 46/1/2 45/1/2 47/3/2
f 46/1/2 47/3/2 48/2/2
f 49/1/2 46/1/2 48/2/2
f 49/1/2 48/2/2 50/1/2
f 49/1/2 50/1/2 43/1/2
f 49/1/2 43/1/2 42/1/2
f 51/4/4 52/5/4 53/1/4
f 51/4/4 53/1/4 54/1/4
f 52/5/4 55/6/4 56/2/4
f 52/5/4 56/2/4 53/1/4
f 57/7/4 51/4/4 54/1/4
f 57/7/4 54/1/4 58/1/4
f 55/6/4 57/7/4 58/1/4
f 55/6/4 58/1/4 56/2/4
f 59/1/5 60/1/5 61/1/5
f 59/1/5 61/1/5 62/1/5
f 63/1/3 64/1/3 65/1/3
f 63/1/3 65/1/3 66/1/3
f 67/1/6 68/1/6 69/1/6
f 67/1/6 69/1/6 70/1/6
f 71/1/4 72/1/4 73/1/4
f 71/1/4 73/1/4 74/1/4
f 75/1/4 76/1/4 77/1/4
f 75/1/4 77/1/4 78/1/4
f 79/3/5 80/2/5 81/2/5
f 79/3/5 81/2/5 82/3/5
s 1
f 83/1/7 84/1/6 85/1/6
f 83/1/7 85/1/6 86/1/7
s 0
f 87/4/1 88/5/1 89/5/1
f 87/4/1 89/5/1 90/4/1
f 91/7/5 92/4/5 93/4/5
f 91/7/5 93/4/5 94/7/5
f 95/5/6 96/6/6 97/6/6
f 95/5/6 97/6/6 98/5/6
f 99/6/2 100/7/2 101/7/2
f 99/6/2 101/7/2 102/6/2
f 80/2/5 103/1/5 104/1/5
f 80/2/5 104/1/5 81/2/5
s 1
f 105/1/8 83/1/7 86/1/7
f 105/1/8 86/1/7 106/1/9
s 0
f 2/1/1 1/1/1 107/1/1
f 2/1/1 107/1/1 108/1/1
f 12/1/1 109/1/1 110/1/1
f 12/1/1 110/1/1 10/1/1
f 9/1/1 8/1/1 12/1/1
f 9/1/1 12/1/1 11/1/1
f 3/1/1 2/1/1 6/1/1
f 3/1/1 6/1/1 5/1/1
f 8/1/1 7/1/1 4/1/1
f 8/1/1 4/1/1 6/1/1
f 15/1/2 111/1/2 112/1/2
f 15/1/2 112/1/2 13/1/2
f 23/1/2 22/1/2 113/1/2
f 23/1/2 113/1/2 114/1/2
f 20/1/2 24/1/2 23/1/2
f 20/1/2 23/1/2 21/1/2
f 14/1/2 18/1/2 17/1/2
f 14/1/2 17/1/2 15/1/2
f 21/1/2 17/1/2 16/1/2
f 21/1/2 16/1/2 19/1/2
s 1
f 115/1/10 116/1/6 117/1/6
f 115/1/10 117/1/6 118/1/11
s 0
f 119/1/5 120/1/5 121/1/5
f 119/1/5 121/1/5 122/1/5
s 1
f 123/1/12 124/1/13 125/1/13
f 123/1/12 125/1/13 126/1/12
f 124/1/13 127/1/14 128/1/14
f 124/1/13 128/1/14 125/1/13
f 127/1/14 129/1/15 130/1/15
f 127/1/14 130/1/15 128/1/14
f 131/1/16 132/1/17 133/1/17
f 131/1/16 133/1/17 134/1/16
f 135/1/18 131/1/16 134/1/16
f 135/1/18 134/1/16 136/1/18
f 137/1/19 135/1/18 136/1/18
f 137/1/19 136/1/18 138/1/19
f 139/1/3 123/1/12 126/1/12
f 139/1/3 126/1/12 140/1/3
f 129/1/15 137/1/19 138/1/19
f 129/1/15 138/1/19 130/1/15
f 132/1/17 141/1/4 142/1/4
f 132/1/17 142/1/4 133/1/17
s 0
f 143/1/5 104/1/5 103/1/5
f 143/1/5 103/1/5 144/1/5
s 1
f 106/1/9 115/1/10 118/1/11
f 106/1/9 118/1/11 105/1/8
s 0
f 145/1/4 146/1/4 147/1/4
f 145/1/4 147/1/4 148/1/4
f 116/1/6 149/1/6 150/1/6
f 116/1/6 150/1/6 117/1/6
o Floor_Floor_0
v -21.928387 1.687490 -0.000189
v -0.077676 1.687492 -0.000198
v -0.077684 1.687492 -21.029621
v -21.928394 1.687490 -21.029613
v -21.928387 0.000260 -0.000189
v -21.928394 0.000260 -21.029613
v -0.077684 0.000262 -21.029621
v -0.077676 0.000262 -0.000198
v -21.928394 1.687490 -21.029613
v -0.077684 1.687492 -21.029621
v -0.077684 0.000262 -21.029621
v -21.928394 0.000260 -21.029613
v -0.077676 1.687492 -0.000198
v -21.928387 1.687490 -0.000189
v -21.928387 0.000260 -0.000189
v -0.077676 0.000262 -0.000198
v -0.077684 1.687492 -21.029621
v -0.077676 1.687492 -0.000198
v -0.077676 0.000262 -0.000198
v -0.077684 0.000262 -21.029621
v -21.928387 1.687490 -0.000189
v -21.928394 1.687490 -21.029613
v -21.928394 0.000260 -21.029613
v -21.928387 0.000260 -0.000189
vn -0.0000 1.0000 -0.0000
vn -0.0000 -1.0000 -0.0000
vn -0.0000 -0.0000 -1.0000
vn -0.0000 -0.0000 1.0000
vn 1.0000 -0.0000 -0.0000
vn -1.0000 -0.0000 -0.0000
vt 0.573214 0.999023
vt 0.573214 0.491949
vt 0.085199 0.491949
vt 0.085198 0.999023
vt 0.070991 0.000977
vt 0.070991 0.488992
vt 0.578066 0.488992
vt 0.578066 0.000977
vt 0.854250 0.713822
vt 0.854250 0.206747
vt 0.815095 0.206747
vt 0.815095 0.713822
vt 0.702320 0.704486
vt 0.702320 0.197412
vt 0.663166 0.197412
vt 0.663166 0.704486
vt 0.905515 0.225807
vt 0.905515 0.713822
vt 0.944670 0.713822
vt 0.944670 0.225807
vt 0.778297 0.699819
vt 0.778297 0.211804
vt 0.739142 0.211804
vt 0.739142 0.699819
s 0
usemtl Floor
f 151/8/20 152/9/20 153/10/20
f 151/8/20 153/10/20 154/11/20
f 155/12/21 156/13/21 157/14/21
f 155/12/21 157/14/21 158/15/21
f 159/16/22 160/17/22 161/18/22
f 159/16/22 161/18/22 162/19/22
f 163/20/23 164/21/23 165/22/23
f 163/20/23 165/22/23 166/23/23
f 167/24/24 168/25/24 169/26/24
f 167/24/24 169/26/24 170/27/24
f 171/28/25 172/29/25 173/30/25
f 171/28/25 173/30/25 174/31/25
