# Blender 4.2.1 LTS
# www.blender.org
mtllib walli.mtl
o Wall#1_Walls_0
v -20.241161 6.591266 -16.832827
v -20.241165 10.638083 -21.029612
v -20.241159 7.567786 -16.571165
v -20.241159 8.544305 -14.879754
v -20.241159 8.282648 -15.856291
v -20.241161 10.638083 -16.832829
v -20.241158 8.544305 -10.860727
v -20.241158 10.638083 -8.907653
v -20.241158 8.282648 -9.884191
v -20.241158 6.591267 -8.907653
v -20.241158 7.567787 -9.169316
v -20.241154 10.638084 -1.687420
v -21.928392 6.591265 -16.832825
v -21.928392 7.567785 -16.571163
v -21.928396 10.638083 -21.029612
v -21.928391 8.544305 -14.879753
v -21.928392 10.638083 -16.832827
v -21.928391 8.282647 -15.856290
v -21.928391 8.544305 -10.860726
v -21.928391 8.282647 -9.884191
v -21.928391 10.638083 -8.907653
v -21.928391 6.591267 -8.907653
v -21.928387 10.624533 -0.000194
v -21.928391 7.567787 -9.169315
v -21.928387 1.687490 -0.000193
v -20.241154 1.687490 -1.687419
v -21.928387 10.624533 -0.000194
v -20.241154 10.638084 -1.687420
v -20.241161 1.687489 -16.832827
v -20.241165 1.687488 -21.029612
v -20.241154 1.687490 -1.687419
v -20.241158 1.687489 -8.907652
v -21.928396 1.687488 -21.029610
v -21.928392 1.687489 -16.832825
v -21.928391 1.687489 -8.907651
v -21.928387 1.687490 -0.000193
v -20.241158 10.638083 -8.907653
v -20.241161 10.638083 -16.832829
v -21.928392 10.638083 -16.832827
v -21.928391 10.638083 -8.907653
v -20.241165 1.687488 -21.029612
v -20.241161 1.687489 -16.832827
v -21.928392 1.687489 -16.832825
v -21.928396 1.687488 -21.029610
v -20.241161 6.591266 -16.832827
v -20.241159 7.567786 -16.571165
v -21.928392 7.567785 -16.571163
v -21.928392 6.591265 -16.832825
v -20.241159 8.282648 -15.856291
v -21.928391 8.282647 -15.856290
v -20.241159 8.544305 -14.879754
v -21.928391 8.544305 -14.879753
v -20.241158 7.567787 -9.169316
v -20.241158 6.591267 -8.907653
v -21.928391 6.591267 -8.907653
v -21.928391 7.567787 -9.169315
v -20.241158 8.282648 -9.884191
v -21.928391 8.282647 -9.884191
v -20.241158 8.544305 -10.860727
v -21.928391 8.544305 -10.860726
v -20.241161 1.687489 -16.832827
v -21.928392 1.687489 -16.832825
v -20.241158 1.687489 -8.907652
v -21.928391 1.687489 -8.907651
v -20.241158 1.687489 -8.907652
v -21.928391 1.687489 -8.907651
v -20.241165 10.638083 -21.029612
v -20.241165 1.687488 -21.029612
v -21.928396 1.687488 -21.029610
v -21.928396 10.638083 -21.029612
v -20.241165 10.638083 -21.029612
v -21.928396 10.638083 -21.029612
vn 1.0000 -0.0000 -0.0000
vn -1.0000 -0.0000 -0.0000
vn -0.0018 1.0000 0.0004
vn -0.0000 1.0000 -0.0000
vn -0.0013 1.0000 0.0003
vn -0.0000 -1.0000 -0.0000
vn -0.0000 -0.1305 0.9914
vn -0.0000 -0.5000 0.8660
vn -0.0000 -0.8660 0.5000
vn -0.0000 -0.9914 0.1305
vn -0.0000 -0.5000 -0.8660
vn -0.0000 -0.1305 -0.9914
vn -0.0000 -0.8660 -0.5000
vn -0.0000 -0.9914 -0.1305
vn -0.0000 -0.0000 1.0000
vn -0.0000 -0.0000 -1.0000
vn -0.0020 1.0000 0.0025
vn -0.0020 1.0000 0.0024
vt 0.000000 1.000000
s 0
usemtl Walls
f 1/1/1 2/1/1 3/1/1
f 4/1/1 5/1/1 6/1/1
f 7/1/1 8/1/1 9/1/1
f 10/1/1 11/1/1 12/1/1
f 13/1/2 14/1/2 15/1/2
f 16/1/2 17/1/2 18/1/2
f 19/1/2 20/1/2 21/1/2
f 22/1/2 23/1/2 24/1/2
f 2/1/1 1/1/1 29/1/1
f 2/1/1 29/1/1 30/1/1
f 12/1/1 31/1/1 32/1/1
f 12/1/1 32/1/1 10/1/1
f 9/1/1 8/1/1 12/1/1
f 9/1/1 12/1/1 11/1/1
f 3/1/1 2/1/1 6/1/1
f 3/1/1 6/1/1 5/1/1
f 8/1/1 7/1/1 4/1/1
f 8/1/1 4/1/1 6/1/1
f 15/1/2 33/1/2 34/1/2
f 15/1/2 34/1/2 13/1/2
f 23/1/2 22/1/2 35/1/2
f 23/1/2 35/1/2 36/1/2
f 20/1/2 24/1/2 23/1/2
f 20/1/2 23/1/2 21/1/2
f 14/1/2 18/1/2 17/1/2
f 14/1/2 17/1/2 15/1/2
f 21/1/2 17/1/2 16/1/2
f 21/1/2 16/1/2 19/1/2
s 1
f 37/1/3 38/1/4 39/1/4
f 37/1/3 39/1/4 40/1/5
s 0
f 41/1/6 42/1/6 43/1/6
f 41/1/6 43/1/6 44/1/6
s 1
f 45/1/7 46/1/8 47/1/8
f 45/1/7 47/1/8 48/1/7
f 46/1/8 49/1/9 50/1/9
f 46/1/8 50/1/9 47/1/8
f 49/1/9 51/1/10 52/1/10
f 49/1/9 52/1/10 50/1/9
f 53/1/11 54/1/12 55/1/12
f 53/1/11 55/1/12 56/1/11
f 57/1/13 53/1/11 56/1/11
f 57/1/13 56/1/11 58/1/13
f 59/1/14 57/1/13 58/1/13
f 59/1/14 58/1/13 60/1/14
f 61/1/15 45/1/7 48/1/7
f 61/1/15 48/1/7 62/1/15
f 51/1/10 59/1/14 60/1/14
f 51/1/10 60/1/14 52/1/10
f 54/1/12 63/1/16 64/1/16
f 54/1/12 64/1/16 55/1/12
s 0
f 65/1/6 26/1/6 25/1/6
f 65/1/6 25/1/6 66/1/6
s 1
f 28/1/17 37/1/3 40/1/5
f 28/1/17 40/1/5 27/1/18
s 0
f 67/1/16 68/1/16 69/1/16
f 67/1/16 69/1/16 70/1/16
f 38/1/4 71/1/4 72/1/4
f 38/1/4 72/1/4 39/1/4
