# File generated by ImageToStl.com - Free Image and 3D model conversion tools

mtllib washbag.mtl

o obj1
v -9.62304441 3.07383437 -1.68741422
v -10.20245907 3.40020924 -2.63392128
v -9.62304461 3.07383437 -3.31925472
v -9.56486114 3.16656665 -1.66651338
v -9.56486134 3.16656681 -3.34015559
v -10.17913759 3.55891044 -2.50333451
v -10.33094376 4.68065462 -2.84984931
v -10.33094367 4.68065462 -2.15682002
v -10.37854653 3.95333265 -2.50333457
v -10.20245904 3.40020924 -2.37274776
v -10.33577594 3.6639045 -2.05654316
v -10.52316503 4.03455168 -2.37274779
v -9.67112509 3.37485826 -3.59096768
v -10.22558454 4.47155521 -3.59096781
v -10.27884203 3.75612154 -2.93227484
v -9.59570298 3.22929631 -1.48847859
v -10.27884193 3.75612154 -2.07439422
v -9.67112483 3.37485826 -1.41570133
v -10.29815798 4.61859106 -1.48846334
v -10.22558428 4.47155521 -1.41570146
v -9.59570323 3.22929631 -3.51819039
v -10.32567209 4.68087982 -3.34021768
v -10.29815822 4.61859106 -3.51820597
v -10.48411729 3.95731706 -2.85751169
v -10.43991937 4.68957739 -3.31925499
v -10.39998109 4.61058136 -3.54702011
v -10.389848 3.77085626 -2.95012593
v -10.33577605 3.6639045 -2.95012592
v -10.24150674 3.4774437 -2.85751179
v -10.5231649 4.03455168 -2.63392134
v -10.24150666 3.47744386 -2.1491574
v -10.3898479 3.77085626 -2.05654318
v -10.48411736 3.95731722 -2.14915734
v -10.32567189 4.68087982 -1.66645165
v -10.39998084 4.61058136 -1.45964912
v -10.43991917 4.68957739 -1.68741426
v -7.99349601 3.0924793 -1.33591998
v -9.23057559 3.092479 -1.33591998
v -9.20172151 2.93150228 -1.3725676
v -8.02235007 2.93150256 -1.3725676
v -7.68341089 3.09247937 -3.34708513
v -7.68341069 3.09247937 -1.65958382
v -7.71256229 2.93150264 -1.69551821
v -7.71256248 2.93150264 -3.3111507
v -9.47315211 2.93150253 -1.74280032
v -9.47315229 2.93150253 -3.26386859
v -9.32532001 -0.62202113 -3.07938672
v -9.32531988 -0.62202113 -1.92728135
v -8.060316 2.93150287 -1.42078829
v -9.16375558 2.93150261 -1.42078829
v -9.01680785 -0.62202105 -1.60663355
v -8.20726286 -0.62202086 -1.60663355
v -9.42352816 3.09247895 -1.80516036
v -9.2925958 -0.5867011 -1.96839292
v -9.29259592 -0.5867011 -3.03827519
v -9.42352832 3.09247895 -3.20150859
v -7.75091973 2.93150294 -3.26386859
v -7.75091955 2.93150294 -1.74280032
v -7.89875098 -0.62202079 -1.92728135
v -7.89875112 -0.62202079 -3.07938672
v -9.54066099 3.09247893 -1.65958382
v -9.5406612 3.09247893 -3.34708513
v -9.51150955 2.93150221 -3.3111507
v -9.51150936 2.93150221 -1.69551821
v -7.80329702 2.93150261 -1.46715767
v -7.77423248 3.09247935 -1.43071888
v -8.10992957 3.09247927 -1.48317269
v -9.11414207 3.09247903 -1.48317269
v -9.47315211 2.93150253 -1.74280032
v -7.80054373 3.09247934 -3.20150859
v -7.80054356 3.09247934 -1.80516036
v -8.2399743 -0.58670085 -1.64777248
v -8.98409642 -0.58670103 -1.64777248
v -9.16375584 2.93150261 -3.58588062
v -8.06031626 2.93150287 -3.58588062
v -8.20726315 -0.62202086 -3.40003451
v -9.01680814 -0.62202105 -3.40003451
v -7.80329727 2.93150261 -3.53951124
v -8.02235034 2.93150256 -3.63410131
v -7.99349629 3.0924793 -3.67074897
v -7.77423273 3.09247935 -3.57595007
v -9.38253206 2.93150255 -3.49156548
v -9.42077482 2.93150223 -3.53951124
v -7.98911221 -0.62202081 -3.306119
v -7.84154002 2.93150292 -3.49156548
v -9.23495898 -0.62202111 -3.30611908
v -7.84153979 2.93150292 -1.51510343
v -7.98911202 -0.62202081 -1.70054898
v -9.54066099 3.09247893 -1.65958382
v -9.44983915 3.09247895 -1.43071888
v -9.33291103 3.09247898 -1.57748071
v -9.42352816 3.09247895 -1.80516036
v -9.23057587 3.092479 -3.67074897
v -9.4498394 3.09247895 -3.57595007
v -9.33291125 3.09247898 -3.42918823
v -9.11414231 3.09247903 -3.52349626
v -7.89116085 3.09247932 -3.42918823
v -8.10992982 3.09247927 -3.52349626
v -7.89116063 3.09247932 -1.57748071
v -9.54066088 3.09247877 -3.35585041
v -9.54066068 3.09247877 -1.65081853
v -10.43991923 4.68957739 -2.17169474
v -10.43991931 4.68957739 -2.83497459
v -9.2022386 -0.58670108 -3.26498815
v -8.9840967 -0.58670103 -3.35889559
v -8.02183262 -0.5867008 -3.26498799
v -7.93147521 -0.58670078 -3.03827515
v -8.0218324 -0.5867008 -1.74167992
v -7.93147508 -0.58670078 -1.96839288
v -9.47315211 2.93150253 -1.74280032
v -9.32531988 -0.62202113 -1.92728135
v -9.23495878 -0.62202111 -1.70054906
v -9.38253182 2.93150255 -1.51510343
v -9.20223842 -0.58670108 -1.74168008
v -9.2925958 -0.5867011 -1.96839292
v -9.20172178 2.93150228 -3.63410131
v -9.75940167 3.34354275 -3.6413634
v -9.66298263 3.15283009 -3.54701986
v -8.23997459 -0.58670085 -3.35889559
v -10.53910761 4.86372385 -2.29997959
v -10.53910766 4.86372385 -2.70668978
v -10.56262413 4.83055569 -2.70098183
v -10.56262408 4.83055569 -2.30568753
v -9.66298238 3.15283009 -1.45964911
v -10.37862859 4.74994283 -2.84984932
v -10.53910766 4.86372385 -2.70668978
v -10.53910761 4.86372385 -2.29997959
v -10.3786285 4.74994283 -2.15682002
v -9.7594014 3.3435429 -1.3653056
v -9.67467824 3.35755985 -1.33592001
v -10.24461073 4.48486143 -1.33592015
v -10.30356204 4.4198687 -1.36530573
v -10.33937535 4.67230209 -1.42815176
v -9.57991374 3.17011919 -3.5785173
v -9.57991348 3.17011919 -1.42815166
v -10.24461101 4.48486143 -3.67074913
v -10.30356231 4.4198687 -3.64136353
v -10.3393756 4.67230209 -3.57851756
v -10.37862865 4.74994283 -3.35585077
v -9.42077457 2.93150223 -1.46715767
v -9.51150936 2.93150221 -1.69551821
v -10.37862859 4.74994283 -2.84984932
v -10.3786285 4.74994283 -2.15682002
v -9.67467852 3.35755985 -3.670749
v -10.37862844 4.74994283 -1.65081857
v -10.24461101 4.48486143 -3.67074913
v -10.3393756 4.67230209 -3.57851756
v -10.37862865 4.74994283 -3.35585077
v -9.57991374 3.17011919 -3.5785173
v -9.67467852 3.35755985 -3.670749
v -9.54066088 3.09247877 -3.35585041
v -9.67467824 3.35755985 -1.33592001
v -9.57991348 3.17011919 -1.42815166
v -9.54066068 3.09247877 -1.65081853
v -10.33937535 4.67230209 -1.42815176
v -10.24461073 4.48486143 -1.33592015
v -10.37862844 4.74994283 -1.65081857
v -9.23495878 -0.62202111 -1.70054906
v -8.20726286 -0.62202086 -1.60663355
v -9.01680785 -0.62202105 -1.60663355
v -7.98911202 -0.62202081 -1.70054898
v -7.89875098 -0.62202079 -1.92728135
v -9.32531988 -0.62202113 -1.92728135
v -9.32532001 -0.62202113 -3.07938672
v -7.89875112 -0.62202079 -3.07938672
v -9.23495898 -0.62202111 -3.30611908
v -7.98911221 -0.62202081 -3.306119
v -8.20726315 -0.62202086 -3.40003451
v -9.01680814 -0.62202105 -3.40003451
v -8.0218324 -0.5867008 -1.74167992
v -8.98409642 -0.58670103 -1.64777248
v -8.2399743 -0.58670085 -1.64777248
v -9.20223842 -0.58670108 -1.74168008
v -7.93147508 -0.58670078 -1.96839288
v -9.2925958 -0.5867011 -1.96839292
v -7.93147521 -0.58670078 -3.03827515
v -9.29259592 -0.5867011 -3.03827519
v -8.02183262 -0.5867008 -3.26498799
v -9.2022386 -0.58670108 -3.26498815
v -8.23997459 -0.58670085 -3.35889559
v -8.9840967 -0.58670103 -3.35889559
vn -0.136 0.2034 -0.9696
vn 0.0287 0.71979 -0.69359
vn 0.136 0.2034 -0.9696
vn 0.0391 -0.84859 0.5276
vn -0.0392 -0.84859 0.52759
vn 0 -0.73719 0.67569
vn -0.0359 -0.95103 0.30701
vn 0.036 -0.951 0.3071
vn 0 -0.98387 0.17889
vn -0.0287 0.71984 -0.69354
vn -0.24958 0.84755 -0.46837
vn -0.0164 0.98801 -0.1535
vn -0.1031 -0.87108 0.48019
vn -0.1044 -0.90349 0.4157
vn -0.21591 -0.88074 0.42152
vn 0.0376 -0.87474 0.48312
vn 0.21589 -0.88076 0.42148
vn 0.1031 -0.87108 0.48019
vn 0.0252 -0.90979 0.4143
vn 0.1044 -0.90349 0.4157
vn -0.0376 -0.87474 0.48312
vn -0.0333 -0.92667 0.37439
vn -0.0252 -0.90979 0.4143
vn 0.1349 0.96093 -0.24171
vn 0.1384 0.91487 0.37929
vn 0.49802 0.85333 0.15431
vn 0.2497 0.8797 -0.4047
vn 0.24958 0.84755 -0.46837
vn 0.1621 0.78079 -0.6034
vn 0.0164 0.98801 -0.1535
vn -0.1621 0.78079 -0.6034
vn -0.2497 0.8797 -0.4047
vn -0.1349 0.96093 -0.24171
vn 0.0333 -0.92667 0.37439
vn -0.49802 0.85333 0.15431
vn -0.1384 0.91487 0.37929
vn -0.80452 -0.1793 0.56621
vn -0.80452 0.1793 0.56621
vn -0.64642 0.1223 -0.75312
vn -0.64642 -0.1223 -0.75312
vn 0.1691 -0.7946 0.5831
vn -0.1691 -0.7946 0.5831
vn -0.1113 -0.66052 -0.74252
vn 0.1113 -0.66052 -0.74252
vn -0.1238 0.628 -0.7683
vn 0.1237 0.62801 -0.76831
vn 0.1334 0.71572 -0.68552
vn -0.13339 0.71577 -0.68547
vn -0.61918 -0.1302 -0.77438
vn -0.61918 0.1302 -0.77438
vn -0.71299 0.1442 -0.68619
vn -0.713 -0.1441 -0.6862
vn 0.1238 -0.6308 0.766
vn 0.13439 -0.71807 0.68287
vn -0.13439 -0.71807 0.68287
vn -0.12379 -0.63086 0.76596
vn 0.1237 -0.62801 -0.76831
vn -0.1237 -0.62801 -0.76831
vn -0.1334 -0.71572 -0.68552
vn 0.1334 -0.71572 -0.68552
vn -0.169 0.79462 0.58311
vn 0.1691 0.7946 0.5831
vn 0.1113 0.66052 -0.74252
vn -0.11111 0.66053 -0.74253
vn -0.46991 -0.49361 -0.73181
vn -0.5984 -0.6072 0.5227
vn 0.62241 0.1306 0.77172
vn 0.62241 -0.1306 0.77172
vn -0.12379 0.62806 -0.76825
vn -0.1238 0.6308 0.766
vn 0.12379 0.63086 0.76596
vn 0.71577 0.14519 0.68307
vn 0.71577 -0.14519 0.68307
vn 0.61918 0.1302 -0.77438
vn 0.61918 -0.1302 -0.77438
vn 0.71299 -0.1442 -0.68619
vn 0.713 0.1441 -0.6862
vn 0.46991 -0.49361 -0.73181
vn 0.64642 -0.1223 -0.75312
vn 0.80452 -0.1793 0.56621
vn 0.5984 -0.6072 0.5227
vn 0.3978 0.4075 -0.82201
vn 0.46991 0.49361 -0.73181
vn 0.52573 -0.54283 -0.65494
vn 0.3978 -0.4075 -0.82201
vn 0.52573 0.54283 -0.65494
vn -0.3978 -0.4075 -0.82201
vn -0.52573 -0.54283 -0.65494
vn -0.16909 0.79456 0.58317
vn -0.5984 0.6072 0.5227
vn 0.4002 -0.4102 0.8195
vn 0.1239 -0.6309 0.7659
vn 0.80452 0.1793 0.56621
vn 0.5984 0.6072 0.5227
vn -0.4002 -0.4102 0.8195
vn -0.62241 -0.1306 0.77172
vn -0.4002 0.4102 0.8195
vn -0.62241 0.1306 0.77172
vn 0.4002 0.4102 0.8195
vn 0.1916 -0.81551 -0.54611
vn -0.1917 -0.81549 -0.5461
vn -0.23789 0.95257 0.18979
vn 0.23789 0.95257 0.18979
vn -0.52802 -0.54482 0.65143
vn -0.71577 -0.14519 0.68307
vn -0.52802 0.54482 0.65143
vn -0.13439 0.71807 0.68287
vn 0.52802 0.54482 0.65143
vn 0.13439 0.71807 0.68287
vn -0.1334 0.71572 -0.68552
vn -0.52573 0.54283 -0.65494
vn -0.3978 0.4075 -0.82201
vn 0.52802 -0.54482 0.65143
vn 0.64642 0.1223 -0.75312
vn 0.7284 0.5309 -0.4331
vn 0.50288 0.36009 -0.78578
vn -0.71577 0.14519 0.68307
vn -0.3826 0.2177 0.8979
vn 0.38269 0.2176 0.89789
vn 0.32481 0.94572 0.0108
vn -0.32481 0.94572 0.0107
vn -0.50319 0.36009 -0.78558
vn 0.2347 -0.2652 0.93519
vn 0.38269 0.21769 0.89787
vn -0.23479 -0.26519 0.93517
vn -0.7284 0.5309 -0.4331
vn -0.86833 -0.49542 0.0239
vn -0.86959 -0.3049 0.3884
vn -0.72682 0.66382 -0.1763
vn -0.64038 -0.0537 0.76618
vn 0.64099 -0.65979 -0.39219
vn -0.64099 -0.65979 -0.39219
vn 0.86962 -0.30491 0.38831
vn 0.72682 0.66382 -0.1763
vn 0.64043 -0.0537 0.76614
vn 0.19441 -0.0123 0.98084
vn -0.46991 0.49361 -0.73181
vn -0.1112 0.66047 -0.74257
vn -0.2347 -0.2652 0.93519
vn 0.86828 -0.49549 0.0239
vn -0.19439 -0.0123 0.98085
vn 0.86962 -0.30481 0.38841
vn 0.64049 -0.0537 0.76609
vn 0.19439 -0.0122 0.98085
vn 0.86833 -0.49542 0.0239
vn 0.19169 -0.81545 -0.54617
vn -0.19441 -0.0122 0.98084
vn -0.5258 0.5428 -0.6549
vn -0.71309 -0.1442 -0.68609
vn -0.71309 0.1442 -0.68609
vn -0.52577 -0.54287 -0.65487
vn -0.1334 -0.71582 -0.68542
vn -0.1334 0.71582 -0.68542
vn 0.1334 0.71582 -0.68542
vn 0.1334 -0.71582 -0.68542
vn 0.52577 0.54287 -0.65487
vn 0.5258 -0.5428 -0.6549
vn 0.71309 -0.1442 -0.68609
vn 0.71309 0.1442 -0.68609
vn 0.5281 0.5449 0.6513
vn 0.71588 -0.1451 0.68298
vn 0.71582 0.1452 0.68302
vn 0.5281 -0.5449 0.6513
vn 0.1344 0.71812 0.68282
vn 0.1344 -0.71812 0.68282
vn -0.1344 0.71812 0.68282
vn -0.1344 -0.71812 0.68282
vn -0.5281 0.5449 0.6513
vn -0.5281 -0.5449 0.6513
vn -0.71588 0.1451 0.68298
vn -0.71582 -0.1452 0.68302
vt 0.93968 0.27442
vt 0.85457 0.20478
vt 0.78784 0.26955
vt 0.76707 0.52335
vt 0.93574 0.52855
vt 0.85319 0.4471
vt 0.89246 0.31852
vt 0.81978 0.31627
vt 0.85427 0.39919
vt 0.87842 0.20495
vt 0.90822 0.1759
vt 0.88128 0.12781
vt 0.96181 0.50115
vt 0.96688 0.35341
vt 0.8935 0.424
vt 0.74974 0.51355
vt 0.81397 0.42155
vt 0.74227 0.49437
vt 0.75179 0.32757
vt 0.74389 0.34653
vt 0.95349 0.51983
vt 0.94244 0.32399
vt 0.95985 0.33399
vt 0.83474 0.13554
vt 0.78105 0.05929
vt 0.75975 0.07308
vt 0.82554 0.15923
vt 0.82573 0.17277
vt 0.83408 0.19527
vt 0.85623 0.12622
vt 0.89883 0.19726
vt 0.90925 0.16276
vt 0.90173 0.13875
vt 0.76962 0.31865
vt 0.97889 0.0831
vt 0.95886 0.06783
vt 0.16104 0.17586
vt 0.0543 0.17586
vt 0.0543 0.22367
vt 0.16104 0.22367
vt 0.36022 0.17586
vt 0.21195 0.17586
vt 0.21195 0.22367
vt 0.36022 0.22367
vt 0.71705 0.24113
vt 0.56879 0.24113
vt 0.56879 0.99678
vt 0.71705 0.99678
vt 0.16104 0.24113
vt 0.0543 0.24113
vt 0.0543 0.99678
vt 0.16104 0.99678
vt 0.71705 0.12239
vt 0.71705 0.0051
vt 0.56879 0.0051
vt 0.56879 0.12239
vt 0.36022 0.24113
vt 0.21195 0.24113
vt 0.21195 0.99678
vt 0.36022 0.99678
vt 0.71705 0.17586
vt 0.56879 0.17586
vt 0.56879 0.22367
vt 0.71705 0.22367
vt 0.18613 0.22367
vt 0.18613 0.17586
vt 0.16104 0.12239
vt 0.0543 0.12239
vt 0.71705 0.24113
vt 0.36022 0.12239
vt 0.21195 0.12239
vt 0.16104 0.0051
vt 0.0543 0.0051
vt 0.51787 0.24113
vt 0.41113 0.24113
vt 0.41113 0.99678
vt 0.51787 0.99678
vt 0.38604 0.22367
vt 0.41113 0.22367
vt 0.41113 0.17586
vt 0.38604 0.17586
vt 0.54297 0.24113
vt 0.54297 0.22367
vt 0.38604 0.99678
vt 0.38604 0.24113
vt 0.54297 0.99678
vt 0.18613 0.24113
vt 0.18613 0.99678
vt 0.00338 0.17586
vt 0.0292 0.17586
vt 0.0292 0.12239
vt 0.00338 0.12239
vt 0.51787 0.17586
vt 0.54297 0.17586
vt 0.54297 0.12239
vt 0.51787 0.12239
vt 0.38604 0.12239
vt 0.41113 0.12239
vt 0.18613 0.12239
vt 0.78116 0.27992
vt 0.94576 0.285
vt 0.90954 0.05
vt 0.83331 0.04606
vt 0.54297 0.0051
vt 0.51787 0.0051
vt 0.38604 0.0051
vt 0.36022 0.0051
vt 0.18613 0.0051
vt 0.21195 0.0051
vt 0.00338 0.24113
vt 0.00338 0.99678
vt 0.0292 0.99678
vt 0.0292 0.24113
vt 0.0292 0.0051
vt 0.00338 0.0051
vt 0.51787 0.22367
vt 0.75667 0.2354
vt 0.76644 0.25891
vt 0.41113 0.0051
vt 0.89362 0.02263
vt 0.85305 0.01649
vt 0.85466 0.022
vt 0.89161 0.02702
vt 0.96133 0.2655
vt 0.89269 0.30842
vt 0.87822 0.28386
vt 0.83557 0.28254
vt 0.82001 0.30618
vt 0.97227 0.24298
vt 0.98153 0.25032
vt 0.99594 0.10346
vt 0.98558 0.10832
vt 0.98828 0.07633
vt 0.75821 0.26741
vt 0.96897 0.27449
vt 0.74117 0.09245
vt 0.75153 0.09819
vt 0.75059 0.06541
vt 0.77264 0.04974
vt 0.0292 0.22367
vt 0.00338 0.22367
vt 0.82697 0.03449
vt 0.91599 0.03978
vt 0.74703 0.24208
vt 0.96766 0.05924
vt 0.97538 0.35174
vt 0.96666 0.32648
vt 0.94476 0.31403
vt 0.95977 0.52795
vt 0.97017 0.5036
vt 0.9371 0.53833
vt 0.73381 0.4963
vt 0.7431 0.52126
vt 0.76527 0.53303
vt 0.74533 0.31965
vt 0.73547 0.34433
vt 0.76776 0.30857
vt 0.95813 0.81895
vt 0.96932 0.96207
vt 0.96932 0.84933
vt 0.95813 0.99245
vt 0.9311 1.00504
vt 0.9311 0.80636
vt 0.79375 0.80636
vt 0.79375 1.00504
vt 0.76672 0.81895
vt 0.76672 0.99245
vt 0.75553 0.96207
vt 0.75553 0.84933
vt 0.74809 0.73479
vt 0.73689 0.60078
vt 0.73689 0.70441
vt 0.74809 0.5704
vt 0.77512 0.74737
vt 0.77512 0.55781
vt 0.90266 0.74737
vt 0.90266 0.55781
vt 0.92969 0.73479
vt 0.92969 0.5704
vt 0.94088 0.70441
vt 0.94088 0.60078
usemtl mat0
f 1/1/1 2/2/2 3/3/3
f 4/4/4 5/5/5 6/6/6
f 7/7/7 8/8/8 9/9/9
f 10/10/10 11/11/11 12/12/12
f 13/13/13 14/14/14 15/15/15
f 16/16/16 17/17/17 18/18/18
f 17/17/17 19/19/19 20/20/20
f 13/13/13 15/15/15 21/21/21
f 22/22/22 15/15/15 23/23/23
f 23/23/23 15/15/15 14/14/14
f 17/17/17 20/20/20 18/18/18
f 24/24/24 25/25/25 26/26/26
f 1/1/1 10/10/10 2/2/2
f 27/27/27 28/28/28 2/2/2
f 28/28/28 29/29/29 2/2/2
f 27/27/27 2/2/2 30/30/30
f 10/10/10 31/31/31 11/11/11
f 11/11/11 32/32/32 12/12/12
f 32/32/32 33/33/33 12/12/12
f 30/30/30 24/24/24 27/27/27
f 34/34/34 19/19/19 17/17/17
f 33/33/33 35/35/35 36/36/36
f 37/37/37 38/38/38 39/39/39
f 37/37/37 39/39/39 40/40/40
f 41/41/41 42/42/42 43/43/43
f 41/41/41 43/43/43 44/44/44
f 45/45/45 46/46/46 47/47/47
f 45/45/45 47/47/47 48/48/48
f 49/49/49 50/50/50 51/51/51
f 49/49/49 51/51/51 52/52/52
f 53/53/53 54/54/54 55/55/55
f 53/53/53 55/55/55 56/56/56
f 57/57/57 58/58/58 59/59/59
f 57/57/57 59/59/59 60/60/60
f 61/61/61 62/62/62 63/63/63
f 61/61/61 63/63/63 64/64/64
f 65/65/65 66/66/66 37/37/37
f 65/65/65 37/37/37 40/40/40
f 67/67/67 68/68/68 38/38/38
f 67/67/67 38/38/38 37/37/37
f 46/46/46 69/69/69 64/64/64
f 46/46/46 64/64/64 63/63/63
f 41/41/41 70/70/70 71/71/71
f 41/41/41 71/71/71 42/42/42
f 67/67/67 72/72/72 73/73/73
f 67/67/67 73/73/73 68/68/68
f 74/74/74 75/75/75 76/76/76
f 74/74/74 76/76/76 77/77/77
f 78/78/78 79/79/79 80/80/80
f 78/78/78 80/80/80 81/81/81
f 82/82/82 46/46/46 63/63/63
f 82/82/82 63/63/63 83/83/83
f 57/57/57 60/60/60 84/84/84
f 57/57/57 84/84/84 85/85/85
f 74/74/74 77/77/77 86/86/86
f 74/74/74 86/86/86 82/82/82
f 84/84/84 76/76/76 75/75/75
f 84/84/84 75/75/75 85/85/85
f 58/58/58 87/87/87 88/88/88
f 58/58/58 88/88/88 59/59/59
f 86/86/86 47/47/47 46/46/46
f 86/86/86 46/46/46 82/82/82
f 88/88/88 87/87/87 49/49/49
f 88/88/88 49/49/49 52/52/52
f 89/89/89 90/90/90 91/91/91
f 89/89/89 91/91/91 92/92/92
f 93/93/93 94/94/94 95/95/95
f 93/93/93 95/95/95 96/96/96
f 41/41/41 81/81/81 97/97/97
f 41/41/41 97/97/97 70/70/70
f 97/97/97 81/81/81 80/80/80
f 97/97/97 80/80/80 98/98/98
f 91/91/91 90/90/90 38/38/38
f 91/91/91 38/38/38 68/68/68
f 42/42/42 71/71/71 99/99/99
f 42/42/42 99/99/99 66/66/66
f 3/3/3 100/100/100 101/101/101
f 3/3/3 101/101/101 1/1/1
f 12/12/12 102/102/102 103/103/103
f 12/12/12 103/103/103 30/30/30
f 96/96/96 95/95/95 104/104/104
f 96/96/96 104/104/104 105/105/105
f 70/70/70 97/97/97 106/106/106
f 70/70/70 106/106/106 107/107/107
f 108/108/108 72/72/72 67/67/67
f 108/108/108 67/67/67 99/99/99
f 71/71/71 109/109/109 108/108/108
f 71/71/71 108/108/108 99/99/99
f 110/110/45 111/111/110 112/112/111
f 110/110/45 112/112/111 113/113/112
f 68/68/68 73/73/73 114/114/113
f 68/68/68 114/114/113 91/91/91
f 114/114/113 115/115/54 92/92/92
f 114/114/113 92/92/92 91/91/91
f 112/112/111 51/51/51 50/50/50
f 112/112/111 50/50/50 113/113/112
f 116/116/114 74/74/74 82/82/82
f 116/116/114 82/82/82 83/83/83
f 85/85/85 75/75/75 79/79/79
f 85/85/85 79/79/79 78/78/78
f 44/44/44 57/57/57 85/85/85
f 44/44/44 85/85/85 78/78/78
f 43/43/43 65/65/65 87/87/87
f 43/43/43 87/87/87 58/58/58
f 87/87/87 65/65/65 40/40/40
f 87/87/87 40/40/40 49/49/49
f 117/117/115 118/118/116 29/29/29
f 117/117/115 29/29/29 28/28/28
f 96/96/96 105/105/105 119/119/117
f 96/96/96 119/119/117 98/98/98
f 104/104/104 95/95/95 56/56/56
f 104/104/104 56/56/56 55/55/55
f 70/70/70 107/107/107 109/109/109
f 70/70/70 109/109/109 71/71/71
f 8/8/8 34/34/34 17/17/17
f 8/8/8 17/17/17 9/9/9
f 120/120/118 121/121/119 122/122/120
f 120/120/118 122/122/120 123/123/121
f 6/6/6 15/15/15 9/9/9
f 6/6/6 9/9/9 17/17/17
f 31/31/31 10/10/10 1/1/1
f 31/31/31 1/1/1 124/124/122
f 102/102/102 123/123/121 122/122/120
f 102/102/102 122/122/120 103/103/103
f 125/125/123 126/126/124 127/127/118
f 125/125/123 127/127/118 128/128/125
f 36/36/36 102/102/102 12/12/12
f 36/36/36 12/12/12 33/33/33
f 129/129/126 130/130/127 131/131/128
f 129/129/126 131/131/128 132/132/129
f 131/131/128 133/133/130 35/35/35
f 131/131/128 35/35/35 132/132/129
f 118/118/116 134/134/131 100/100/100
f 118/118/116 100/100/100 3/3/3
f 130/130/127 129/129/126 124/124/122
f 130/130/127 124/124/122 135/135/132
f 124/124/122 1/1/1 101/101/101
f 124/124/122 101/101/101 135/135/132
f 136/136/133 137/137/134 26/26/26
f 136/136/133 26/26/26 138/138/135
f 15/15/15 6/6/6 5/5/5
f 15/15/15 5/5/5 21/21/21
f 93/93/93 80/80/80 79/79/79
f 93/93/93 79/79/79 116/116/114
f 26/26/26 25/25/25 139/139/136
f 26/26/26 139/139/136 138/138/135
f 9/9/9 15/15/15 22/22/22
f 9/9/9 22/22/22 7/7/7
f 4/4/4 6/6/6 17/17/17
f 4/4/4 17/17/17 16/16/16
f 132/132/129 35/35/35 33/33/33
f 132/132/129 33/33/33 32/32/32
f 113/113/112 50/50/50 39/39/39
f 113/113/112 39/39/39 140/140/137
f 24/24/24 30/30/30 103/103/103
f 24/24/24 103/103/103 25/25/25
f 137/137/134 27/27/27 24/24/24
f 137/137/134 24/24/24 26/26/26
f 29/29/29 118/118/116 3/3/3
f 29/29/29 3/3/3 2/2/2
f 129/129/126 11/11/11 31/31/31
f 129/129/126 31/31/31 124/124/122
f 141/141/138 110/110/45 113/113/112
f 141/141/138 113/113/112 140/140/137
f 137/137/134 117/117/115 28/28/28
f 137/137/134 28/28/28 27/27/27
f 142/142/123 139/139/136 25/25/25
f 142/142/123 25/25/25 103/103/103
f 132/132/129 32/32/32 11/11/11
f 132/132/129 11/11/11 129/129/126
f 143/143/139 120/120/118 123/123/121
f 143/143/139 123/123/121 102/102/102
f 142/142/123 103/103/103 122/122/120
f 142/142/123 122/122/120 121/121/119
f 144/144/140 134/134/131 118/118/116
f 144/144/140 118/118/116 117/117/115
f 40/40/40 39/39/39 50/50/50
f 40/40/40 50/50/50 49/49/49
f 36/36/36 145/145/141 143/143/139
f 36/36/36 143/143/139 102/102/102
f 95/95/95 94/94/94 62/62/62
f 95/95/95 62/62/62 56/56/56
f 140/140/137 39/39/39 38/38/38
f 140/140/137 38/38/38 90/90/90
f 89/89/89 141/141/138 140/140/137
f 89/89/89 140/140/137 90/90/90
f 42/42/42 66/66/66 65/65/65
f 42/42/42 65/65/65 43/43/43
f 41/41/41 44/44/44 78/78/78
f 41/41/41 78/78/78 81/81/81
f 93/93/93 116/116/114 83/83/83
f 93/93/93 83/83/83 94/94/94
f 83/83/83 63/63/63 62/62/62
f 83/83/83 62/62/62 94/94/94
f 99/99/99 67/67/67 37/37/37
f 99/99/99 37/37/37 66/66/66
f 116/116/114 79/79/79 75/75/75
f 116/116/114 75/75/75 74/74/74
f 58/58/58 57/57/57 44/44/44
f 58/58/58 44/44/44 43/43/43
f 96/96/96 98/98/98 80/80/80
f 96/96/96 80/80/80 93/93/93
f 61/61/61 53/53/53 56/56/56
f 61/61/61 56/56/56 62/62/62
f 12/12/12 30/30/30 2/2/2
f 12/12/12 2/2/2 10/10/10
f 137/137/134 136/136/133 144/144/140
f 137/137/134 144/144/140 117/117/115
f 35/35/35 133/133/130 145/145/141
f 35/35/35 145/145/141 36/36/36
f 106/106/106 97/97/97 98/98/98
f 106/106/106 98/98/98 119/119/117
f 23/23/23 14/14/14 146/146/142
f 23/23/23 146/146/142 147/147/143
f 22/22/22 23/23/23 147/147/143
f 22/22/22 147/147/143 148/148/144
f 13/13/13 21/21/21 149/149/131
f 13/13/13 149/149/131 150/150/145
f 21/21/21 5/5/5 151/151/146
f 21/21/21 151/151/146 149/149/131
f 16/16/16 18/18/18 152/152/127
f 16/16/16 152/152/127 153/153/132
f 4/4/4 16/16/16 153/153/132
f 4/4/4 153/153/132 154/154/101
f 20/20/20 19/19/19 155/155/130
f 20/20/20 155/155/130 156/156/128
f 19/19/19 34/34/34 157/157/147
f 19/19/19 157/157/147 155/155/130
f 18/18/18 20/20/20 156/156/128
f 18/18/18 156/156/128 152/152/127
f 5/5/5 4/4/4 154/154/101
f 5/5/5 154/154/101 151/151/146
f 14/14/14 13/13/13 150/150/145
f 14/14/14 150/150/145 146/146/142
f 7/7/7 22/22/22 148/148/144
f 7/7/7 148/148/144 125/125/123
f 34/34/34 8/8/8 128/128/125
f 34/34/34 128/128/125 157/157/147
f 8/8/8 7/7/7 125/125/123
f 8/8/8 125/125/123 128/128/125
f 158/158/148 159/159/149 160/160/150
f 159/159/149 158/158/148 161/161/151
f 161/161/151 158/158/148 162/162/152
f 162/162/152 158/158/148 163/163/153
f 162/162/152 163/163/153 164/164/154
f 162/162/152 164/164/154 165/165/155
f 165/165/155 164/164/154 166/166/156
f 165/165/155 166/166/156 167/167/157
f 167/167/157 166/166/156 168/168/158
f 168/168/158 166/166/156 169/169/159
f 170/170/160 171/171/161 172/172/162
f 171/171/161 170/170/160 173/173/163
f 173/173/163 170/170/160 174/174/164
f 173/173/163 174/174/164 175/175/165
f 175/175/165 174/174/164 176/176/166
f 175/175/165 176/176/166 177/177/167
f 177/177/167 176/176/166 178/178/168
f 177/177/167 178/178/168 179/179/169
f 179/179/169 178/178/168 180/180/170
f 179/179/169 180/180/170 181/181/171
# Vertices: 181, normals: 171, texture coordinates: 181, faces: 260

o obj2
v -9.24162666 2.69599039 -3.38972595
v -9.18195877 2.62975685 -3.49948366
v -9.25547205 2.6469017 -3.50094214
v -9.31698984 2.63298183 -3.38217325
v -9.43653684 2.91365582 -2.30811413
v -9.39299158 2.85486193 -2.43258706
v -9.44444326 2.76673537 -2.40841074
v -9.43026889 2.83261018 -2.25087462
v -8.5499023 2.83242784 -2.38109649
v -8.5485954 2.81179755 -2.46517687
v -8.61451785 2.88916486 -2.48919739
v -8.61501618 2.90455919 -2.3799299
v -8.51169881 2.713463 -3.34463411
v -8.52040834 2.5854994 -3.53376062
v -8.63056883 2.58199766 -3.52466473
v -8.62556839 2.69784759 -3.35608852
v -8.5163667 2.79633791 -2.76093151
v -8.51026851 2.78743588 -2.86753475
v -8.57625228 2.83885222 -2.9094987
v -8.58170117 2.85950167 -2.80187438
v -8.01218624 2.87336791 -2.83528819
v -8.01866996 2.8340341 -2.93511322
v -8.14618357 2.84461316 -2.93796481
v -8.14610718 2.87304055 -2.8389846
v -8.06966553 2.7268252 -3.35696535
v -8.09243543 2.61932482 -3.48251004
v -8.15754784 2.60697031 -3.51140489
v -8.13638814 2.71124129 -3.40977336
v -8.55981658 2.80818057 -1.9197515
v -8.56399684 2.82279221 -2.05535632
v -8.67956951 2.84502461 -2.03599855
v -8.68523954 2.82809539 -1.89743817
v -8.0739122 2.88278397 -1.95412309
v -8.0882051 2.92844087 -2.06656946
v -8.23082345 2.93392117 -2.06874754
v -8.21004788 2.89206309 -1.95353228
v -8.0979579 2.9697601 -2.52453416
v -8.0558613 2.95593733 -2.63010439
v -8.23685687 2.96546984 -2.60536712
v -8.26385572 2.98038792 -2.51291759
v -9.35215639 2.91945939 -1.75355262
v -9.41422903 2.9428674 -1.86031332
v -9.43257453 2.86312531 -1.85772849
v -9.39371317 2.85400947 -1.73775678
v -9.07090566 2.95659599 -1.82685828
v -9.01977914 2.97821212 -1.92024736
v -9.20178388 3.01275543 -1.93153514
v -9.24845578 2.98910322 -1.86279165
v -8.93432566 2.95924191 -2.34244423
v -8.94615312 2.934686 -2.45205042
v -9.09336382 2.93705852 -2.4628064
v -9.08893555 2.97283133 -2.35576541
v -9.36135005 2.73707078 -2.80358228
v -9.33073278 2.71288633 -2.93335181
v -9.40838852 2.63476145 -2.90467995
v -9.41432839 2.64591384 -2.78684229
v -8.93682639 2.88277065 -2.82477079
v -8.91624881 2.88418057 -2.96798387
v -9.05546501 2.89926247 -2.96461747
v -9.07396947 2.89708394 -2.83074143
v -8.95381698 2.71040658 -3.40849475
v -8.94936849 2.60378414 -3.53385322
v -9.06292487 2.61337031 -3.53487414
v -9.07727028 2.73379889 -3.44018736
v -8.92087677 2.89282907 -3.13614102
v -8.90623862 2.82484957 -3.30736519
v -9.05737151 2.8603449 -3.31669326
v -9.05956403 2.91723284 -3.1388088
v -8.67441524 2.82542212 -3.09591237
v -8.69834259 2.77357054 -3.27451567
v -8.78951699 2.79243128 -3.28963145
v -8.78420879 2.86127817 -3.11811664
v -8.73582611 2.68389551 -3.37075408
v -8.73877807 2.57826432 -3.51580415
v -8.84368141 2.58479918 -3.51787908
v -8.84840732 2.70229881 -3.36359535
v -8.96289512 2.90346746 -2.58012156
v -8.94891377 2.89534365 -2.70115866
v -9.08650947 2.90804271 -2.70784518
v -9.09977577 2.91490037 -2.58494452
v -8.69926713 2.91998582 -2.59862517
v -8.68612211 2.90508857 -2.70672908
v -8.81129585 2.91961441 -2.71407816
v -8.82308445 2.92938872 -2.59701421
v -8.67982899 2.88348241 -2.81752714
v -8.67314606 2.86516481 -2.93308803
v -8.78364045 2.88895524 -2.96064707
v -8.80209063 2.90076076 -2.83277227
v -9.35661914 2.80840478 -2.5505375
v -9.39168262 2.76895063 -2.68559002
v -9.42938607 2.6721602 -2.67286136
v -9.42245333 2.71608278 -2.54709433
v -9.23528625 2.92786239 -2.57219666
v -9.22736758 2.89416003 -2.70117974
v -9.34940465 2.89517114 -2.69877073
v -9.35008525 2.94147833 -2.54694462
v -9.20903354 2.8850288 -2.8251715
v -9.20122976 2.89168273 -2.95513131
v -9.29731664 2.81130056 -2.93544525
v -9.32403091 2.83157351 -2.81838543
v -8.97561541 2.98395078 -2.08718701
v -8.95102138 2.97388202 -2.23320317
v -9.11812281 2.99758598 -2.24772431
v -9.15870752 3.02610843 -2.07257286
v -8.72169647 2.92025972 -2.12299263
v -8.69787436 2.94119036 -2.24536254
v -8.79841989 2.96321079 -2.22872371
v -8.82419189 2.95439777 -2.09923674
v -8.69504995 2.94186773 -2.36984626
v -8.70332306 2.93286196 -2.49234253
v -8.81777263 2.94181179 -2.47898578
v -8.79368873 2.95713482 -2.35141592
v -9.0895463 2.88847623 -1.68412506
v -9.10508755 2.92990362 -1.75661138
v -9.2220445 2.94633881 -1.77634865
v -9.17854419 2.90126316 -1.67419787
v -8.79526386 2.7503753 -1.57162037
v -8.80763687 2.84405107 -1.74188986
v -8.94831042 2.88502542 -1.74334852
v -8.94684963 2.82069902 -1.63752046
v -8.80826883 2.86925958 -1.86630527
v -8.77941683 2.88578533 -2.00769643
v -8.87113527 2.93474286 -1.9552414
v -8.92734738 2.91224154 -1.83205361
v -9.23565667 2.8293707 -1.5964676
v -9.30043624 2.88398017 -1.69093357
v -9.35572137 2.82895133 -1.674859
v -9.29174217 2.79558121 -1.59431073
v -9.21391951 2.88972121 -1.6420459
v -9.26666031 2.92906348 -1.74188567
v -9.28452478 2.91723744 -1.70591841
v -9.22272556 2.86682264 -1.60989473
v -9.35485652 2.97839492 -1.84814186
v -9.37149517 2.999971 -1.95022271
v -9.4441868 2.9816972 -1.92012292
v -9.3774448 2.9485699 -1.80049163
v -8.1003719 2.94923934 -2.21891148
v -8.1126685 2.97321206 -2.39381647
v -8.28514609 2.99226616 -2.3898493
v -8.26179066 2.96641131 -2.22329215
v -7.87662176 2.73084896 -2.16155609
v -7.86238405 2.7614235 -2.28959163
v -7.95580334 2.97519754 -2.38831859
v -7.96026054 2.90253562 -2.20209269
v -7.83347984 2.78491302 -2.40028284
v -7.83576166 2.74852511 -2.46946948
v -7.88418313 2.94420775 -2.58129327
v -7.91650537 2.94954208 -2.47968502
v -7.97922559 2.68676495 -1.63693263
v -8.06541598 2.79058908 -1.86823305
v -8.17471705 2.79080674 -1.8966068
v -8.1471585 2.77124852 -1.72489777
v -7.90275532 2.5987916 -1.65245303
v -7.86100447 2.57672204 -1.79408514
v -7.90913539 2.66806596 -1.79954208
v -7.91589742 2.59929845 -1.65156178
v -7.87899558 2.63260513 -1.92314245
v -7.88090616 2.69446925 -2.0582475
v -7.95158479 2.85212604 -2.07549728
v -7.94920549 2.80167349 -1.98213844
v -8.52093967 2.627706 -1.55819672
v -8.54164967 2.77462469 -1.78310345
v -8.67569026 2.80193271 -1.75969548
v -8.65684337 2.68972682 -1.55452661
v -8.25435625 2.74944797 -1.73724095
v -8.28292773 2.77606735 -1.88345331
v -8.40567931 2.76475706 -1.83708945
v -8.38547372 2.68948611 -1.69020421
v -8.32331979 2.85287069 -1.95709635
v -8.35028812 2.90072622 -2.07145016
v -8.44822964 2.84125742 -2.06935067
v -8.43640486 2.81897716 -1.94147398
v -8.04878511 2.77716843 -3.0392987
v -8.06770846 2.75109259 -3.16721337
v -8.16268173 2.74607505 -3.17466592
v -8.15298083 2.77711631 -3.03471265
v -7.87743603 2.62984112 -2.98909084
v -7.86812786 2.59576919 -3.16677415
v -7.95720178 2.69756854 -3.16685699
v -7.93677646 2.70361432 -3.01647776
v -7.92428195 2.65390326 -3.30072601
v -7.96035549 2.63079848 -3.44984136
v -8.02235781 2.63124482 -3.45580969
v -7.99947556 2.73344442 -3.30382361
v -7.99660217 2.94460404 -2.6952449
v -7.99153001 2.92676324 -2.76673657
v -8.15499035 2.90292698 -2.74717224
v -8.18407163 2.93240489 -2.67335325
v -7.84134638 2.722121 -2.54332177
v -7.84980993 2.7050318 -2.65090218
v -7.89770585 2.91118947 -2.71526448
v -7.88839332 2.93120137 -2.66739245
v -7.86484312 2.6777501 -2.75904125
v -7.88506115 2.6436843 -2.85610142
v -7.92364626 2.73702266 -2.88894535
v -7.90273471 2.76710316 -2.80111037
v -8.53599186 2.80368411 -2.55060252
v -8.52237593 2.80490177 -2.65520348
v -8.58850577 2.8778454 -2.6955251
v -8.6069271 2.88201426 -2.58942051
v -8.29410674 2.89278839 -2.61953465
v -8.26907901 2.86684518 -2.70439257
v -8.38131405 2.77638242 -2.63337056
v -8.37857013 2.789914 -2.53638499
v -8.25973244 2.8470471 -2.80489878
v -8.2586019 2.82772633 -2.90134349
v -8.38639131 2.76777856 -2.85391868
v -8.39169751 2.76509138 -2.74038862
v -8.52005742 2.75187113 -2.96866185
v -8.51758992 2.73577601 -3.1540938
v -8.6055368 2.76437244 -3.24308635
v -8.59377796 2.80066377 -3.06539258
v -8.26863949 2.7723015 -3.01299138
v -8.26665948 2.7454262 -3.19264006
v -8.40207405 2.7143545 -3.12747746
v -8.40377261 2.74242042 -2.96147035
v -8.25253246 2.70921093 -3.3973693
v -8.25352438 2.60299496 -3.51105382
v -8.38705442 2.59919378 -3.52353673
v -8.39307284 2.717433 -3.33166773
v -8.55489851 2.85452303 -2.17543367
v -8.54724849 2.86319404 -2.28616523
v -8.61941685 2.90873179 -2.26308997
v -8.64422377 2.8836012 -2.14867671
v -8.38202597 2.94154645 -2.21327723
v -8.39336006 2.95326984 -2.36756497
v -8.45089486 2.85703924 -2.3191838
v -8.46050988 2.86799363 -2.19672579
v -8.36389202 2.93993779 -2.47353932
v -8.33584349 2.91364091 -2.55310802
v -8.38855208 2.79515789 -2.46357089
v -8.40211233 2.81359675 -2.39989268
v -9.44362367 2.960907 -2.00434427
v -9.44131853 2.95783899 -2.16519492
v -9.41763049 2.87475714 -2.11094783
v -9.41616331 2.87615153 -1.97593002
v -9.34731218 3.01959269 -2.07982925
v -9.30363059 2.99772254 -2.25545305
v -9.39826163 2.97318718 -2.20854946
v -9.42305112 2.98609714 -2.06565064
v -9.27446008 2.9665298 -2.39035841
v -9.25709683 2.94176702 -2.48132705
v -9.35187335 2.9379152 -2.45933586
v -9.35103256 2.94720002 -2.33335093
v -9.32823539 2.69714561 -3.08553598
v -9.32884336 2.71261787 -3.25340034
v -9.37940645 2.64490388 -3.21676252
v -9.38478133 2.62761866 -3.04861647
v -9.22154616 2.9158114 -3.11856897
v -9.20291667 2.85506514 -3.29555426
v -9.2881369 2.77762951 -3.28217332
v -9.33645195 2.83100304 -3.09458861
v -9.16244749 2.72498031 -3.41591058
v -9.12348855 2.61034453 -3.51201549
v -9.15231432 2.61681863 -3.49900736
v -9.20687188 2.72685223 -3.39550834
v -7.82646308 2.62245942 -2.64244102
v -7.82670366 2.60800009 -2.74143306
v -7.82266238 2.58588369 -2.85105871
v -7.8422194 2.6297062 -2.44620054
v -7.83049817 2.62233207 -2.53935456
v -7.80458466 2.54248819 -3.16957949
v -7.85455002 2.58438095 -3.33195621
v -7.88123218 2.64545769 -3.44530747
v -7.80856523 2.57517753 -2.99259611
v -8.28932639 2.54599778 -1.48784224
v -8.40577124 2.54039256 -1.48784223
v -8.16768167 2.54891881 -1.48688133
v -8.525937 2.54755513 -1.48784222
v -8.64981776 2.57509341 -1.48784222
v -7.83328017 2.56734215 -1.78546896
v -7.82124107 2.57917601 -1.89682467
v -7.81870772 2.59260061 -2.00878948
v -7.92846306 2.54056563 -1.54345695
v -7.99113599 2.52981553 -1.52763775
v -7.89961689 2.59177369 -1.58839163
v -7.85845252 2.55741835 -1.64085691
v -8.05478979 2.53835841 -1.49397409
v -7.84668829 2.6472433 -2.25467985
v -7.85123011 2.64132167 -2.35802402
v -7.83031756 2.62580167 -2.13914646
v -9.1658846 2.74565359 -1.50187686
v -9.19661723 2.76304238 -1.51690384
v -9.11489937 2.71927079 -1.49267904
v -9.23001823 2.77542941 -1.53094735
v -9.30407979 2.81518614 -1.53299806
v -8.77446039 2.61456552 -1.48784221
v -8.89926638 2.6496741 -1.48785457
v -9.02197036 2.68320176 -1.48823072
vn 0.697 0.6117 0.3742
vn 0.80455 0.35968 0.47257
vn 0.5821 0.471 0.6628
vn 0.53467 0.71136 0.45617
vn 0.2313 0.9433 0.2381
vn 0.2622 0.95242 0.1554
vn 0.33081 0.92482 0.1878
vn 0.0823 0.99631 0.0243
vn 0.43409 -0.57429 0.69409
vn 0.21591 -0.63474 0.74195
vn 0.1008 -0.83639 0.53879
vn 0.1298 -0.80513 0.57872
vn 0.60769 -0.1304 0.78339
vn 0.82248 0.0584 0.56579
vn 0.83162 0.0843 0.54891
vn 0.80197 -0.08 0.59198
vn 0.0951 -0.71442 0.69322
vn 0.2664 -0.68951 0.67351
vn 0.28291 -0.74652 0.60222
vn 0.18759 -0.74238 0.64318
vn 0.74139 -0.3777 0.55469
vn 0.62884 -0.51713 0.58064
vn 0.66931 0.1584 0.72591
vn 0.57802 0.28181 0.76582
vn 0.58039 -0.202 0.78889
vn 0.84409 -0.3452 0.4103
vn 0.90429 -0.0776 0.4198
vn 0.73282 -0.0917 0.67422
vn -0.39059 -0.21049 0.89618
vn -0.4025 -0.1316 0.90591
vn -0.41729 -0.55569 0.71908
vn -0.29209 -0.51628 0.80507
vn -0.74681 -0.3638 0.55671
vn -0.46921 -0.40311 0.78571
vn -0.53921 0.15 0.82871
vn -0.80329 0.1571 0.57449
vn 0.19351 -0.15521 0.96874
vn 0.38161 -0.0869 0.92023
vn 0.57062 0.37021 0.73303
vn 0.33852 0.32392 0.88345
vn -0.67622 0.68712 0.26571
vn -0.32431 0.94473 0.0481
vn -0.28089 0.95437 0.1014
vn -0.64202 0.71892 0.26641
vn -0.6302 -0.3165 0.709
vn -0.43291 -0.42491 0.79501
vn -0.40081 -0.1007 0.91061
vn -0.61468 -0.0026 0.78877
vn 0.33519 -0.0986 0.93698
vn 0.41219 0.0304 0.91059
vn 0.46483 -0.11461 0.87795
vn 0.45272 -0.13191 0.88184
vn 0.28211 0.94044 0.18971
vn 0.12101 0.96884 0.21611
vn 0.1875 0.92659 0.326
vn 0.2543 0.9339 0.2513
vn 0.1327 0.0172 0.99101
vn 0.0113 -0.137 0.99051
vn -0.139 -0.0972 0.98551
vn 0.0643 -0.0214 0.9977
vn 0.8726 -0.3132 0.3748
vn 0.84219 -0.3129 0.4391
vn 0.92917 0.0239 0.36889
vn 0.92968 0.0141 0.36809
vn 0.29691 -0.35361 0.88702
vn 0.75994 -0.38252 0.52553
vn 0.77293 -0.0883 0.62832
vn 0.21529 -0.12629 0.96835
vn 0.4477 -0.5238 0.7247
vn 0.74409 -0.3347 0.57819
vn 0.77069 -0.39069 0.50339
vn 0.41698 -0.44278 0.79377
vn 0.86867 -0.0812 0.48869
vn 0.8457 -0.0165 0.5334
vn 0.83657 -0.22309 0.50038
vn 0.88046 -0.26569 0.39268
vn 0.2731 0.0732 0.9592
vn 0.19901 0.0812 0.97663
vn 0.20529 -0.0403 0.97787
vn 0.30899 -0.0965 0.94616
vn 0.16369 -0.42918 0.88826
vn 0.2253 -0.41309 0.88238
vn 0.2647 0.0543 0.9628
vn 0.24819 0.0969 0.96385
vn 0.2788 -0.4262 0.8606
vn 0.31502 -0.50473 0.80375
vn 0.21209 -0.25949 0.94217
vn 0.24181 -0.0365 0.96964
vn 0.1529 0.97398 0.1673
vn 0.1564 0.97212 0.1747
vn 0.1966 0.9584 0.2069
vn 0.1361 0.96018 0.24399
vn 0.36181 -0.0628 0.93013
vn 0.42309 0.153 0.89308
vn 0.38279 0.71568 0.58418
vn 0.28891 0.56451 0.77321
vn 0.23801 0.42791 0.87192
vn -0.14531 0.50323 0.85185
vn 0.0268 0.95137 0.30689
vn 0.34511 0.85881 0.37861
vn -0.0961 -0.40359 0.90988
vn 0.1534 -0.2572 0.9541
vn 0.31179 -0.16469 0.93577
vn -0.0006 -0.1708 0.98531
vn -0.4605 -0.6458 0.609
vn -0.1723 -0.58891 0.78962
vn -0.048 -0.33928 0.93946
vn -0.30201 -0.51902 0.79963
vn 0.1176 -0.50761 0.85352
vn 0.2023 -0.44909 0.87028
vn 0.2889 0.017 0.95721
vn 0.1895 -0.1628 0.96829
vn -0.7896 -0.2753 0.5484
vn -0.68911 -0.25471 0.67841
vn -0.70849 -0.0549 0.70359
vn -0.75739 -0.1683 0.6309
vn -0.84579 -0.2651 0.46299
vn -0.54949 -0.49089 0.67609
vn -0.63768 -0.41808 0.64697
vn -0.83076 -0.24609 0.49928
vn -0.36141 -0.63332 0.68432
vn -0.44858 -0.67837 0.58188
vn -0.43147 -0.60976 0.66485
vn -0.51998 -0.54228 0.65997
vn -0.79796 0.42638 0.42598
vn -0.75117 0.58918 0.29769
vn -0.76769 0.54009 0.3449
vn -0.71555 0.25352 0.65094
vn -0.7863 -0.1168 0.6067
vn -0.70732 0.0592 0.70442
vn -0.7817 0.3173 0.5369
vn -0.89337 0.17839 0.41239
vn -0.59987 0.22239 0.76857
vn -0.29402 0.36742 0.88236
vn -0.2773 0.84701 0.45351
vn -0.68851 0.57611 0.44051
vn -0.37581 -0.29901 0.87713
vn -0.1064 -0.2076 0.97241
vn -0.0118 0.24231 0.97013
vn -0.3603 0.1351 0.923
vn -0.13291 -0.97115 0.19801
vn -0.17669 -0.97266 0.15069
vn -0.18821 -0.54483 0.81715
vn -0.3238 -0.7855 0.5274
vn -0.161 -0.97499 0.1532
vn -0.0088 -0.99907 0.0422
vn 0.1123 -0.75442 0.64672
vn -0.0383 -0.73018 0.68218
vn -0.67281 -0.54231 0.50321
vn -0.69518 -0.43419 0.57289
vn -0.7889 0.0769 0.6097
vn -0.62901 -0.0327 0.77671
vn -0.44253 -0.59634 0.66974
vn -0.2326 -0.85399 0.4654
vn -0.233 -0.91332 0.33401
vn -0.64598 -0.61988 0.44549
vn -0.1973 -0.92839 0.3149
vn -0.17789 -0.95355 0.24309
vn -0.30981 -0.85823 0.40921
vn -0.43959 -0.82468 0.35589
vn -0.8572 -0.2758 0.4349
vn -0.6262 -0.3425 0.7004
vn -0.51971 -0.49531 0.69611
vn -0.83809 -0.3361 0.4297
vn -0.67411 0.2357 0.70001
vn -0.7332 0.1773 0.6565
vn -0.71701 -0.0363 0.69611
vn -0.80573 -0.0402 0.59092
vn -0.77643 0.31861 0.54372
vn -0.51798 0.56958 0.63818
vn -0.43962 0.45292 0.77563
vn -0.61519 0.1458 0.77478
vn 0.56812 -0.47202 0.67412
vn 0.28481 -0.29971 0.91053
vn 0.3538 0.0687 0.9328
vn 0.60594 0.09471 0.78985
vn 0.1018 -0.91687 0.38599
vn 0.07961 -0.89786 0.43303
vn 0.1154 -0.84534 0.52162
vn 0.22711 -0.89543 0.38291
vn 0.1675 -0.83621 0.52221
vn 0.33729 -0.69437 0.63568
vn 0.73599 -0.47479 0.48259
vn 0.29419 -0.64038 0.70948
vn 0.49027 -0.12709 0.86225
vn 0.73202 -0.20401 0.65002
vn 0.6143 0.402 0.679
vn 0.66883 0.40282 0.62483
vn 0.0546 -0.99703 0.0544
vn 0.1507 -0.9838 0.0971
vn 0.48931 -0.79862 0.35041
vn 0.30169 -0.75487 0.58237
vn 0.2401 -0.9571 0.1622
vn 0.1771 -0.9385 0.2964
vn 0.33421 -0.90613 0.25931
vn 0.3624 -0.914 0.1824
vn 0.035 -0.63971 0.76782
vn 0.0549 -0.71092 0.70112
vn 0.0851 -0.76239 0.64149
vn 0.0031 -0.80761 0.58971
vn 0.51989 0.79479 0.31309
vn 0.38181 0.76772 0.51461
vn 0.2477 0.3546 0.90161
vn 0.3325 0.5009 0.79909
vn 0.30091 0.68421 0.66431
vn 0.4533 0.5644 0.6899
vn 0.34 0.279 0.89809
vn 0.17331 0.21491 0.96113
vn 0.36491 -0.59462 0.71643
vn 0.25191 -0.48141 0.83952
vn 0.54749 -0.46129 0.69819
vn 0.34839 -0.70539 0.61729
vn 0.47622 0.41982 0.77264
vn 0.29349 0.2079 0.93308
vn 0.228 0.0879 0.96969
vn 0.43179 0.1448 0.89028
vn 0.65526 0.12219 0.74545
vn 0.87142 0.1148 0.47691
vn 0.82988 0.0735 0.55308
vn 0.4782 0.0756 0.87499
vn -0.38989 -0.2634 0.88239
vn 0.1427 -0.5015 0.85331
vn -0.14491 -0.75994 0.63363
vn -0.473 -0.64389 0.60139
vn -0.30011 0.69071 0.65791
vn 0.1183 0.82033 0.55952
vn 0.44139 0.62619 0.64269
vn -0.2323 0.59951 0.76591
vn 0.4039 0.8349 0.3739
vn 0.48239 0.84068 0.24609
vn 0.45581 0.48301 0.74762
vn 0.60239 0.53319 0.59399
vn 0.0004 1 -0.0005
vn 0.1398 0.95417 0.26459
vn -0.0355 0.9944 -0.0995
vn -0.0259 0.99713 -0.0712
vn 0.0898 0.3629 0.92749
vn 0.41817 0.33118 0.84584
vn 0.36809 0.70268 0.60889
vn 0.1065 0.79129 0.60209
vn 0.46382 0.22671 0.85643
vn 0.33389 0.0085 0.94257
vn 0.3125 0.6896 0.6533
vn 0.42639 0.68848 0.58668
vn 0.0216 0.97368 0.2269
vn 0.3222 0.9226 0.2121
vn 0.1619 0.92711 0.33801
vn 0.0622 0.93318 0.35399
vn 0.121 0.50059 0.85719
vn 0.69099 0.47489 0.54499
vn 0.51569 0.82418 0.23409
vn 0.045 0.9457 0.3219
vn 0.87862 0.35551 0.31881
vn 0.89297 0.33849 0.29669
vn 0.88887 0.32759 0.32029
vn 0.78067 0.56178 0.27379
vn 0.0946 -0.98711 0.1291
vn 0.21 -0.94512 0.2503
vn 0.1201 -0.90532 0.40741
vn -0.0473 -0.99883 -0.0098
vn 0.0035 -0.99878 0.0493
vn 0.0881 -0.87938 0.46789
vn -0.034 -0.83021 0.55641
vn -0.0911 -0.6354 0.76679
vn 0.10821 -0.87045 0.48023
vn -0.86058 0.1455 0.48809
vn -0.87053 -0.0552 0.48902
vn -0.89411 0.0546 0.44451
vn -0.8897 -0.2347 0.3916
vn -0.93316 -0.21389 0.28889
vn -0.21889 -0.79956 0.55927
vn -0.2988 -0.8185 0.4907
vn -0.21611 -0.91654 0.33652
vn -0.71053 0.0434 0.70233
vn -0.80009 -0.4803 0.3594
vn -0.23779 0.17309 0.95577
vn -0.1981 -0.57801 0.79162
vn -0.8751 -0.3438 0.3406
vn -0.0802 -0.99337 0.0824
vn -0.0895 -0.99591 -0.0122
vn -0.1075 -0.97117 0.21279
vn -0.83042 -0.35881 0.42621
vn -0.90388 -0.1108 0.41319
vn -0.85362 -0.29831 0.42701
vn -0.80474 0.31201 0.50502
vn -0.5114 -0.0863 0.855
vn -0.94869 -0.1292 0.2886
vn -0.93069 -0.091 0.3543
vn -0.8899 -0.2032 0.4084
vt 0.07185 0.07337
vt 0.07185 0.00648
vt 0.00597 0.00648
vt 0.00597 0.07337
vt 0.07185 0.52423
vt 0.07185 0.47585
vt 0.00597 0.47585
vt 0.00597 0.52423
vt 0.55016 0.52423
vt 0.55016 0.47585
vt 0.49204 0.47585
vt 0.49204 0.52423
vt 0.55016 0.07337
vt 0.55016 0.00648
vt 0.49204 0.00648
vt 0.49204 0.07337
vt 0.55016 0.33017
vt 0.55016 0.27758
vt 0.49204 0.27758
vt 0.49204 0.33017
vt 0.79257 0.33017
vt 0.79257 0.27758
vt 0.73538 0.27758
vt 0.73538 0.33017
vt 0.79257 0.07337
vt 0.79257 0.00648
vt 0.73538 0.00648
vt 0.73538 0.07337
vt 0.55016 0.76825
vt 0.55016 0.7061
vt 0.49204 0.7061
vt 0.49204 0.76825
vt 0.79257 0.76825
vt 0.79257 0.7061
vt 0.73538 0.7061
vt 0.73538 0.76825
vt 0.79257 0.52423
vt 0.79257 0.47585
vt 0.73538 0.47585
vt 0.73538 0.52423
vt 0.07185 0.76825
vt 0.07185 0.7061
vt 0.00597 0.7061
vt 0.00597 0.76825
vt 0.3322 0.76825
vt 0.3322 0.7061
vt 0.26993 0.7061
vt 0.26993 0.76825
vt 0.3322 0.52423
vt 0.3322 0.47585
vt 0.26993 0.47585
vt 0.26993 0.52423
vt 0.07185 0.33017
vt 0.07185 0.27758
vt 0.00597 0.27758
vt 0.00597 0.33017
vt 0.3322 0.33017
vt 0.3322 0.27758
vt 0.26993 0.27758
vt 0.26993 0.33017
vt 0.3322 0.07337
vt 0.3322 0.00648
vt 0.26993 0.00648
vt 0.26993 0.07337
vt 0.3322 0.214
vt 0.3322 0.14167
vt 0.26993 0.14167
vt 0.26993 0.214
vt 0.44348 0.214
vt 0.44348 0.14167
vt 0.39182 0.14167
vt 0.39182 0.214
vt 0.44348 0.07337
vt 0.44348 0.00648
vt 0.39182 0.00648
vt 0.39182 0.07337
vt 0.3322 0.43102
vt 0.3322 0.38352
vt 0.26993 0.38352
vt 0.26993 0.43102
vt 0.44348 0.43102
vt 0.44348 0.38352
vt 0.39182 0.38352
vt 0.39182 0.43102
vt 0.44348 0.33017
vt 0.44348 0.27758
vt 0.39182 0.27758
vt 0.39182 0.33017
vt 0.07185 0.43102
vt 0.07185 0.38352
vt 0.00597 0.38352
vt 0.00597 0.43102
vt 0.2062 0.43102
vt 0.2062 0.38352
vt 0.14138 0.38352
vt 0.14138 0.43102
vt 0.2062 0.33017
vt 0.2062 0.27758
vt 0.14138 0.27758
vt 0.14138 0.33017
vt 0.3322 0.64115
vt 0.3322 0.57683
vt 0.26993 0.57683
vt 0.26993 0.64115
vt 0.44348 0.64115
vt 0.44348 0.57683
vt 0.39182 0.57683
vt 0.39182 0.64115
vt 0.44348 0.52423
vt 0.44348 0.47585
vt 0.39182 0.47585
vt 0.39182 0.52423
vt 0.3322 0.92195
vt 0.3322 0.84369
vt 0.26993 0.84369
vt 0.26993 0.92195
vt 0.44348 0.92195
vt 0.44348 0.84369
vt 0.39182 0.84369
vt 0.39182 0.92195
vt 0.44348 0.76825
vt 0.44348 0.7061
vt 0.39182 0.7061
vt 0.39182 0.76825
vt 0.07185 0.92195
vt 0.07185 0.84369
vt 0.00597 0.84369
vt 0.00597 0.92195
vt 0.2062 0.92195
vt 0.2062 0.84369
vt 0.14138 0.84369
vt 0.14138 0.92195
vt 0.2062 0.76825
vt 0.2062 0.7061
vt 0.14138 0.7061
vt 0.14138 0.76825
vt 0.79257 0.64115
vt 0.79257 0.57683
vt 0.73538 0.57683
vt 0.73538 0.64115
vt 0.9357 0.64115
vt 0.9357 0.57683
vt 0.8542 0.57683
vt 0.8542 0.64115
vt 0.9357 0.52423
vt 0.9357 0.47585
vt 0.8542 0.47585
vt 0.8542 0.52423
vt 0.79257 0.92195
vt 0.79257 0.84369
vt 0.73538 0.84369
vt 0.73538 0.92195
vt 0.9357 0.92195
vt 0.9357 0.84369
vt 0.8542 0.84369
vt 0.8542 0.92195
vt 0.9357 0.76825
vt 0.9357 0.7061
vt 0.8542 0.7061
vt 0.8542 0.76825
vt 0.55016 0.92195
vt 0.55016 0.84369
vt 0.49204 0.84369
vt 0.49204 0.92195
vt 0.6818 0.92195
vt 0.6818 0.84369
vt 0.60489 0.84369
vt 0.60489 0.92195
vt 0.6818 0.76825
vt 0.6818 0.7061
vt 0.60489 0.7061
vt 0.60489 0.76825
vt 0.79257 0.214
vt 0.79257 0.14167
vt 0.73538 0.14167
vt 0.73538 0.214
vt 0.9357 0.214
vt 0.9357 0.14167
vt 0.8542 0.14167
vt 0.8542 0.214
vt 0.9357 0.07337
vt 0.9357 0.00648
vt 0.8542 0.00648
vt 0.8542 0.07337
vt 0.79257 0.43102
vt 0.79257 0.38352
vt 0.73538 0.38352
vt 0.73538 0.43102
vt 0.9357 0.43102
vt 0.9357 0.38352
vt 0.8542 0.38352
vt 0.8542 0.43102
vt 0.9357 0.33017
vt 0.9357 0.27758
vt 0.8542 0.27758
vt 0.8542 0.33017
vt 0.55016 0.43102
vt 0.55016 0.38352
vt 0.49204 0.38352
vt 0.49204 0.43102
vt 0.6818 0.43102
vt 0.6818 0.38352
vt 0.60489 0.38352
vt 0.60489 0.43102
vt 0.6818 0.33017
vt 0.6818 0.27758
vt 0.60489 0.27758
vt 0.60489 0.33017
vt 0.55016 0.214
vt 0.55016 0.14167
vt 0.49204 0.14167
vt 0.49204 0.214
vt 0.6818 0.214
vt 0.6818 0.14167
vt 0.60489 0.14167
vt 0.60489 0.214
vt 0.6818 0.07337
vt 0.6818 0.00648
vt 0.60489 0.00648
vt 0.60489 0.07337
vt 0.55016 0.64115
vt 0.55016 0.57683
vt 0.49204 0.57683
vt 0.49204 0.64115
vt 0.6818 0.64115
vt 0.6818 0.57683
vt 0.60489 0.57683
vt 0.60489 0.64115
vt 0.6818 0.52423
vt 0.6818 0.47585
vt 0.60489 0.47585
vt 0.60489 0.52423
vt 0.07185 0.64115
vt 0.07185 0.57683
vt 0.00597 0.57683
vt 0.00597 0.64115
vt 0.2062 0.64115
vt 0.2062 0.57683
vt 0.14138 0.57683
vt 0.14138 0.64115
vt 0.2062 0.52423
vt 0.2062 0.47585
vt 0.14138 0.47585
vt 0.14138 0.52423
vt 0.07185 0.214
vt 0.07185 0.14167
vt 0.00597 0.14167
vt 0.00597 0.214
vt 0.2062 0.214
vt 0.2062 0.14167
vt 0.14138 0.14167
vt 0.14138 0.214
vt 0.2062 0.07337
vt 0.2062 0.00648
vt 0.14138 0.00648
vt 0.14138 0.07337
vt 0.99478 0.38352
vt 0.99478 0.33017
vt 0.99478 0.27758
vt 0.99478 0.47585
vt 0.99478 0.43102
vt 0.99478 0.14167
vt 0.99478 0.07337
vt 0.99478 0.00648
vt 0.99478 0.214
vt 0.6818 0.99655
vt 0.60489 0.99655
vt 0.73538 0.99655
vt 0.55016 0.99655
vt 0.49204 0.99655
vt 0.99478 0.84369
vt 0.99478 0.76825
vt 0.99478 0.7061
vt 0.9357 0.99655
vt 0.8542 0.99655
vt 0.99478 0.99655
vt 0.99478 0.92195
vt 0.79257 0.99655
vt 0.99478 0.57683
vt 0.99478 0.52423
vt 0.99478 0.64115
vt 0.2062 0.99655
vt 0.14138 0.99655
vt 0.26993 0.99655
vt 0.07185 0.99655
vt 0.00597 0.99655
vt 0.44348 0.99655
vt 0.39182 0.99655
vt 0.3322 0.99655
usemtl mat1
f 182/182/172 183/183/173 184/184/174
f 182/182/172 184/184/174 185/185/175
f 186/186/176 187/187/177 188/188/178
f 186/186/176 188/188/178 189/189/179
f 190/190/180 191/191/181 192/192/182
f 190/190/180 192/192/182 193/193/183
f 194/194/184 195/195/185 196/196/186
f 194/194/184 196/196/186 197/197/187
f 198/198/188 199/199/189 200/200/190
f 198/198/188 200/200/190 201/201/191
f 202/202/192 203/203/193 204/204/194
f 202/202/192 204/204/194 205/205/195
f 206/206/196 207/207/197 208/208/198
f 206/206/196 208/208/198 209/209/199
f 210/210/200 211/211/201 212/212/202
f 210/210/200 212/212/202 213/213/203
f 214/214/204 215/215/205 216/216/206
f 214/214/204 216/216/206 217/217/207
f 218/218/208 219/219/209 220/220/210
f 218/218/208 220/220/210 221/221/211
f 222/222/212 223/223/213 224/224/214
f 222/222/212 224/224/214 225/225/215
f 226/226/216 227/227/217 228/228/218
f 226/226/216 228/228/218 229/229/219
f 230/230/220 231/231/221 232/232/222
f 230/230/220 232/232/222 233/233/223
f 234/234/224 235/235/225 236/236/226
f 234/234/224 236/236/226 237/237/227
f 238/238/228 239/239/229 240/240/230
f 238/238/228 240/240/230 241/241/231
f 242/242/232 243/243/233 244/244/234
f 242/242/232 244/244/234 245/245/235
f 246/246/236 247/247/237 248/248/238
f 246/246/236 248/248/238 249/249/239
f 250/250/240 251/251/241 252/252/242
f 250/250/240 252/252/242 253/253/243
f 254/254/244 255/255/245 256/256/246
f 254/254/244 256/256/246 257/257/247
f 258/258/248 259/259/249 260/260/250
f 258/258/248 260/260/250 261/261/251
f 262/262/252 263/263/253 264/264/254
f 262/262/252 264/264/254 265/265/255
f 266/266/256 267/267/257 268/268/258
f 266/266/256 268/268/258 269/269/259
f 270/270/260 271/271/261 272/272/262
f 270/270/260 272/272/262 273/273/263
f 274/274/264 275/275/265 276/276/266
f 274/274/264 276/276/266 277/277/267
f 278/278/268 279/279/269 280/280/270
f 278/278/268 280/280/270 281/281/271
f 282/282/272 283/283/273 284/284/274
f 282/282/272 284/284/274 285/285/275
f 286/286/276 287/287/277 288/288/278
f 286/286/276 288/288/278 289/289/279
f 290/290/280 291/291/281 292/292/282
f 290/290/280 292/292/282 293/293/283
f 294/294/284 295/295/285 296/296/286
f 294/294/284 296/296/286 297/297/287
f 298/298/288 299/299/289 300/300/290
f 298/298/288 300/300/290 301/301/291
f 302/302/292 303/303/293 304/304/294
f 302/302/292 304/304/294 305/305/295
f 306/306/296 307/307/297 308/308/298
f 306/306/296 308/308/298 309/309/299
f 310/310/300 311/311/301 312/312/302
f 310/310/300 312/312/302 313/313/303
f 314/314/304 315/315/305 316/316/306
f 314/314/304 316/316/306 317/317/307
f 318/318/308 319/319/309 320/320/310
f 318/318/308 320/320/310 321/321/311
f 322/322/312 323/323/313 324/324/314
f 322/322/312 324/324/314 325/325/315
f 326/326/316 327/327/317 328/328/318
f 326/326/316 328/328/318 329/329/319
f 330/330/320 331/331/321 332/332/322
f 330/330/320 332/332/322 333/333/323
f 334/334/324 335/335/325 336/336/326
f 334/334/324 336/336/326 337/337/327
f 338/338/328 339/339/329 340/340/330
f 338/338/328 340/340/330 341/341/331
f 342/342/332 343/343/333 344/344/334
f 342/342/332 344/344/334 345/345/335
f 346/346/336 347/347/337 348/348/338
f 346/346/336 348/348/338 349/349/339
f 350/350/340 351/351/341 352/352/342
f 350/350/340 352/352/342 353/353/343
f 354/354/344 355/355/345 356/356/346
f 354/354/344 356/356/346 357/357/347
f 358/358/348 359/359/349 360/360/350
f 358/358/348 360/360/350 361/361/351
f 362/362/352 363/363/353 364/364/354
f 362/362/352 364/364/354 365/365/355
f 366/366/356 367/367/357 368/368/358
f 366/366/356 368/368/358 369/369/359
f 370/370/360 371/371/361 372/372/362
f 370/370/360 372/372/362 373/373/363
f 374/374/364 375/375/365 376/376/366
f 374/374/364 376/376/366 377/377/367
f 378/378/368 379/379/369 380/380/370
f 378/378/368 380/380/370 381/381/371
f 382/382/372 383/383/373 384/384/374
f 382/382/372 384/384/374 385/385/375
f 386/386/376 387/387/377 388/388/378
f 386/386/376 388/388/378 389/389/379
f 390/390/380 391/391/381 392/392/382
f 390/390/380 392/392/382 393/393/383
f 394/394/384 395/395/385 396/396/386
f 394/394/384 396/396/386 397/397/387
f 398/398/388 399/399/389 400/400/390
f 398/398/388 400/400/390 401/401/391
f 402/402/392 403/403/393 404/404/394
f 402/402/392 404/404/394 405/405/395
f 406/406/396 407/407/397 408/408/398
f 406/406/396 408/408/398 409/409/399
f 410/410/400 411/411/401 412/412/402
f 410/410/400 412/412/402 413/413/403
f 414/414/404 415/415/405 416/416/406
f 414/414/404 416/416/406 417/417/407
f 418/418/408 419/419/409 420/420/410
f 418/418/408 420/420/410 421/421/411
f 422/422/412 423/423/413 424/424/414
f 422/422/412 424/424/414 425/425/415
f 426/426/416 427/427/417 428/428/418
f 426/426/416 428/428/418 429/429/419
f 430/430/420 431/431/421 432/432/422
f 430/430/420 432/432/422 433/433/423
f 434/434/424 435/435/425 436/436/426
f 434/434/424 436/436/426 437/437/427
f 431/431/421 434/434/424 437/437/427
f 431/431/421 437/437/427 432/432/422
f 248/248/238 245/245/235 434/434/424
f 248/248/238 434/434/424 431/431/421
f 245/245/235 244/244/234 435/435/425
f 245/245/235 435/435/425 434/434/424
f 279/279/269 430/430/420 433/433/423
f 279/279/269 433/433/423 280/280/270
f 240/240/230 249/249/239 430/430/420
f 240/240/230 430/430/420 279/279/269
f 249/249/239 248/248/238 431/431/421
f 249/249/239 431/431/421 430/430/420
f 235/235/225 426/426/416 429/429/419
f 235/235/225 429/429/419 236/236/226
f 280/280/270 433/433/423 426/426/416
f 280/280/270 426/426/416 235/235/225
f 433/433/423 432/432/422 427/427/417
f 433/433/423 427/427/417 426/426/416
f 419/419/409 422/422/412 425/425/415
f 419/419/409 425/425/415 420/420/410
f 284/284/274 233/233/223 422/422/412
f 284/284/274 422/422/412 419/419/409
f 233/233/223 232/232/222 423/423/413
f 233/233/223 423/423/413 422/422/412
f 315/315/305 418/418/408 421/421/411
f 315/315/305 421/421/411 316/316/306
f 228/228/218 285/285/275 418/418/408
f 228/228/218 418/418/408 315/315/305
f 285/285/275 284/284/274 419/419/409
f 285/285/275 419/419/409 418/418/408
f 223/223/213 414/414/404 417/417/407
f 223/223/213 417/417/407 224/224/214
f 316/316/306 421/421/411 414/414/404
f 316/316/306 414/414/404 223/223/213
f 421/421/411 420/420/410 415/415/405
f 421/421/411 415/415/405 414/414/404
f 407/407/397 410/410/400 413/413/403
f 407/407/397 413/413/403 408/408/398
f 320/320/310 221/221/211 410/410/400
f 320/320/310 410/410/400 407/407/397
f 221/221/211 220/220/210 411/411/401
f 221/221/211 411/411/401 410/410/400
f 351/351/341 406/406/396 409/409/399
f 351/351/341 409/409/399 352/352/342
f 216/216/206 321/321/311 406/406/396
f 216/216/206 406/406/396 351/351/341
f 321/321/311 320/320/310 407/407/397
f 321/321/311 407/407/397 406/406/396
f 211/211/201 402/402/392 405/405/395
f 211/211/201 405/405/395 212/212/202
f 352/352/342 409/409/399 402/402/392
f 352/352/342 402/402/392 211/211/201
f 409/409/399 408/408/398 403/403/393
f 409/409/399 403/403/393 402/402/392
f 395/395/385 398/398/388 401/401/391
f 395/395/385 401/401/391 396/396/386
f 356/356/346 209/209/199 398/398/388
f 356/356/346 398/398/388 395/395/385
f 209/209/199 208/208/198 399/399/389
f 209/209/199 399/399/389 398/398/388
f 387/387/377 394/394/384 397/397/387
f 387/387/377 397/397/387 388/388/378
f 204/204/194 357/357/347 394/394/384
f 204/204/194 394/394/384 387/387/377
f 357/357/347 356/356/346 395/395/385
f 357/357/347 395/395/385 394/394/384
f 199/199/189 390/390/380 393/393/383
f 199/199/189 393/393/383 200/200/190
f 388/388/378 397/397/387 390/390/380
f 388/388/378 390/390/380 199/199/189
f 397/397/387 396/396/386 391/391/381
f 397/397/387 391/391/381 390/390/380
f 383/383/373 386/386/376 389/389/379
f 383/383/373 389/389/379 384/384/374
f 368/368/358 205/205/195 386/386/376
f 368/368/358 386/386/376 383/383/373
f 205/205/195 204/204/194 387/387/377
f 205/205/195 387/387/377 386/386/376
f 411/411/401 382/382/372 385/385/375
f 411/411/401 385/385/375 412/412/402
f 220/220/210 369/369/359 382/382/372
f 220/220/210 382/382/372 411/411/401
f 369/369/359 368/368/358 383/383/373
f 369/369/359 383/383/373 382/382/372
f 191/191/181 378/378/368 381/381/371
f 191/191/181 381/381/371 192/192/182
f 412/412/402 385/385/375 378/378/368
f 412/412/402 378/378/368 191/191/181
f 385/385/375 384/384/374 379/379/369
f 385/385/375 379/379/369 378/378/368
f 371/371/361 374/374/364 377/377/367
f 371/371/361 377/377/367 372/372/362
f 438/438/428 439/439/429 374/374/364
f 438/438/428 374/374/364 371/371/361
f 439/439/429 440/440/430 375/375/365
f 439/439/429 375/375/365 374/374/364
f 327/327/317 370/370/360 373/373/363
f 327/327/317 373/373/363 328/328/318
f 441/441/431 442/442/432 370/370/360
f 441/441/431 370/370/360 327/327/317
f 442/442/432 438/438/428 371/371/361
f 442/442/432 371/371/361 370/370/360
f 219/219/209 366/366/356 369/369/359
f 219/219/209 369/369/359 220/220/210
f 328/328/318 373/373/363 366/366/356
f 328/328/318 366/366/356 219/219/209
f 373/373/363 372/372/362 367/367/357
f 373/373/363 367/367/357 366/366/356
f 359/359/349 362/362/352 365/365/355
f 359/359/349 365/365/355 360/360/350
f 443/443/433 444/444/434 362/362/352
f 443/443/433 362/362/352 359/359/349
f 444/444/434 445/445/435 363/363/353
f 444/444/434 363/363/353 362/362/352
f 375/375/365 358/358/348 361/361/351
f 375/375/365 361/361/351 376/376/366
f 440/440/430 446/446/436 358/358/348
f 440/440/430 358/358/348 375/375/365
f 446/446/436 443/443/433 359/359/349
f 446/446/436 359/359/349 358/358/348
f 203/203/193 354/354/344 357/357/347
f 203/203/193 357/357/347 204/204/194
f 376/376/366 361/361/351 354/354/344
f 376/376/366 354/354/344 203/203/193
f 361/361/351 360/360/350 355/355/345
f 361/361/351 355/355/345 354/354/344
f 347/347/337 350/350/340 353/353/343
f 347/347/337 353/353/343 348/348/338
f 332/332/322 217/217/207 350/350/340
f 332/332/322 350/350/340 347/347/337
f 217/217/207 216/216/206 351/351/341
f 217/217/207 351/351/341 350/350/340
f 447/447/437 346/346/336 349/349/339
f 447/447/437 349/349/339 448/448/438
f 449/449/439 333/333/323 346/346/336
f 449/449/439 346/346/336 447/447/437
f 333/333/323 332/332/322 347/347/337
f 333/333/323 347/347/337 346/346/336
f 450/450/440 342/342/332 345/345/335
f 450/450/440 345/345/335 451/451/441
f 448/448/438 349/349/339 342/342/332
f 448/448/438 342/342/332 450/450/440
f 349/349/339 348/348/338 343/343/333
f 349/349/339 343/343/333 342/342/332
f 335/335/325 338/338/328 341/341/331
f 335/335/325 341/341/331 336/336/326
f 452/452/442 453/453/443 338/338/328
f 452/452/442 338/338/328 335/335/325
f 453/453/443 454/454/444 339/339/329
f 453/453/443 339/339/329 338/338/328
f 455/455/445 334/334/324 337/337/327
f 455/455/445 337/337/327 456/456/446
f 457/457/447 458/458/448 334/334/324
f 457/457/447 334/334/324 455/455/445
f 458/458/448 452/452/442 335/335/325
f 458/458/448 335/335/325 334/334/324
f 459/459/449 330/330/320 333/333/323
f 459/459/449 333/333/323 449/449/439
f 456/456/446 337/337/327 330/330/320
f 456/456/446 330/330/320 459/459/449
f 337/337/327 336/336/326 331/331/321
f 337/337/327 331/331/321 330/330/320
f 323/323/313 326/326/316 329/329/319
f 323/323/313 329/329/319 324/324/314
f 460/460/450 461/461/451 326/326/316
f 460/460/450 326/326/316 323/323/313
f 461/461/451 441/441/431 327/327/317
f 461/461/451 327/327/317 326/326/316
f 339/339/329 322/322/312 325/325/315
f 339/339/329 325/325/315 340/340/330
f 454/454/444 462/462/452 322/322/312
f 454/454/444 322/322/312 339/339/329
f 462/462/452 460/460/450 323/323/313
f 462/462/452 323/323/313 322/322/312
f 215/215/205 318/318/308 321/321/311
f 215/215/205 321/321/311 216/216/206
f 340/340/330 325/325/315 318/318/308
f 340/340/330 318/318/308 215/215/205
f 325/325/315 324/324/314 319/319/309
f 325/325/315 319/319/309 318/318/308
f 311/311/301 314/314/304 317/317/307
f 311/311/301 317/317/307 312/312/302
f 296/296/286 229/229/219 314/314/304
f 296/296/286 314/314/304 311/311/301
f 229/229/219 228/228/218 315/315/305
f 229/229/219 315/315/305 314/314/304
f 463/463/453 310/310/300 313/313/303
f 463/463/453 313/313/303 464/464/454
f 465/465/455 297/297/287 310/310/300
f 465/465/455 310/310/300 463/463/453
f 297/297/287 296/296/286 311/311/301
f 297/297/287 311/311/301 310/310/300
f 466/466/456 306/306/296 309/309/299
f 466/466/456 309/309/299 467/467/457
f 464/464/454 313/313/303 306/306/296
f 464/464/454 306/306/296 466/466/456
f 313/313/303 312/312/302 307/307/297
f 313/313/303 307/307/297 306/306/296
f 299/299/289 302/302/292 305/305/295
f 299/299/289 305/305/295 300/300/290
f 344/344/334 213/213/203 302/302/292
f 344/344/334 302/302/292 299/299/289
f 213/213/203 212/212/202 303/303/293
f 213/213/203 303/303/293 302/302/292
f 468/468/458 298/298/288 301/301/291
f 468/468/458 301/301/291 469/469/459
f 451/451/441 345/345/335 298/298/288
f 451/451/441 298/298/288 468/468/458
f 345/345/335 344/344/334 299/299/289
f 345/345/335 299/299/289 298/298/288
f 470/470/460 294/294/284 297/297/287
f 470/470/460 297/297/287 465/465/455
f 469/469/459 301/301/291 294/294/284
f 469/469/459 294/294/284 470/470/460
f 301/301/291 300/300/290 295/295/285
f 301/301/291 295/295/285 294/294/284
f 287/287/277 290/290/280 293/293/283
f 287/287/277 293/293/283 288/288/278
f 404/404/394 193/193/183 290/290/280
f 404/404/394 290/290/280 287/287/277
f 193/193/183 192/192/182 291/291/281
f 193/193/183 291/291/281 290/290/280
f 303/303/293 286/286/276 289/289/279
f 303/303/293 289/289/279 304/304/294
f 212/212/202 405/405/395 286/286/276
f 212/212/202 286/286/276 303/303/293
f 405/405/395 404/404/394 287/287/277
f 405/405/395 287/287/277 286/286/276
f 227/227/217 282/282/272 285/285/275
f 227/227/217 285/285/275 228/228/218
f 304/304/294 289/289/279 282/282/272
f 304/304/294 282/282/272 227/227/217
f 289/289/279 288/288/278 283/283/273
f 289/289/279 283/283/273 282/282/272
f 275/275/265 278/278/268 281/281/271
f 275/275/265 281/281/271 276/276/266
f 260/260/250 241/241/231 278/278/268
f 260/260/250 278/278/268 275/275/265
f 241/241/231 240/240/230 279/279/269
f 241/241/231 279/279/269 278/278/268
f 423/423/413 274/274/264 277/277/267
f 423/423/413 277/277/267 424/424/414
f 232/232/222 261/261/251 274/274/264
f 232/232/222 274/274/264 423/423/413
f 261/261/251 260/260/250 275/275/265
f 261/261/251 275/275/265 274/274/264
f 187/187/177 270/270/260 273/273/263
f 187/187/177 273/273/263 188/188/178
f 424/424/414 277/277/267 270/270/260
f 424/424/414 270/270/260 187/187/177
f 277/277/267 276/276/266 271/271/261
f 277/277/267 271/271/261 270/270/260
f 263/263/253 266/266/256 269/269/259
f 263/263/253 269/269/259 264/264/254
f 380/380/370 201/201/191 266/266/256
f 380/380/370 266/266/256 263/263/253
f 201/201/191 200/200/190 267/267/257
f 201/201/191 267/267/257 266/266/256
f 291/291/281 262/262/252 265/265/255
f 291/291/281 265/265/255 292/292/282
f 192/192/182 381/381/371 262/262/252
f 192/192/182 262/262/252 291/291/281
f 381/381/371 380/380/370 263/263/253
f 381/381/371 263/263/253 262/262/252
f 231/231/221 258/258/248 261/261/251
f 231/231/221 261/261/251 232/232/222
f 292/292/282 265/265/255 258/258/248
f 292/292/282 258/258/248 231/231/221
f 265/265/255 264/264/254 259/259/249
f 265/265/255 259/259/249 258/258/248
f 251/251/241 254/254/244 257/257/247
f 251/251/241 257/257/247 252/252/242
f 392/392/382 197/197/187 254/254/244
f 392/392/382 254/254/244 251/251/241
f 197/197/187 196/196/186 255/255/245
f 197/197/187 255/255/245 254/254/244
f 267/267/257 250/250/240 253/253/243
f 267/267/257 253/253/243 268/268/258
f 200/200/190 393/393/383 250/250/240
f 200/200/190 250/250/240 267/267/257
f 393/393/383 392/392/382 251/251/241
f 393/393/383 251/251/241 250/250/240
f 239/239/229 246/246/236 249/249/239
f 239/239/229 249/249/239 240/240/230
f 268/268/258 253/253/243 246/246/236
f 268/268/258 246/246/236 239/239/229
f 253/253/243 252/252/242 247/247/237
f 253/253/243 247/247/237 246/246/236
f 247/247/237 242/242/232 245/245/235
f 247/247/237 245/245/235 248/248/238
f 252/252/242 257/257/247 242/242/232
f 252/252/242 242/242/232 247/247/237
f 257/257/247 256/256/246 243/243/233
f 257/257/247 243/243/233 242/242/232
f 259/259/249 238/238/228 241/241/231
f 259/259/249 241/241/231 260/260/250
f 264/264/254 269/269/259 238/238/228
f 264/264/254 238/238/228 259/259/249
f 269/269/259 268/268/258 239/239/229
f 269/269/259 239/239/229 238/238/228
f 271/271/261 234/234/224 237/237/227
f 271/271/261 237/237/227 272/272/262
f 276/276/266 281/281/271 234/234/224
f 276/276/266 234/234/224 271/271/261
f 281/281/271 280/280/270 235/235/225
f 281/281/271 235/235/225 234/234/224
f 283/283/273 230/230/220 233/233/223
f 283/283/273 233/233/223 284/284/274
f 288/288/278 293/293/283 230/230/220
f 288/288/278 230/230/220 283/283/273
f 293/293/283 292/292/282 231/231/221
f 293/293/283 231/231/221 230/230/220
f 295/295/285 226/226/216 229/229/219
f 295/295/285 229/229/219 296/296/286
f 300/300/290 305/305/295 226/226/216
f 300/300/290 226/226/216 295/295/285
f 305/305/295 304/304/294 227/227/217
f 305/305/295 227/227/217 226/226/216
f 307/307/297 222/222/212 225/225/215
f 307/307/297 225/225/215 308/308/298
f 312/312/302 317/317/307 222/222/212
f 312/312/302 222/222/212 307/307/297
f 317/317/307 316/316/306 223/223/213
f 317/317/307 223/223/213 222/222/212
f 319/319/309 218/218/208 221/221/211
f 319/319/309 221/221/211 320/320/310
f 324/324/314 329/329/319 218/218/208
f 324/324/314 218/218/208 319/319/309
f 329/329/319 328/328/318 219/219/209
f 329/329/319 219/219/209 218/218/208
f 331/331/321 214/214/204 217/217/207
f 331/331/321 217/217/207 332/332/322
f 336/336/326 341/341/331 214/214/204
f 336/336/326 214/214/204 331/331/321
f 341/341/331 340/340/330 215/215/205
f 341/341/331 215/215/205 214/214/204
f 343/343/333 210/210/200 213/213/203
f 343/343/333 213/213/203 344/344/334
f 348/348/338 353/353/343 210/210/200
f 348/348/338 210/210/200 343/343/333
f 353/353/343 352/352/342 211/211/201
f 353/353/343 211/211/201 210/210/200
f 355/355/345 206/206/196 209/209/199
f 355/355/345 209/209/199 356/356/346
f 360/360/350 365/365/355 206/206/196
f 360/360/350 206/206/196 355/355/345
f 365/365/355 364/364/354 207/207/197
f 365/365/355 207/207/197 206/206/196
f 367/367/357 202/202/192 205/205/195
f 367/367/357 205/205/195 368/368/358
f 372/372/362 377/377/367 202/202/192
f 372/372/362 202/202/192 367/367/357
f 377/377/367 376/376/366 203/203/193
f 377/377/367 203/203/193 202/202/192
f 379/379/369 198/198/188 201/201/191
f 379/379/369 201/201/191 380/380/370
f 384/384/374 389/389/379 198/198/188
f 384/384/374 198/198/188 379/379/369
f 389/389/379 388/388/378 199/199/189
f 389/389/379 199/199/189 198/198/188
f 391/391/381 194/194/184 197/197/187
f 391/391/381 197/197/187 392/392/382
f 396/396/386 401/401/391 194/194/184
f 396/396/386 194/194/184 391/391/381
f 401/401/391 400/400/390 195/195/185
f 401/401/391 195/195/185 194/194/184
f 403/403/393 190/190/180 193/193/183
f 403/403/393 193/193/183 404/404/394
f 408/408/398 413/413/403 190/190/180
f 408/408/398 190/190/180 403/403/393
f 413/413/403 412/412/402 191/191/181
f 413/413/403 191/191/181 190/190/180
f 415/415/405 186/186/176 189/189/179
f 415/415/405 189/189/179 416/416/406
f 420/420/410 425/425/415 186/186/176
f 420/420/410 186/186/176 415/415/405
f 425/425/415 424/424/414 187/187/177
f 425/425/415 187/187/177 186/186/176
f 427/427/417 182/182/172 185/185/175
f 427/427/417 185/185/175 428/428/418
f 432/432/422 437/437/427 182/182/172
f 432/432/422 182/182/172 427/427/417
f 437/437/427 436/436/426 183/183/173
f 437/437/427 183/183/173 182/182/172
# Vertices: 289, normals: 289, texture coordinates: 289, faces: 512

