# File generated by ImageToStl.com - Free Image and 3D model conversion tools

mtllib bath.mtl

o obj1
v -2.54463264 1.76587368 3.66967939
v -3.28612609 1.7658735 4.24734696
v -2.08676442 1.76587379 4.70521506
v -9.5623432 1.76587201 4.24734696
v -10.13910365 1.76587187 3.66903891
v -10.53771889 1.76587177 4.66409321
v -3.28612649 1.7658735 0.91793977
v -2.54463289 1.76587376 1.49560734
v -2.08676492 1.76587379 0.46007152
v -10.13910391 1.76587187 1.49624782
v -9.5623436 1.76587201 0.91793977
v -10.53771939 1.76587177 0.50119352
v -4.32872804 0.47948155 4.15091317
v -3.69021315 0.35242367 3.56372076
v -4.63033603 -0.10813886 3.4736607
v -9.75362067 -0.15030907 3.47127787
v -10.11903726 0.48102337 3.57272064
v -9.54225309 0.47948026 4.15091317
v -9.7536212 -0.15030907 1.69400932
v -9.54225346 0.4794803 1.01437387
v -10.1190375 0.48102333 1.59256633
v -4.63033625 -0.10813886 1.69162648
v -3.69021338 0.35242375 1.60156623
v -4.32872842 0.47948156 1.01437387
v -10.57705203 -0.6220212 0.4600718
v -10.57705232 1.76587176 0.46007152
v -2.08676492 1.76587379 0.46007152
v -2.08676464 -0.62201917 0.4600718
v -2.08676464 -0.62201917 0.4600718
v -2.08676492 1.76587379 0.46007152
v -2.08676442 1.76587379 4.70521506
v -2.08676413 -0.62201917 4.7052155
v -8.75488366 -0.19780356 2.91872624
v -9.44422923 -0.19780372 2.91872624
v -2.54463264 1.76587368 3.66967939
v -2.54463289 1.76587376 1.49560734
v -3.69021338 0.35242375 1.60156623
v -3.69021315 0.35242367 3.56372076
v -3.28612649 1.7658735 0.91793977
v -9.5623436 1.76587201 0.91793977
v -9.54225346 0.4794803 1.01437387
v -4.32872842 0.47948156 1.01437387
v -10.13910391 1.76587187 1.49624782
v -10.13910365 1.76587187 3.66903891
v -10.11903726 0.48102337 3.57272064
v -10.1190375 0.48102333 1.59256633
v -9.44422931 -0.19780372 2.24656096
v -8.75488374 -0.19780356 2.24656096
v -4.32872804 0.47948155 4.15091317
v -3.28612609 1.7658735 4.24734696
v -9.5623432 1.76587201 4.24734696
v -9.54225309 0.47948026 4.15091317
v -10.57705232 1.76587176 0.46007152
v -10.57705181 1.76587176 4.70521521
vn 0 0 1
vn 0.84721 0.2004 0.49201
vn 0.3316 0.5907 0.7356
vn 0.31581 0.19131 0.92934
vn 0.34141 -0.45772 0.82093
vn 0.35481 -0.89483 0.27091
vn 0.8661 -0.3244 0.3803
vn -0.34141 -0.45772 0.82093
vn -0.8661 -0.3244 0.3803
vn -0.35481 -0.89483 0.27091
vn -0.31581 0.19131 0.92934
vn -0.3316 0.5907 0.7356
vn -0.84721 0.2004 0.49201
vn 1 0 0
vn 0 -1 0
vn 0.0469 0.0091 0.99886
vn 0.0327 -0.0614 0.99758
vn 0.31071 0.72692 0.61241
vn -0.31071 0.72692 0.61241
vn -0.33161 0.59081 0.73551
vn 0.33161 0.59081 0.73551
vn -0.8326 0.3981 0.3851
vn -0.9223 -0.3791 0.0751
vn -0.86608 -0.32449 0.38029
vn -0.84725 0.20041 0.49193
vn -0.39559 -0.91737 0.044
vn 0.39559 -0.91737 0.044
vn 0.35479 -0.89487 0.27079
vn -0.35479 -0.89487 0.27079
vn -0.0328 -0.0614 0.99757
vn -0.0472 0.0093 0.99884
vn 0.84725 0.20041 0.49193
vn 0.8326 0.3981 0.3851
vn 0.9223 -0.3791 0.0751
vn 0.86608 -0.32449 0.38029
vt 0.94029 0.23869
vt 0.85373 0.28136
vt 0.99375 0.31518
vt 0.12103 0.28136
vt 0.05369 0.23865
vt 0.00716 0.31214
vt 0.85373 0.03544
vt 0.94029 0.07811
vt 0.99375 0.00162
vt 0.05369 0.07816
vt 0.12103 0.03544
vt 0.00716 0.00466
vt 0.82488 0.2721
vt 0.90849 0.22839
vt 0.77482 0.2171
vt 0.17963 0.21097
vt 0.08563 0.22615
vt 0.17056 0.2721
vt 0.17392 0.11077
vt 0.16886 0.05179
vt 0.08852 0.09457
vt 0.77098 0.10448
vt 0.90915 0.09371
vt 0.82281 0.04862
vt 0.95621 0.35111
vt 0.67744 0.35111
vt 0.67744 0.97822
vt 0.95621 0.97822
vt 0.4559 0.48284
vt 0.18474 0.48284
vt 0.18474 0.78784
vt 0.4559 0.78784
vt 0.29243 0.18027
vt 0.21393 0.18051
vt 0.12957 0.98208
vt 0.50007 0.98909
vt 0.41881 0.82576
vt 0.21444 0.83253
vt 0.61538 0.90652
vt 0.61538 0.40665
vt 0.46381 0.46721
vt 0.48247 0.78167
vt 0.51151 0.33719
vt 0.12823 0.32771
vt 0.23448 0.43919
vt 0.40579 0.43217
vt 0.21244 0.14252
vt 0.29132 0.14166
vt 0.15241 0.7887
vt 0.0245 0.90546
vt 0.01105 0.4058
vt 0.17286 0.47648
vt 0.00257 0.00162
vt 0.00257 0.31518
usemtl mat0
f 1/1/1 2/2/1 3/3/1
f 4/4/1 5/5/1 6/6/1
f 7/7/1 8/8/1 9/9/1
f 10/10/1 11/11/1 12/12/1
f 13/13/2 14/14/3 15/15/4
f 16/16/5 17/17/6 18/18/7
f 19/19/8 20/20/9 21/21/10
f 22/22/11 23/23/12 24/24/13
f 25/25/14 26/26/14 27/27/14
f 25/25/14 27/27/14 28/28/14
f 29/29/15 30/30/15 31/31/15
f 29/29/15 31/31/15 32/32/15
f 33/33/16 34/34/17 16/16/5
f 33/33/16 16/16/5 15/15/4
f 35/35/18 36/36/19 37/37/20
f 35/35/18 37/37/20 38/38/21
f 39/39/22 40/40/23 41/41/24
f 39/39/22 41/41/24 42/42/25
f 43/43/26 44/44/27 45/45/28
f 43/43/26 45/45/28 46/46/29
f 47/47/30 34/34/17 33/33/16
f 47/47/30 33/33/16 48/48/31
f 9/9/1 8/8/1 1/1/1
f 9/9/1 1/1/1 3/3/1
f 48/48/31 33/33/16 15/15/4
f 48/48/31 15/15/4 22/22/11
f 47/47/30 48/48/31 22/22/11
f 47/47/30 22/22/11 19/19/8
f 34/34/17 47/47/30 19/19/8
f 34/34/17 19/19/8 16/16/5
f 15/15/4 16/16/5 18/18/7
f 15/15/4 18/18/7 13/13/2
f 16/16/5 19/19/8 21/21/10
f 16/16/5 21/21/10 17/17/6
f 19/19/8 22/22/11 24/24/13
f 19/19/8 24/24/13 20/20/9
f 22/22/11 15/15/4 14/14/3
f 22/22/11 14/14/3 23/23/12
f 43/43/26 46/46/29 41/41/24
f 43/43/26 41/41/24 40/40/23
f 37/37/20 36/36/19 39/39/22
f 37/37/20 39/39/22 42/42/25
f 35/35/18 38/38/21 49/49/32
f 35/35/18 49/49/32 50/50/33
f 45/45/28 44/44/27 51/51/34
f 45/45/28 51/51/34 52/52/35
f 51/51/34 50/50/33 49/49/32
f 51/51/34 49/49/32 52/52/35
f 9/9/1 11/11/1 7/7/1
f 11/11/1 9/9/1 12/12/1
f 12/12/1 9/9/1 53/53/1
f 3/3/1 6/6/1 54/54/1
f 6/6/1 3/3/1 2/2/1
f 6/6/1 2/2/1 4/4/1
f 6/6/1 53/53/1 54/54/1
f 53/53/1 6/6/1 5/5/1
f 53/53/1 5/5/1 10/10/1
f 53/53/1 10/10/1 12/12/1
# Vertices: 54, normals: 35, texture coordinates: 54, faces: 58

o obj2
v -10.32436285 1.78192571 0.56837835
v -10.32436285 1.78192571 0.54181985
v -10.32436374 9.23657591 0.54181896
v -10.32436374 9.23657591 0.56837746
v -7.63956201 1.78192635 0.56837835
v -7.63956202 1.78192635 0.54181985
v -7.6395629 9.23657655 0.54181896
v -7.6395629 9.23657655 0.56837746
v -4.9547621 1.78192699 0.56837835
v -4.95476211 1.78192699 0.54181985
v -4.954763 9.23657719 0.54181896
v -4.95476299 9.23657719 0.56837746
v -10.40221963 1.78192569 0.56837835
v -10.40222052 9.23657589 0.56837746
v -10.40222053 9.23657589 0.54181896
v -10.40221964 1.78192569 0.54181985
v -7.7174188 1.78192633 0.56837835
v -7.71741969 9.23657653 0.56837746
v -7.71741969 9.23657653 0.54181896
v -7.7174188 1.78192633 0.54181985
v -5.03261889 1.78192697 0.56837835
v -5.03261978 9.23657717 0.56837746
v -5.03261978 9.23657717 0.54181896
v -5.03261889 1.78192697 0.54181985
vn 0 -1 0
vn 0 1 0
vn 0 0 1
vn 0 0 -1
vn 1 0 0
vn -1 0 0
vt 0.375 0.75
vt 0.375 0.5
vt 0.625 0.5
vt 0.625 0.75
usemtl mat1
f 55/55/36 56/56/36 57/57/36
f 55/55/36 57/57/36 58/58/36
f 59/55/36 60/56/36 61/57/36
f 59/55/36 61/57/36 62/58/36
f 63/55/36 64/56/36 65/57/36
f 63/55/36 65/57/36 66/58/36
f 67/55/37 68/58/37 69/57/37
f 67/55/37 69/57/37 70/56/37
f 71/55/37 72/58/37 73/57/37
f 71/55/37 73/57/37 74/56/37
f 75/55/37 76/58/37 77/57/37
f 75/55/37 77/57/37 78/56/37
f 58/58/38 57/57/38 69/57/38
f 58/58/38 69/57/38 68/58/38
f 64/56/39 63/55/39 75/55/39
f 64/56/39 75/55/39 78/56/39
f 62/58/38 61/57/38 73/57/38
f 62/58/38 73/57/38 72/58/38
f 57/57/40 56/56/40 70/56/40
f 57/57/40 70/56/40 69/57/40
f 66/58/38 65/57/38 77/57/38
f 66/58/38 77/57/38 76/58/38
f 55/55/41 58/58/41 68/58/41
f 55/55/41 68/58/41 67/55/41
f 61/57/40 60/56/40 74/56/40
f 61/57/40 74/56/40 73/57/40
f 59/55/41 62/58/41 72/58/41
f 59/55/41 72/58/41 71/55/41
f 65/57/40 64/56/40 78/56/40
f 65/57/40 78/56/40 77/57/40
f 56/56/39 55/55/39 67/55/39
f 56/56/39 67/55/39 70/56/39
f 63/55/41 66/58/41 76/58/41
f 63/55/41 76/58/41 75/55/41
f 60/56/39 59/55/39 71/55/39
f 60/56/39 71/55/39 74/56/39
# Vertices: 24, normals: 6, texture coordinates: 4, faces: 36

o obj3
v -7.71741911 1.79475148 0.56660978
v -7.71742 9.22375106 0.5666089
v -10.32436376 9.22375044 0.5666089
v -10.32436287 1.79475086 0.56660978
v -10.32436376 9.22375044 0.54358752
v -10.32436287 1.79475086 0.54358841
v -7.71742 9.22375106 0.54358752
v -7.71741912 1.79475148 0.54358841
v -7.71742 9.22375106 0.5666089
v -7.71741911 1.79475148 0.56660978
v -10.32436287 1.79475086 0.56660978
v -7.71741911 1.79475148 0.56660978
v -10.32436376 9.22375044 0.5666089
v -7.71742 9.22375106 0.5666089
v -5.03261889 1.79475212 0.56660978
v -5.03261978 9.2237517 0.5666089
v -7.6395629 9.22375108 0.5666089
v -7.63956201 1.7947515 0.56660978
v -7.6395629 9.22375108 0.54358752
v -7.63956202 1.7947515 0.54358841
v -5.03261978 9.2237517 0.54358752
v -5.03261889 1.79475212 0.54358841
v -5.03261978 9.2237517 0.5666089
v -5.03261889 1.79475212 0.56660978
v -7.63956201 1.7947515 0.56660978
v -5.03261889 1.79475212 0.56660978
v -7.6395629 9.22375108 0.5666089
v -5.03261978 9.2237517 0.5666089
v -4.95476299 9.22375172 0.54358752
v -4.95476299 9.22375172 0.5666089
v -4.75761445 9.22375177 0.5666089
v -4.75761445 9.22375177 0.54358752
v -4.95476211 1.79475214 0.56660978
v -4.95476299 9.22375172 0.5666089
v -4.95476211 1.79475214 0.54358841
v -4.95476211 1.79475214 0.56660978
v -2.34781835 1.79475276 0.54358841
v -2.34781835 1.79475276 0.56660978
v -4.13391315 9.14164044 0.56660891
v -4.13391315 9.14163981 0.54358753
v -3.55271649 8.90090066 0.56660894
v -3.55271649 8.90090066 0.54358756
v -3.0536313 8.51793952 0.56660898
v -3.0536313 8.51793952 0.54358761
v -3.0536313 8.51793952 0.56660898
v -2.67066991 8.01885487 0.56660904
v -2.67066991 8.01885487 0.54358767
v -2.42992988 7.4376584 0.56660911
v -2.42992988 7.43765825 0.54358773
v -2.34781895 6.8139574 0.56660919
v -2.34781895 6.81395772 0.54358781
v -2.34781835 1.79475276 0.56660978
v -2.42992988 7.4376584 0.56660911
v -2.34781835 1.79475276 0.56660978
v -2.34781895 6.8139574 0.56660919
v -2.67066991 8.01885487 0.56660904
v -3.0536313 8.51793952 0.56660898
v -3.55271649 8.90090066 0.56660894
v -4.13391315 9.14164044 0.56660891
v -4.75761445 9.22375177 0.5666089
v -2.42992988 7.43765825 0.54358773
v -2.67066991 8.01885487 0.54358767
v -3.0536313 8.51793952 0.54358761
v -3.55271649 8.90090066 0.54358756
v -4.13391315 9.14163981 0.54358753
vn -1 0 0
vn 0 1 0
vn 1 0 0
vn 0 -1 0
vn 0 0 -1
vn 0 0 1
vn 0 -0.0654 0.99786
vn 0 -0.25881 0.96593
vn 0 -0.50001 0.86602
vn 0 -0.70711 0.70711
vn 0 -0.86602 0.50001
vn 0 -0.96593 0.25881
vn 0 -0.99786 0.0654
vt 0.375 1
vt 0.625 1
vt 0.625 0.75
vt 0.375 0.75
vt 0.625 0.5
vt 0.375 0.5
vt 0.625 0.25
vt 0.375 0.25
vt 0.625 0
vt 0.375 0
vt 0.125 0.5
vt 0.125 0.25
vt 0.875 0.5
vt 0.875 0.25
vt 0.875 0.47664
vt 0.625 0.47664
vt 0.875 0.41798
vt 0.625 0.41798
vt 0.875 0.36332
vt 0.625 0.36332
vt 0.58445 0
vt 0.58445 0.25
vt 0.56489 0
vt 0.56489 0.25
vt 0.54391 0
vt 0.54391 0.25
vt 0.56489 0.99228
vt 0.54391 1
vt 0.58445 0.96964
vt 0.60125 0.93362
vt 0.61414 0.88668
vt 0.62224 0.83202
vt 0.625 0.77336
vt 0.56489 0.25772
vt 0.58445 0.28036
vt 0.60125 0.31638
vt 0.61414 0.36332
vt 0.62224 0.41798
usemtl mat2
f 79/59/42 80/60/42 81/61/42
f 79/59/42 81/61/42 82/62/42
f 82/62/43 81/61/43 83/63/43
f 82/62/43 83/63/43 84/64/43
f 84/64/44 83/63/44 85/65/44
f 84/64/44 85/65/44 86/66/44
f 86/66/45 85/65/45 87/67/45
f 86/66/45 87/67/45 88/68/45
f 89/69/46 84/64/46 86/66/46
f 89/69/46 86/66/46 90/70/46
f 83/63/47 91/71/47 92/72/47
f 83/63/47 92/72/47 85/65/47
f 93/59/42 94/60/42 95/61/42
f 93/59/42 95/61/42 96/62/42
f 96/62/43 95/61/43 97/63/43
f 96/62/43 97/63/43 98/64/43
f 98/64/44 97/63/44 99/65/44
f 98/64/44 99/65/44 100/66/44
f 100/66/45 99/65/45 101/67/45
f 100/66/45 101/67/45 102/68/45
f 103/69/46 98/64/46 100/66/46
f 103/69/46 100/66/46 104/70/46
f 97/63/47 105/71/47 106/72/47
f 97/63/47 106/72/47 99/65/47
f 107/63/47 108/71/47 109/73/48
f 107/63/47 109/73/48 110/74/48
f 111/62/43 112/61/43 107/63/43
f 111/62/43 107/63/43 113/64/43
f 114/69/46 113/64/46 115/66/46
f 114/69/46 115/66/46 116/70/46
f 110/74/48 109/73/48 117/75/49
f 110/74/48 117/75/49 118/76/49
f 118/76/49 117/75/49 119/77/50
f 118/76/49 119/77/50 120/78/50
f 120/78/50 119/77/50 121/72/51
f 120/78/50 121/72/51 122/65/51
f 122/65/51 123/67/51 124/79/52
f 122/65/51 124/79/52 125/80/52
f 125/80/52 124/79/52 126/81/53
f 125/80/52 126/81/53 127/82/53
f 127/82/53 126/81/53 128/83/54
f 127/82/53 128/83/54 129/84/54
f 115/66/45 129/84/54 128/83/54
f 115/66/45 128/83/54 130/68/45
f 131/85/42 132/59/42 133/86/42
f 132/59/42 131/85/42 111/62/42
f 111/62/42 131/85/42 134/87/42
f 111/62/42 134/87/42 135/88/42
f 111/62/42 135/88/42 136/89/42
f 111/62/42 136/89/42 137/90/42
f 111/62/42 137/90/42 138/91/42
f 111/62/42 138/91/42 112/61/42
f 113/64/44 129/84/44 115/66/44
f 129/84/44 113/64/44 139/92/44
f 139/92/44 113/64/44 140/93/44
f 140/93/44 113/64/44 141/94/44
f 141/94/44 113/64/44 142/95/44
f 142/95/44 113/64/44 143/96/44
f 143/96/44 113/64/44 110/74/44
f 110/74/44 113/64/44 107/63/44
# Vertices: 65, normals: 13, texture coordinates: 38, faces: 60

o obj4
v -9.97231784 5.9637199 2.34578351
v -9.97231335 6.5306707 2.34577613
v -9.9504297 6.53067069 2.30989946
v -9.95042934 5.96371989 2.30989889
v -9.85332585 6.5306707 2.41835476
v -9.83144221 6.53067069 2.38247809
v -9.76650017 6.68155219 2.43623793
v -9.7747653 6.65264504 2.51671619
v -9.81185823 6.68364619 2.37672929
v -9.95428111 6.68364619 2.28985582
v -9.95914511 6.88883777 2.28435741
v -9.8047434 6.88883777 2.3785376
v -9.84425062 6.53067069 2.35710221
v -9.92200542 6.53067069 2.30967423
v -9.92208293 5.96371989 2.30962705
v -9.92200542 6.53067069 2.30967423
v -9.84417319 5.96371989 2.35714955
v -9.87984117 5.9637199 2.4199814
v -9.88192397 6.53204809 2.41980349
v -9.96002747 6.52990485 2.37107017
v -9.9616246 5.9637199 2.37009607
v -9.76088597 6.89494891 2.43849886
v -9.77477999 6.93042444 2.51674026
v -10.09572322 6.65264504 2.32094196
v -10.02795044 6.68155219 2.27676149
v -9.83144185 5.96371989 2.38247751
v -9.85333034 5.9637199 2.41836214
v -9.97465506 6.56586541 2.39006635
v -10.07381449 6.66387584 2.37010392
v -10.09023487 6.65769086 2.35016913
v -9.96002747 6.52990485 2.37107017
v -10.0957379 6.93042444 2.32096603
v -10.0325301 6.89494891 2.27280449
v -9.89163377 6.56586541 2.44070672
v -9.96002747 6.52990485 2.37107017
v -9.88192397 6.53204809 2.41980349
v -10.0325301 6.89494891 2.27280449
v -10.03236109 7.03279712 2.35963976
v -9.96614211 7.00361106 2.31317033
v -9.76088597 6.89494891 2.43849886
v -9.82715949 7.00361106 2.39794536
v -9.83817091 7.03279712 2.47808966
v -10.07058407 6.91990954 2.36480788
v -10.02644864 6.99119365 2.39172909
v -10.0335718 7.01267075 2.38183756
v -10.08767683 6.9253481 2.34882451
v -9.82850327 6.66387584 2.51973604
v -9.88192397 6.53204809 2.41980349
v -9.80326377 6.65769086 2.52521247
v -9.82527287 6.91990954 2.51443999
v -9.80326377 6.65769086 2.52521247
v -9.80323895 6.9253481 2.52232267
v -10.08767683 6.9253481 2.34882451
v -10.09023487 6.65769086 2.35016913
v -9.8047434 6.88883777 2.3785376
v -9.95914511 6.88883777 2.28435741
v -9.93582257 6.98798103 2.29989912
v -9.82923576 6.98798103 2.36491372
v -9.86940829 6.99119365 2.48751875
v -9.85735348 7.01267075 2.48932519
v -9.83817091 7.03279712 2.47808966
v -9.82715949 7.00361106 2.39794536
v -9.96614211 7.00361106 2.31317033
v -10.03236109 7.03279712 2.35963976
v -9.92200542 6.53067069 2.30967423
v -9.92208293 5.96371989 2.30962705
v -9.95428111 6.68364619 2.28985582
v -10.02795044 6.68155219 2.27676149
v -10.0325301 6.89494891 2.27280449
v -9.82923576 6.98798103 2.36491372
v -9.93582257 6.98798103 2.29989912
v -9.93582257 6.98798103 2.29989912
v -9.95914511 6.88883777 2.28435741
v -10.14459382 1.55200991 2.58264529
v -10.0949435 1.5520099 2.58264532
v -10.0949435 1.52991444 2.51464194
v -10.14459384 1.52991445 2.51464194
v -10.09494351 1.47206741 2.47261356
v -10.14459384 1.47206741 2.47261356
v -10.09494352 1.40056426 2.47261358
v -10.14459386 1.40056427 2.47261358
v -10.09494352 1.34271724 2.51464197
v -10.14459385 1.34271725 2.51464197
v -10.09494352 1.3206218 2.58264535
v -10.14459385 1.3206218 2.58264535
v -10.0949435 1.34271726 2.65064871
v -10.14459383 1.34271726 2.65064871
v -10.09494349 1.40056429 2.69267707
v -10.14459382 1.4005643 2.69267707
v -10.09494348 1.47206744 2.69267706
v -10.14459382 1.47206744 2.69267706
v -10.07680418 1.24791592 2.71952581
v -10.07680423 1.20344077 2.58264539
v -10.04575995 1.20344076 2.58264538
v -10.04575992 1.24791592 2.71952582
v -10.09494349 1.52991446 2.65064864
v -10.14459383 1.52991446 2.65064864
v -10.0949435 1.5520099 2.58264532
v -10.14459382 1.55200991 2.58264529
v -10.07680417 1.66919093 2.58264528
v -10.07680415 1.62471581 2.7195257
v -10.04575988 1.62471581 2.71952568
v -10.0457599 1.66919093 2.58264529
v -10.07680423 1.20344077 2.58264539
v -10.07680424 1.24791589 2.4457649
v -10.04575996 1.24791589 2.4457649
v -10.04575995 1.20344076 2.58264538
v -10.07680422 1.50827801 2.36116806
v -10.0768042 1.62471578 2.44576483
v -10.04575992 1.62471577 2.44576484
v -10.04575996 1.50827801 2.36116805
v -10.07680421 1.36435363 2.3611681
v -10.04575996 1.36435363 2.3611681
v -10.09494349 1.65011806 2.5826453
v -10.09494349 1.60928552 2.45697556
v -10.07680415 1.62471581 2.7195257
v -10.07680416 1.50827807 2.80412256
v -10.04575989 1.50827807 2.80412254
v -10.04575988 1.62471581 2.71952568
v -10.07680417 1.36435369 2.80412258
v -10.0457599 1.36435368 2.80412256
v -10.07680418 1.24791592 2.71952581
v -10.04575992 1.24791592 2.71952582
v -10.09494347 1.50238424 2.78598322
v -10.09494346 1.60928555 2.70831499
v -10.09494352 1.22251364 2.58264537
v -10.0949435 1.26334619 2.70831512
v -10.09494353 1.50238419 2.37930737
v -10.09494353 1.37024746 2.37930743
v -10.09494349 1.65011806 2.5826453
v -10.09494348 1.37024751 2.78598324
v -10.09494355 1.26334615 2.45697561
v -10.09494355 1.26334615 2.45697561
v -10.07680417 1.66919093 2.58264528
v -10.0457599 1.66919093 2.58264529
v -10.02762059 1.65011806 2.58264529
v -10.02762061 1.60928551 2.45697554
v -10.02762061 1.60928551 2.45697554
v -10.02762063 1.50238419 2.37930737
v -10.02762063 1.50238419 2.37930737
v -10.02762065 1.37024745 2.37930741
v -10.02762065 1.37024745 2.37930741
v -10.02762066 1.26334615 2.45697563
v -10.02762066 1.26334615 2.45697563
v -10.02762064 1.22251363 2.58264537
v -10.02762064 1.22251363 2.58264537
v -10.02762062 1.26334618 2.7083151
v -10.02762062 1.26334618 2.7083151
v -10.02762058 1.37024751 2.78598323
v -10.02762058 1.37024751 2.78598323
v -10.02762057 1.50238424 2.78598321
v -10.02762057 1.50238424 2.78598321
v -10.02762057 1.60928554 2.70831497
v -10.02762057 1.60928554 2.70831497
v -10.02762059 1.65011806 2.58264529
v -9.31437686 -0.19210859 2.57947884
v -9.2689905 -0.13348978 2.57947859
v -9.23728917 -0.1334898 2.48191187
v -9.27400753 -0.19210861 2.45523477
v -9.15429395 -0.13348981 2.42161228
v -9.16831914 -0.19210821 2.37844767
v -9.0517062 -0.13348982 2.42161226
v -9.03768121 -0.19210822 2.37844768
v -8.96871098 -0.13348982 2.4819118
v -8.93199284 -0.19210822 2.45523476
v -8.9370096 -0.13348981 2.5794786
v -8.8916235 -0.1921082 2.57947877
v -8.96871103 -0.13348979 2.67704517
v -8.93199292 -0.19210819 2.7037229
v -9.05170615 -0.13348978 2.73734481
v -9.03768122 -0.19210817 2.78050985
v -9.15429395 -0.13348977 2.73734482
v -9.16831918 -0.19210816 2.78050988
v -9.23728918 -0.13348977 2.67704527
v -9.27400753 -0.19210858 2.70372288
v -10.19557193 2.07160109 3.01684069
v -10.13505031 2.04653209 3.01684073
v -10.13505029 2.0465321 3.03408413
v -10.19557193 2.07160109 3.03408408
v -10.2136793 2.21075176 2.68940812
v -10.21367933 2.21075175 2.58264512
v -10.24624853 2.13212269 2.58264514
v -10.24624852 2.1321227 2.68940814
v -10.13505032 2.24332102 2.68940812
v -10.13505035 2.24332101 2.58264512
v -10.05642136 2.21075175 2.68940808
v -10.05642137 2.21075174 2.58264509
v -10.02385215 2.13212269 2.6894081
v -10.02385215 2.13212267 2.58264508
v -9.80786576 2.13212267 2.68940808
v -9.8078658 2.13212265 2.58264507
v -10.21367933 2.05349364 2.68940814
v -10.21367934 2.05349362 2.58264514
v -10.13505035 2.02092435 2.58264513
v -10.13505032 2.02092437 2.68940813
v -10.24624852 2.1321227 2.68940814
v -10.24624853 2.13212269 2.58264514
v -10.2206408 2.13212274 3.01684071
v -10.24624848 2.13212275 3.01684073
v -10.21367927 2.05349368 3.01684071
v -10.13505032 2.02092441 3.01684073
v -10.07452869 2.07160108 3.0168407
v -10.05642128 2.05349367 3.01684067
v -10.04945974 2.13212273 3.0168407
v -10.02385209 2.13212273 3.01684067
v -10.07452868 2.19264439 3.01684068
v -10.0564213 2.21075179 3.01684069
v -10.1350503 2.21771338 3.01684071
v -10.1350503 2.24332107 3.0168407
v -10.1955719 2.1926444 3.01684069
v -10.21367926 2.2107518 3.01684069
v -10.1955719 2.1926444 3.03408407
v -10.22064082 2.13212275 3.03408408
v -10.24631796 2.13212275 3.03408408
v -10.21372841 2.21080086 3.0340841
v -10.13505027 2.21771338 3.0340841
v -10.07452865 2.19264439 3.03408408
v -10.04945976 2.13212273 3.03408407
v -10.07452866 2.07160108 3.0340841
v -10.13505029 2.02085482 3.03408413
v -10.05637215 2.05344462 3.03408407
v -10.05637211 2.05344464 3.19919773
v -10.13505025 2.02085484 3.19919779
v -10.13505027 2.24339024 3.0340841
v -10.05637213 2.21080084 3.03408404
v -10.02378257 2.13212273 3.03408405
v -10.21372844 2.05344463 3.03408411
v -10.21372841 2.05344466 3.19919778
v -10.24631798 2.13212277 3.19919783
v -10.21372838 2.21080088 3.19919777
v -10.13505024 2.24339026 3.19919776
v -10.0563721 2.21080086 3.19919771
v -10.02378253 2.13212275 3.19919771
v -10.62964833 2.05349367 2.68940821
v -10.62964833 2.13212273 2.6894082
v -10.21367932 2.05349366 2.82084972
v -10.13505031 2.02092438 2.82084971
v -10.05642133 2.05349363 2.6894081
v -10.05642133 2.05349364 2.82084968
v -10.02385214 2.1321227 2.82084968
v -10.05642134 2.21075177 2.8208497
v -10.1350503 2.24332104 2.82084968
v -10.21367928 2.21075178 2.82084971
v -10.62964829 2.05349369 2.82084978
v -10.21367926 2.2107518 3.01684069
v -10.24624849 2.13212272 2.82084969
v -10.24624848 2.13212275 3.01684073
v -10.1350503 2.24332107 3.0168407
v -10.0564213 2.21075179 3.01684069
v -10.02385209 2.13212273 3.01684067
v -10.05642128 2.05349367 3.01684067
v -10.13505032 2.02092441 3.01684073
v -10.21367927 2.05349368 3.01684071
v -10.24624848 2.13212275 3.01684073
v -10.24624849 2.13212272 2.82084969
v -10.62964833 2.13212273 2.6894082
v -10.62964832 2.21075179 2.68940819
v -10.62964828 2.21075181 2.82084976
v -10.62964828 2.13212275 2.82084977
v -10.62964828 2.13212275 2.82084977
v -9.67788368 2.0534936 2.68940805
v -9.67788378 2.05349358 2.58264504
v -10.05642135 2.05349361 2.5826451
v -9.82395897 2.02092434 2.68940808
v -9.82395901 2.02092433 2.58264507
v -10.19557204 2.07160097 2.14844951
v -10.19557205 2.07160097 2.13120613
v -10.13505041 2.04653198 2.13120618
v -10.13505043 2.04653198 2.14844955
v -10.21367934 2.21075173 2.47588213
v -10.24624855 2.13212268 2.47588215
v -10.13505036 2.243321 2.47588209
v -10.05642139 2.21075172 2.4758821
v -10.02385216 2.13212266 2.47588209
v -9.80786582 2.13212264 2.47588207
v -10.13505035 2.02092435 2.58264513
v -9.82395901 2.02092433 2.58264507
v -9.67788378 2.05349358 2.58264504
v -10.05642135 2.05349361 2.5826451
v -10.21367935 2.05349361 2.47588212
v -10.13505037 2.02092434 2.47588213
v -10.24624855 2.13212268 2.47588215
v -10.2136794 2.05349357 2.14844955
v -10.24624859 2.13212263 2.14844955
v -10.22064091 2.13212263 2.14844953
v -10.13505043 2.0209243 2.14844955
v -10.07452878 2.07160096 2.14844953
v -10.05642139 2.05349356 2.14844949
v -10.04945988 2.13212262 2.14844951
v -10.0238522 2.13212262 2.14844949
v -10.07452877 2.19264427 2.14844952
v -10.05642143 2.21075168 2.1484495
v -10.13505041 2.21771327 2.14844952
v -10.13505041 2.24332095 2.14844952
v -10.19557201 2.19264428 2.14844951
v -10.21367938 2.21075169 2.14844953
v -10.19557202 2.19264428 2.13120613
v -10.21372853 2.21080074 2.13120616
v -10.2463181 2.13212263 2.13120615
v -10.22064094 2.13212263 2.13120614
v -10.1350504 2.21771326 2.13120616
v -10.04945988 2.13212261 2.13120613
v -10.07452877 2.19264427 2.13120613
v -10.07452878 2.07160096 2.13120615
v -10.13505041 2.02085512 2.13120618
v -10.13505044 2.0208551 1.96609252
v -10.0563723 2.05344448 1.96609246
v -10.05637227 2.05344451 2.13120612
v -10.05637226 2.21080073 2.1312061
v -10.1350504 2.24339054 2.13120615
v -10.02378269 2.13212261 2.1312061
v -10.21372857 2.05344452 2.13120617
v -10.24631812 2.13212261 1.96609253
v -10.2137286 2.0534445 1.9660925
v -10.21372854 2.21080072 1.96609251
v -10.05637229 2.2108007 1.96609243
v -10.13505043 2.24339052 1.96609249
v -10.02378272 2.13212259 1.96609244
v -10.62964836 2.1321227 2.47588221
v -10.62964836 2.05349364 2.47588222
v -10.21367939 2.05349359 2.34444056
v -10.13505038 2.02092432 2.34444055
v -10.05642138 2.05349358 2.34444052
v -10.05642136 2.0534936 2.47588211
v -10.0238522 2.13212264 2.34444053
v -10.05642141 2.2107517 2.34444051
v -10.13505037 2.24332098 2.34444051
v -10.21367935 2.21075172 2.34444055
v -10.62964838 2.05349363 2.34444061
v -10.21367938 2.21075169 2.14844953
v -10.24624859 2.13212263 2.14844955
v -10.24624858 2.13212266 2.34444055
v -10.13505041 2.24332095 2.14844952
v -10.05642143 2.21075168 2.1484495
v -10.0238522 2.13212262 2.14844949
v -10.05642139 2.05349356 2.14844949
v -10.13505043 2.0209243 2.14844955
v -10.2136794 2.05349357 2.14844955
v -10.24624859 2.13212263 2.14844955
v -10.24624858 2.13212266 2.34444055
v -10.62964835 2.21075177 2.4758822
v -10.62964836 2.1321227 2.47588221
v -10.62964838 2.13212269 2.3444406
v -10.62964837 2.21075175 2.34444058
v -10.62964838 2.13212269 2.3444406
v -9.67788375 2.05349357 2.47588204
v -9.8078658 2.13212265 2.58264507
v -10.02385215 2.13212267 2.58264508
v -9.82395902 2.02092431 2.47588208
v -10.20164036 8.03364249 2.58264428
v -10.20164036 8.13518365 2.58264426
v -10.16834512 8.13518364 2.5249752
v -10.16834513 8.03364248 2.52497522
v -10.10175464 8.13518363 2.5249752
v -10.10175465 8.03364247 2.52497522
v -10.06845943 8.13518364 2.58264425
v -10.06845943 8.03364248 2.58264426
v -10.10175465 8.13518365 2.64031329
v -10.10175466 8.03364249 2.6403133
v -10.16834511 8.13518365 2.64031329
v -10.16834512 8.03364249 2.64031331
v -10.20164036 8.13518365 2.58264426
v -10.20164036 8.03364249 2.58264428
v -10.16834513 7.95187765 2.52497523
v -10.62964724 7.95187768 2.52497528
v -10.62964723 8.03364251 2.52497527
v -10.10175466 7.95187766 2.64031331
v -10.16834513 7.95187766 2.64031332
v -10.06845944 7.95187765 2.58264428
v -10.10175466 7.95187764 2.52497523
v -10.20164037 7.95187766 2.58264429
v -10.62964721 7.9518777 2.64031339
v -10.62964721 7.95187769 2.58264431
v -10.20164076 2.21668498 2.58264513
v -10.20164037 7.95187766 2.58264429
v -10.16834553 2.21668497 2.52497607
v -10.10175505 2.21668496 2.52497607
v -10.06845984 2.21668497 2.58264511
v -10.10175506 2.21668498 2.64031415
v -10.16834552 2.21668498 2.64031416
v -10.20164076 2.21668498 2.58264513
v -10.6296472 8.03364252 2.5826443
v -10.6296472 8.03364253 2.64031337
v -10.6296472 8.03364252 2.5826443
v -10.62964721 7.95187769 2.58264431
v -10.26498611 6.41866122 2.61166583
v -10.26498612 6.54930165 2.61166583
v -10.22637033 6.54930163 2.48673792
v -10.22637031 6.4186612 2.48673792
v -10.17610326 6.41866123 2.70757201
v -10.17610329 6.54930165 2.70757203
v -10.00998883 6.54930162 2.55362242
v -9.94934502 6.53341041 2.49741958
v -10.03822785 6.53341041 2.4015134
v -10.09887169 6.54930162 2.45771621
v -10.00998882 6.41866119 2.55362242
v -10.00998883 6.54930162 2.55362242
v -10.04860465 6.54930164 2.67855032
v -10.04860463 6.41866121 2.67855033
v -10.07197742 6.44137924 2.68387052
v -10.07197744 6.52658359 2.68387053
v -10.0643009 6.5265836 2.71759526
v -10.06430087 6.44137924 2.71759523
v -10.09887169 6.54930162 2.45771621
v -10.09887167 6.41866119 2.4577162
v -10.03822783 6.43455236 2.40151339
v -10.03822785 6.53341041 2.4015134
v -9.99961205 6.53341039 2.27658549
v -9.99961203 6.43455234 2.27658549
v -10.00998882 6.41866119 2.55362242
v -9.94934499 6.43455236 2.49741958
v -9.94934502 6.53341041 2.49741958
v -9.92274164 6.43455235 2.44192262
v -9.98087162 6.43455235 2.37919933
v -9.98087163 6.5334104 2.37919931
v -9.92274165 6.53341041 2.4419226
v -9.81410169 6.43455233 2.34123856
v -9.8393567 6.43455234 2.42294222
v -9.83935672 6.5334104 2.42294222
v -9.81410168 6.53341038 2.34123854
v -9.78323057 6.43455233 2.34347001
v -9.78323056 6.53341038 2.34346999
v -9.82184638 6.5334104 2.46839789
v -9.82184634 6.43455235 2.46839787
v -9.94934502 6.53341041 2.49741958
v -9.95561663 6.43455234 2.29749562
v -9.95561664 6.53341039 2.29749563
v -9.87211342 6.53341038 2.24756378
v -9.87211339 6.43455232 2.24756375
v -9.87223169 6.43455233 2.27851525
v -9.87223168 6.53341038 2.27851524
v -10.09887169 6.54930162 2.45771621
v -10.03822783 6.43455236 2.40151339
v -10.09887167 6.41866119 2.4577162
v -10.03822783 6.43455236 2.40151339
v -9.94934499 6.43455236 2.49741958
v -10.00998882 6.41866119 2.55362242
v -10.15273047 6.44137925 2.7022518
v -10.1527305 6.5265836 2.70225183
v -10.14505397 6.52658361 2.73597655
v -10.14505395 6.44137925 2.73597655
v -9.87802592 5.97108301 2.34017893
v -9.88567843 5.1774621 2.3131457
v -9.90438913 5.17824647 2.30710492
v -9.89674425 5.97108301 2.33411095
v -9.86644913 5.97108301 2.35609041
v -9.87411458 5.17613485 2.32901116
v -9.86643583 5.97108301 2.37576774
v -9.87411458 5.17477197 2.34864125
v -9.87799112 5.97108301 2.39169484
v -9.88567842 5.17389402 2.3645379
v -9.89670125 5.97108302 2.39778806
v -9.90438911 5.17383627 2.37062913
v -9.91541961 5.97108302 2.39172009
v -9.92309981 5.17462063 2.36458836
v -9.92699639 5.97108302 2.37580859
v -9.93466366 5.17594789 2.34872289
v -9.92700967 5.97108301 2.3561313
v -9.93466367 5.17731077 2.32909283
v -9.91545437 5.97108301 2.34020421
v -9.92309983 5.17818872 2.31319618
v -9.90571408 4.49682016 2.24169282
v -9.92440211 4.49838134 2.23573327
v -9.8941888 4.49417048 2.25742004
v -9.89422856 4.4914445 2.27690756
v -9.90581818 4.48968315 2.29271185
v -9.9245308 4.48955969 2.29879626
v -9.94321883 4.49112087 2.29283665
v -9.95474411 4.49377055 2.27710946
v -9.95470433 4.49649653 2.25762195
v -9.94311472 4.49825789 2.24181765
v -9.933756 3.91834674 2.14027129
v -9.95241026 3.92061536 2.13443451
v -9.922289 3.91447713 2.15578683
v -9.92238921 3.91048489 2.17505465
v -9.93401839 3.90789474 2.19071509
v -9.95273459 3.90769603 2.19678644
v -9.97138885 3.90996485 2.19094964
v -9.98285588 3.91383426 2.17543408
v -9.98275566 3.9178265 2.15616627
v -9.97112647 3.92041686 2.14050584
v -9.96543683 3.43119786 2.02329812
v -9.98405563 3.43402383 2.01759291
v -9.95403251 3.4263416 2.03858066
v -9.95419879 3.42130991 2.05760305
v -9.96587219 3.41802469 2.07309945
v -9.9845938 3.41774109 2.07915071
v -10.00321264 3.42056705 2.07344548
v -10.01461693 3.42542331 2.05816295
v -10.01445064 3.430455 2.03914058
v -10.00277724 3.43374002 2.02364412
v -9.99640029 3.0244702 1.90514627
v -10.01499796 3.02758375 1.89952244
v -9.9850373 3.01905135 1.92026978
v -9.98524931 3.01339774 1.93911622
v -9.9969553 3.00966836 1.95448686
v -10.01568401 3.00928792 1.96051065
v -10.03428169 3.01240147 1.95488689
v -10.04564471 3.01782011 1.93976348
v -10.04543265 3.02347372 1.920917
v -10.03372667 3.0272031 1.9055463
v -10.02229803 2.68713785 1.80014303
v -10.04090867 2.69007156 1.79446575
v -10.01092214 2.68189801 1.81531971
v -10.01112626 2.6763534 1.83419865
v -10.02283236 2.67262275 1.84956891
v -10.04156917 2.67213017 1.8555594
v -10.06017987 2.67506388 1.84988215
v -10.07155571 2.68030414 1.83470544
v -10.07135161 2.68584833 1.81582649
v -10.05964549 2.68957897 1.80045624
v -10.0387615 2.40790448 1.72262907
v -10.0574241 2.40982199 1.71669366
v -10.02730848 2.40417593 1.7381893
v -10.0274396 2.40006086 1.75743108
v -10.03910483 2.39713051 1.77300453
v -10.05784841 2.39650461 1.77896124
v -10.07651097 2.39842255 1.77302586
v -10.08796406 2.4021511 1.75746565
v -10.0878329 2.40626617 1.73822389
v -10.07616767 2.40919652 1.72265045
v -10.04127252 2.17506628 1.68731703
v -10.05993279 2.17451668 1.68109694
v -10.02982298 2.17517318 1.70331991
v -10.02995756 2.17479715 1.72299325
v -10.04162485 2.17408154 1.73882225
v -10.06036831 2.17330011 1.74476094
v -10.07902863 2.17275094 1.73854094
v -10.09047815 2.17264361 1.72253802
v -10.09034352 2.17301965 1.70286471
v -10.07867623 2.17373526 1.6870357
v -10.02494955 1.97758853 1.71008531
v -10.04323465 1.97297878 1.70446388
v -10.01409367 1.98412083 1.72514116
v -10.01481361 1.99007964 1.74388063
v -10.02683437 1.99319026 1.7591457
v -10.04556446 1.99226379 1.76510574
v -10.06384956 1.98765403 1.75948425
v -10.07470546 1.98112173 1.74442839
v -10.0739855 1.97516251 1.72568904
v -10.06196474 1.9720523 1.71042392
v -9.98537321 1.80787076 1.80610603
v -10.00299725 1.80007157 1.8021361
v -9.97562831 1.81976321 1.81838638
v -9.9774848 1.83120585 1.83428644
v -9.99023351 1.8378287 1.84773289
v -10.0090049 1.83710178 1.85358978
v -10.02662894 1.82930175 1.84961985
v -10.03637387 1.81740972 1.83733949
v -10.03451738 1.80596708 1.82143948
v -10.02176867 1.79934423 1.80799297
v -9.91702039 1.5945775 2.01427822
v -9.93436071 1.58578728 2.01123984
v -9.90798475 1.60894839 2.02422954
v -9.91070512 1.62341067 2.03729269
v -9.92414244 1.63243986 2.04847796
v -9.94316408 1.63258659 2.05351302
v -9.9605045 1.62379636 2.05047471
v -9.9695401 1.60942547 2.04052335
v -9.96681971 1.59496319 2.02746021
v -9.95338239 1.58593401 2.01627488
v -9.88345052 1.47393582 2.18431479
v -9.90071412 1.46485927 2.18171108
v -9.8749201 1.49018902 2.19140489
v -9.87838121 1.50741019 2.20027321
v -9.89251182 1.51902135 2.20753235
v -9.91191451 1.5205884 2.21040956
v -9.92917809 1.51151143 2.20780577
v -9.9377085 1.49525908 2.2007157
v -9.9342474 1.47803748 2.19184738
v -9.92011679 1.4664259 2.18458824
v -9.87912199 1.4313363 2.32432023
v -9.89637502 1.42202372 2.32264379
v -9.87065694 1.44904838 2.32566842
v -9.87421331 1.468395 2.32617337
v -9.88843266 1.48198656 2.32564225
v -9.90788366 1.48463101 2.32427785
v -9.92513671 1.47531843 2.32260136
v -9.93360171 1.45760635 2.32125316
v -9.93004536 1.43825973 2.32074824
v -9.91582603 1.42466859 2.32127938
v -9.89944754 1.45660066 2.43528328
v -9.91692017 1.44756267 2.43481767
v -9.88970305 1.47271508 2.42957668
v -9.89140876 1.48975054 2.41987764
v -9.90391319 1.50120072 2.40989085
v -9.92244003 1.50269147 2.40343087
v -9.93991268 1.49365349 2.40296528
v -9.94965718 1.47753864 2.40867187
v -9.94795145 1.46050318 2.41837092
v -9.93544703 1.44905342 2.42835771
v -9.93614345 1.53164791 2.51281002
v -9.95396157 1.52330499 2.51313897
v -9.92454975 1.54404133 2.50285059
v -9.9236089 1.55575101 2.48706482
v -9.93368025 1.56230468 2.47148234
v -9.95091691 1.5611992 2.46205513
v -9.96873504 1.55285629 2.46238406
v -9.98032874 1.54046286 2.47234351
v -9.98126958 1.52875319 2.48812928
v -9.97119824 1.52219951 2.50371175
v -9.98019505 1.63427444 2.56180963
v -9.99829368 1.6265809 2.5624792
v -9.96732334 1.64370858 2.55029824
v -9.96459511 1.65128054 2.53234201
v -9.97305248 1.65409687 2.51479962
v -9.98946499 1.65108351 2.50437165
v -10.00756364 1.64338997 2.50504123
v -10.02043535 1.63395583 2.5165526
v -10.02316358 1.62638386 2.53450883
v -10.01470621 1.62356712 2.55205123
v -10.02521476 1.74804763 2.59052457
v -10.04354328 1.74093597 2.59135288
v -10.01156847 1.75552149 2.57847837
v -10.00781683 1.76050351 2.55981551
v -10.01539285 1.76109042 2.54166457
v -10.03140274 1.75705751 2.53095859
v -10.04973126 1.74994585 2.5317869
v -10.06337756 1.74247199 2.54383311
v -10.06712918 1.73748997 2.56249595
v -10.05955316 1.73690306 2.58064689
v -10.06517598 1.85799081 2.60499593
v -10.08376202 1.85159602 2.60592594
v -10.05098898 1.86395968 2.59273619
v -10.04661998 1.86722247 2.57382951
v -10.0537378 1.86653327 2.5554976
v -10.06962368 1.86215535 2.54474265
v -10.08820973 1.85576055 2.54567265
v -10.10239673 1.84979169 2.5579324
v -10.10676572 1.84652932 2.57683908
v -10.0996479 1.8472181 2.59517099
v -10.09370992 1.94844023 2.61021565
v -10.112744 1.94355673 2.6112426
v -10.07899264 1.95261986 2.59784118
v -10.07421368 1.95449964 2.5788458
v -10.08119843 1.95336187 2.5604851
v -10.09727896 1.94964003 2.54977226
v -10.11631304 1.94475695 2.55079921
v -10.13103031 1.94057732 2.56317368
v -10.13580927 1.93869754 2.58216906
v -10.12882452 1.9398353 2.60052976
v -10.10436942 2.00229586 2.61089762
v -10.12401535 2.00229586 2.6120084
v -10.08912841 2.00229585 2.5984514
v -10.08411387 2.00229585 2.57942374
v -10.09124121 2.00229543 2.56108258
v -10.10778802 2.00229543 2.55043362
v -10.12743396 2.00229543 2.55154439
v -10.14267496 2.00229585 2.56399062
v -10.14768949 2.00229586 2.58301828
v -10.14056215 2.00229586 2.60135944
v -9.83144185 5.96371989 2.38247751
v -9.92208293 5.96371989 2.30962705
v -9.84417319 5.96371989 2.35714955
v -9.95042934 5.96371989 2.30989889
v -9.85333034 5.9637199 2.41836214
v -9.97231784 5.9637199 2.34578351
v -9.9616246 5.9637199 2.37009607
v -10.14459383 1.34271726 2.65064871
v -10.14459385 1.34271725 2.51464197
v -10.14459385 1.3206218 2.58264535
v -10.14459382 1.4005643 2.69267707
v -10.14459386 1.40056427 2.47261358
v -10.14459382 1.47206744 2.69267706
v -10.14459384 1.47206741 2.47261356
v -10.14459383 1.52991446 2.65064864
v -10.14459384 1.52991445 2.51464194
v -10.14459382 1.55200991 2.58264529
v -10.02762066 1.26334615 2.45697563
v -10.02762062 1.26334618 2.7083151
v -10.02762064 1.22251363 2.58264537
v -10.02762065 1.37024745 2.37930741
v -10.02762058 1.37024751 2.78598323
v -10.02762063 1.50238419 2.37930737
v -10.02762057 1.50238424 2.78598321
v -10.02762061 1.60928551 2.45697554
v -10.02762057 1.60928554 2.70831497
v -10.02762059 1.65011806 2.58264529
v -10.16834512 8.13518364 2.5249752
v -10.06845943 8.13518364 2.58264425
v -10.10175464 8.13518363 2.5249752
v -10.10175465 8.13518365 2.64031329
v -10.20164036 8.13518365 2.58264426
v -10.16834511 8.13518365 2.64031329
v -10.06845984 2.21668497 2.58264511
v -10.16834553 2.21668497 2.52497607
v -10.10175505 2.21668496 2.52497607
v -10.10175506 2.21668498 2.64031415
v -10.20164076 2.21668498 2.58264513
v -10.16834552 2.21668498 2.64031416
vn 0.47129 -0.88198 0.0005
vn 0.3308 -0.8528 -0.4041
vn -0.48559 -0.87419 0
vn -0.48567 -0.87414 0
vn 0.3356 0.85519 -0.395
vn -0.7295 0.6099 -0.3096
vn -0.6773 0.715 -0.1733
vn 0.2116 0.89961 -0.382
vn -0.9763 0.2119 -0.0439
vn -0.9763 -0.2119 -0.0439
vn -0.96863 -0.23981 0.0651
vn -0.96863 0.23981 0.0651
vn -0.98249 0.1778 -0.0557
vn -0.98249 -0.1778 -0.0557
vn -0.96153 -0.27471 0
vn -0.96156 -0.27459 0
vn -0.96156 0.27459 0
vn -0.96141 0.2751 0
vn 0.95538 0.29539 -0.0003
vn 0.90479 0.2539 -0.3419
vn 0.90899 -0.2558 -0.3291
vn 0.95602 -0.29331 0
vn -0.68792 0.70572 0.1695
vn 0.1372 0.93588 0.32449
vn -0.72959 -0.60979 -0.3096
vn 0.20761 -0.90062 -0.38181
vn -0.6772 -0.7151 -0.1733
vn -0.48559 0.87419 0
vn -0.48603 0.87394 0
vn 0.465 0.88531 0.0002
vn 0.88112 -0.0855 -0.46511
vn 0.96588 -0.1546 -0.2078
vn 0.82228 -0.47659 -0.31099
vn 0.90896 -0.25579 -0.32919
vn 0.1372 -0.93588 0.32449
vn -0.68792 -0.70572 0.1695
vn 0.87997 0.0881 -0.46679
vn 0.88107 -0.0855 -0.46519
vn -0.68796 -0.70566 0.16959
vn 0.148 -0.4731 0.86849
vn -0.612 -0.3405 0.7138
vn -0.68791 0.70571 0.1696
vn -0.612 0.3405 0.7138
vn 0.148 0.4731 0.86849
vn 0.98993 -0.1323 0.0503
vn 0.99219 -0.0561 0.1114
vn 0.8691 -0.2236 0.4412
vn 0.85827 -0.48748 0.16039
vn 0.96536 0.15591 -0.20921
vn 0.88001 0.0882 -0.4667
vn 0.82372 0.47421 -0.31081
vn 0.98993 0.1323 0.0503
vn 0.96535 0.15599 -0.20919
vn 0.82371 0.47431 -0.3107
vn 0.85829 0.48749 0.1603
vn 0.9659 -0.1546 -0.2077
vn 0.98995 -0.13221 0.0503
vn 0.85829 -0.48749 0.1603
vn 0.82227 -0.47668 -0.31089
vn -0.96861 0.2399 0.0652
vn -0.87521 -0.1721 0.4521
vn -0.87521 0.1721 0.4521
vn 0.99219 0.0561 0.1114
vn 0.86909 0.2237 0.44119
vn -0.61202 0.34041 0.71383
vn -0.61202 -0.34041 0.71383
vn -0.96153 -0.27471 0.0001
vn -0.97628 -0.212 -0.0439
vn -0.6773 -0.715 -0.1733
vn -0.68797 -0.70567 0.16949
vn -0.96861 -0.2399 0.0651
vn -0.0001 0 1
vn -0.0001 0.0001 1
vn -0.5018 -0.3061 0.80901
vn -0.81191 -0.4953 0.309
vn -0.81191 -0.4953 -0.309
vn -0.81195 -0.49523 -0.30902
vn -0.5018 -0.3061 -0.80901
vn 0 0 -1
vn 0.5018 0.3061 -0.80901
vn 0.81191 0.4953 -0.309
vn 0.81191 0.4953 0.309
vn 0.65838 -0.0302 -0.75208
vn 0.192 -0.3146 -0.9296
vn -0.1919 0.3147 -0.92959
vn 0.27449 0.59919 -0.75208
vn 0.5018 0.3061 0.80901
vn 0 0 1
vn 0.19199 -0.31469 0.92957
vn 0.65838 -0.0302 0.75208
vn 0.27449 0.59919 0.75208
vn -0.1919 0.3147 0.92959
vn 0.1919 -0.3147 -0.92959
vn -0.27449 -0.59919 -0.75208
vn -0.65838 0.0302 -0.75208
vn -0.19199 0.31469 -0.92957
vn -0.56278 -0.77507 0.28729
vn -0.27449 -0.59919 0.75208
vn -0.65838 0.0302 0.75208
vn -0.9467 -0.1457 0.2873
vn -0.56278 -0.77507 -0.28729
vn -0.9467 -0.1457 -0.2873
vn 0.52072 -0.85373 0
vn 0.46979 -0.77019 0.43139
vn 0.2534 -0.90221 0.349
vn 0.65849 -0.0301 0.75199
vn 0.9467 0.1457 0.2873
vn 0.56278 0.77507 0.28729
vn 0.27461 0.59922 0.75202
vn 0.9467 0.1457 -0.2873
vn 0.56278 0.77507 -0.28729
vn 0.65849 -0.0301 -0.75199
vn 0.27451 0.59923 -0.75204
vn 0.82001 -0.55661 0.1333
vn 0.68626 -0.63817 0.34898
vn 0.46981 -0.77022 -0.43131
vn 0.68626 -0.63817 -0.34898
vn 0.1196 -0.98383 0.1333
vn 0.1196 -0.98383 -0.1333
vn 0.46989 -0.77019 0.43129
vn 0.82001 -0.55661 -0.1333
vn 0.2533 -0.90228 -0.34889
vn 0.2534 -0.90221 -0.349
vn 0.1919 -0.3147 0.92959
vn -0.19199 0.31469 0.92957
vn -0.46979 0.77019 0.43139
vn -0.68621 0.63821 0.34901
vn -0.68631 0.63811 0.349
vn -0.82001 0.55661 0.1333
vn -0.82009 0.55649 0.1333
vn -0.82009 0.55649 -0.1333
vn -0.68626 0.63817 -0.34898
vn -0.46979 0.77019 -0.43139
vn -0.25331 0.90223 -0.34901
vn -0.11951 0.98384 -0.13331
vn -0.11951 0.98384 0.13331
vn -0.25331 0.90223 0.34901
vn 0.41172 -0.67503 0.61223
vn 0.26331 -0.43171 0.86272
vn -0.0407 -0.50409 0.86269
vn -0.0637 -0.78812 0.61222
vn -0.3292 -0.3839 0.8627
vn -0.51479 -0.60019 0.61219
vn -0.492 -0.117 0.8627
vn -0.76922 -0.183 0.61222
vn -0.4668 0.1945 0.86271
vn -0.72989 0.3041 0.61219
vn -0.26331 0.43171 0.86272
vn -0.41172 0.67503 0.61223
vn 0.0407 0.50409 0.86269
vn 0.0637 0.78812 0.61222
vn 0.3292 0.3839 0.8627
vn 0.51479 0.60019 0.61219
vn 0.492 0.117 0.8627
vn 0.76922 0.183 0.61222
vn 0.4668 -0.1945 0.86271
vn 0.72989 -0.3041 0.61219
vn 0.3682 -0.6037 -0.70709
vn 0.3144 -0.5154 0.7972
vn 0.3682 -0.6037 0.70709
vn 0.52079 -0.85368 0
vn -0.3682 0.6037 0.70709
vn -0.51581 0.84571 0.1368
vn -0.48111 0.78871 0.38271
vn 0.24129 -0.39559 -0.88617
vn 0.1016 -0.1666 -0.98078
vn 0.0526 -0.0862 -0.99489
vn 0.85373 0.52072 0
vn -0.85373 -0.52072 0
vn -0.52072 0.85373 0
vn -0.3682 0.6037 -0.70709
vn -0.85368 -0.52079 0
vn -0.26951 0.44191 0.85562
vn -0.057 0.0935 -0.99399
vn -0.1133 0.18581 -0.97603
vn 0.85368 0.52079 0
vn -0.47901 -0.87781 0
vn -0.7036 -0.7106 0
vn -0.99971 -0.0241 0
vn 0.47901 0.87781 0
vn 0.99971 0.0241 0
vn 0.95381 0.3004 0
vn 0.69719 -0.71689 0
vn 0.69724 -0.71684 0
vn -0.27221 -0.96224 0
vn 0.96942 0.24541 0
vn -0.0782 0.0221 0.99669
vn -0.0034 0.99999 0
vn 0.27221 0.96224 0
vn -0.69724 0.71684 0
vn -0.52672 -0.85004 0
vn -0.0291 -0.99958 0
vn -0.0033 0.99999 0
vn 0.49881 0.86671 0
vn -0.96942 -0.24541 0
vn -0.69719 0.71689 0
vn -0.4111 -0.91159 0
vn -0.24541 0.96942 0
vn -0.71684 -0.69724 0
vn 0.1273 0.99186 0
vn 0.12739 0.99185 0
vn -0.0781 0.0221 0.9967
vn -0.0781 0.0221 -0.9967
vn -0.51749 0.85569 0
vn -0.88904 -0.45782 0
vn -0.52668 -0.85006 0
vn -0.0292 -0.99957 0
vn -0.0782 0.0222 -0.99669
vn -0.0782 0.0221 -0.99669
vn 0.71684 0.69724 0
vn -0.99612 0.0853 0.0218
vn -0.99525 0.0867 0.0443
vn -0.8527 -0.5178 0.0692
vn -0.85387 -0.51938 0.034
vn -0.75496 0.65577 0.0011
vn -0.75473 0.65603 0.0024
vn -0.2265 0.97381 -0.0198
vn -0.2273 0.97299 -0.0402
vn 0.38592 0.92194 -0.0332
vn 0.3846 0.92061 -0.0675
vn 0.8519 0.5226 -0.0341
vn 0.85068 0.52109 -0.0693
vn 0.99698 -0.0744 -0.0221
vn 0.99614 -0.0754 -0.0449
vn 0.76401 -0.64521 -0.0016
vn 0.76409 -0.6451 -0.0035
vn 0.23771 -0.97114 0.0195
vn 0.23891 -0.97024 0.0395
vn -0.38149 -0.92378 0.0332
vn -0.38001 -0.92252 0.0674
vn -0.99197 0.09 0.0889
vn -0.8475 -0.5124 0.1385
vn -0.75467 0.65608 0.0053
vn -0.23031 0.96982 -0.08
vn 0.37959 0.91528 -0.1348
vn 0.8456 0.5155 -0.1386
vn 0.99278 -0.0792 -0.0901
vn 0.76367 -0.64557 -0.0073
vn 0.24169 -0.96716 0.0786
vn -0.37501 -0.91721 0.1345
vn -0.98686 0.0949 0.13079
vn -0.83943 -0.50422 0.20281
vn -0.75471 0.656 0.0088
vn -0.23541 0.96493 -0.1162
vn 0.3718 0.90721 -0.1968
vn 0.83777 0.50688 -0.20299
vn 0.98751 -0.0854 -0.1324
vn 0.76268 -0.64668 -0.0114
vn 0.2456 -0.9626 0.1144
vn -0.36751 -0.90902 0.1965
vn -0.98103 0.0998 0.1662
vn -0.83023 -0.49532 0.25571
vn -0.75505 0.65554 0.0132
vn -0.24131 0.95963 -0.1445
vn 0.36299 0.89846 -0.24699
vn 0.82919 0.497 -0.2558
vn 0.98145 -0.0929 -0.16769
vn 0.76089 -0.64869 -0.0157
vn 0.2491 -0.95791 0.1427
vn -0.35949 -0.89998 0.24659
vn -0.97659 0.1022 0.1893
vn -0.82331 -0.48951 0.2873
vn -0.75591 0.65441 0.0188
vn -0.24649 0.95606 -0.15869
vn 0.3564 0.89279 -0.2755
vn 0.82327 0.48958 -0.28729
vn 0.97672 -0.1 -0.1898
vn 0.75812 -0.65181 -0.0199
vn 0.24981 -0.95535 0.15781
vn -0.3545 -0.89361 0.2753
vn -0.97683 0.0981 0.19021
vn -0.8236 -0.4922 0.2818
vn -0.75788 0.65188 0.026
vn -0.2484 0.95719 -0.1486
vn 0.35701 0.89533 -0.26631
vn 0.82535 0.48933 -0.28172
vn 0.97648 -0.1038 -0.189
vn 0.75369 -0.65679 -0.0241
vn 0.24389 -0.95818 0.1497
vn -0.35781 -0.89502 0.26631
vn -0.98514 0.0831 0.15031
vn -0.83598 -0.50749 0.20879
vn -0.76249 0.64609 0.0344
vn -0.24579 0.96458 -0.0958
vn 0.36899 0.90987 -0.18969
vn 0.8406 0.4995 -0.2095
vn 0.98351 -0.1045 -0.1476
vn 0.74643 -0.66483 -0.0292
vn 0.22661 -0.96893 0.0991
vn -0.375 -0.90749 0.1893
vn -0.99725 0.0651 0.0353
vn -0.85251 -0.52241 0.0176
vn -0.77154 0.63493 0.0398
vn -0.24559 0.96897 0.0281
vn 0.38401 0.92332 0.0045
vn 0.86199 0.5065 -0.0208
vn 0.99324 -0.11 -0.0371
vn 0.73538 -0.67649 -0.0397
vn 0.2029 -0.9788 -0.028
vn -0.39819 -0.91728 -0.0063
vn -0.98193 0.089 -0.16701
vn -0.8263 -0.4739 -0.3044
vn -0.77937 0.62567 0.0334
vn -0.275 0.9347 0.2252
vn 0.3526 0.8752 0.3312
vn 0.84011 0.4515 0.3006
vn 0.97731 -0.1524 0.1471
vn 0.7284 -0.6825 -0.0603
vn 0.21279 -0.94696 -0.24079
vn -0.3748 -0.8655 -0.3323
vn -0.92058 0.181 -0.34609
vn -0.73633 -0.34522 -0.58193
vn -0.7637 0.6452 0.0217
vn -0.31279 0.86777 0.38619
vn 0.2649 0.75191 0.60371
vn 0.74102 0.33611 0.58131
vn 0.92068 -0.2125 0.32739
vn 0.73731 -0.67351 -0.0524
vn 0.27508 -0.87145 -0.40608
vn -0.2842 -0.74379 -0.60499
vn -0.84 0.2814 -0.4639
vn -0.64064 -0.22431 -0.73435
vn -0.72848 0.68478 -0.0198
vn -0.34029 0.83319 0.43589
vn 0.1828 0.66162 0.72722
vn 0.63711 0.2308 0.73541
vn 0.84167 -0.29209 0.45418
vn 0.7149 -0.6992 -0.005
vn 0.3116 -0.832 -0.459
vn -0.2051 -0.64731 -0.73411
vn -0.68483 0.41232 -0.60083
vn -0.47788 -0.0767 -0.87507
vn -0.64559 0.75619 -0.1067
vn -0.3638 0.8235 0.4353
vn 0.0661 0.57322 0.81673
vn 0.47529 0.0922 0.87498
vn 0.69268 -0.42859 0.58009
vn 0.63018 -0.77458 0.0539
vn 0.3235 -0.8111 -0.4873
vn -0.0982 -0.54038 -0.83567
vn -0.34579 0.61989 -0.70439
vn -0.118 0.1501 -0.9816
vn -0.45288 0.87376 -0.17729
vn -0.39679 0.81428 0.42369
vn -0.1842 0.4394 0.8792
vn 0.1125 -0.128 0.98537
vn 0.3627 -0.6468 0.6709
vn 0.4565 -0.88591 0.0823
vn 0.37072 -0.76984 -0.51953
vn 0.1519 -0.3735 -0.91511
vn 0.1094 0.79533 -0.59622
vn 0.36999 0.33849 -0.86518
vn -0.1913 0.97478 -0.1149
vn -0.42809 0.80189 0.41679
vn -0.50863 0.31332 0.80195
vn -0.3832 -0.3204 0.86631
vn -0.0916 -0.82207 0.56198
vn 0.2332 -0.97198 0.0296
vn 0.45429 -0.73799 -0.49899
vn 0.50128 -0.23919 -0.83157
vn 0.41658 0.84147 -0.34409
vn 0.70547 0.38248 -0.59667
vn -0.0258 0.99904 0.0355
vn -0.46691 0.78471 0.40771
vn -0.7358 0.2612 0.6248
vn -0.71452 -0.37201 0.59251
vn -0.4035 -0.8563 0.3224
vn 0.0677 -0.99488 -0.075
vn 0.50432 -0.74293 -0.44012
vn 0.74158 -0.21589 -0.63518
vn 0.5428 0.8267 -0.1481
vn 0.85001 0.3591 -0.3854
vn 0.0325 0.98887 0.1452
vn -0.49511 0.77842 0.38591
vn -0.83691 0.2652 0.4788
vn -0.85243 -0.35481 0.38401
vn -0.53177 -0.83555 0.13809
vn -0.004 -0.987 -0.1607
vn 0.52079 -0.75629 -0.39599
vn 0.8434 -0.2412 -0.4801
vn 0.59148 0.80567 -0.0325
vn 0.9088 0.3314 -0.2535
vn 0.0504 0.97821 0.2014
vn -0.51279 0.77948 0.35979
vn -0.88167 0.27949 0.38019
vn -0.90921 -0.3308 0.2528
vn -0.58249 -0.81239 0.0271
vn -0.0311 -0.97753 -0.20851
vn 0.5291 -0.767 -0.363
vn 0.88583 -0.26711 -0.37941
vn 0.6117 0.79041 0.0328
vn 0.93646 0.30869 -0.16659
vn 0.0538 0.97388 0.2206
vn -0.52688 0.78547 0.32469
vn -0.9064 0.2935 0.3038
vn -0.93532 -0.31291 0.1651
vn -0.60219 -0.79748 -0.0373
vn -0.0385 -0.97373 -0.22441
vn 0.53751 -0.77802 -0.32521
vn 0.90823 -0.28871 -0.30291
vn 0.61983 0.78274 0.056
vn 0.95339 0.2857 -0.0971
vn 0.047 0.98042 0.1912
vn -0.5447 0.7995 0.2532
vn -0.92642 0.30871 0.21551
vn -0.94802 -0.30391 0.0943
vn -0.60128 -0.79677 -0.0601
vn -0.0277 -0.98178 -0.188
vn 0.5519 -0.7973 -0.2444
vn 0.925 -0.3164 -0.2104
vn 0.63773 0.76844 0.0529
vn 0.96516 0.25302 -0.0667
vn 0.0526 0.98591 0.1588
vn -0.55569 0.80648 0.202
vn -0.93964 0.30201 0.16081
vn -0.94502 -0.32211 0.0564
vn -0.57999 -0.81218 -0.063
vn -0.0067 -0.98837 -0.1519
vn 0.55842 -0.80873 -0.18471
vn 0.926 -0.3446 -0.1542
vn -0.68621 0.63821 -0.34901
vn -0.2533 0.90228 -0.34889
vn -0.46981 0.77022 -0.43131
vn -0.82001 0.55661 -0.1333
vn -0.1196 0.98383 -0.1333
vn -0.1196 0.98383 0.1333
vn -0.68629 0.63819 0.34889
vn -0.2534 0.90221 0.349
vn -0.46981 0.77022 0.43131
vt 0.375 0.19742
vt 0.625 0.19739
vt 0.625 0.05191
vt 0.375 0.05191
vt 0.625 0.55261
vt 0.625 0.69809
vt 0.625 0.72059
vt 0.625 0.52979
vt 0.625 0.76613
vt 0.625 0.98387
vt 0.625 0.98384
vt 0.625 0.76616
vt 0.625 0.79332
vt 0.625 0.95668
vt 0.375 0.95685
vt 0.625 0.95668
vt 0.375 0.79315
vt 0.375 0.46092
vt 0.62561 0.45756
vt 0.62466 0.29244
vt 0.375 0.28908
vt 0.625 0.72059
vt 0.625 0.52973
vt 0.625 0.22021
vt 0.625 0.02941
vt 0.375 0.69809
vt 0.375 0.55258
vt 0.625 0.31696
vt 0.625 0.28376
vt 0.625 0.26517
vt 0.625 0.27505
vt 0.625 0.22027
vt 0.625 0.02941
vt 0.625 0.43304
vt 0.625 0.29225
vt 0.625 0.45686
vt 0.625 0.02941
vt 0.625 0.22029
vt 0.625 0.0294
vt 0.625 0.72059
vt 0.625 0.7206
vt 0.625 0.52971
vt 0.625 0.28883
vt 0.625 0.29925
vt 0.625 0.27383
vt 0.625 0.26875
vt 0.625 0.46624
vt 0.625 0.47293
vt 0.625 0.48483
vt 0.625 0.46117
vt 0.625 0.48483
vt 0.625 0.48125
vt 0.625 0.26875
vt 0.625 0.26517
vt 0.625 0.76616
vt 0.625 0.98384
vt 0.625 0.97959
vt 0.625 0.77041
vt 0.625 0.45075
vt 0.625 0.47617
vt 0.65471 0.5
vt 0.8456 0.5
vt 0.8456 0.25
vt 0.65471 0.25
vt 0.625 0
vt 0.375 0
vt 0.625 0
vt 0.625 1
vt 0.875 0.49055
vt 0.875 0.25945
vt 1 0.5
vt 1 0
vt 0.9 0
vt 0.9 0.5
vt 0.8 0
vt 0.8 0.5
vt 0.7 0
vt 0.7 0.5
vt 0.6 0
vt 0.6 0.5
vt 0.5 0
vt 0.5 0.5
vt 0.4 0
vt 0.4 0.5
vt 0.3 0
vt 0.3 0.5
vt 0.2 0
vt 0.2 0.5
vt 0.5 0
vt 0.4 0
vt 0.1 0
vt 0.1 0.5
vt -0 0
vt -0 0.5
vt 0.1 0
vt 0.5 0
vt 0.6 0
vt 0.9959 0
vt 0.9041 0
vt 0.8959 0
vt 0.8041 0
vt 0.7959 0
vt 0.7041 0
vt 0.6959 0
vt 0.60409 0
vt 0.5959 0
vt 0.50409 0
vt 0.4959 0
vt 0.40409 0
vt 0.3959 0
vt 0.3041 0
vt 0.2959 0
vt 0.20409 0
vt 0.1959 0
vt 0.10409 0
vt 0.0959 0
vt 0.0041 0
vt 0.75026 0.7109
vt 0.74454 0.70331
vt 0.73204 0.70718
vt 0.73221 0.7167
vt 0.71966 0.70273
vt 0.71415 0.71059
vt 0.71204 0.69202
vt 0.7029 0.69518
vt 0.71244 0.67898
vt 0.70303 0.67569
vt 0.72023 0.66853
vt 0.71505 0.66038
vt 0.73281 0.66489
vt 0.7334 0.65537
vt 0.74522 0.66909
vt 0.75116 0.66184
vt 0.75264 0.67988
vt 0.76144 0.6772
vt 0.75248 0.69296
vt 0.76144 0.69568
vt 0.88062 0.61938
vt 0.93473 0.75
vt 0.125 0.31147
vt 0.125 0.25
vt 0 0.25
vt 0 0.31147
vt 0.25 0.31147
vt 0.25 0.25
vt 0.375 0.31147
vt 0.375 0.25
vt 0.5 0.31147
vt 0.5 0.25
vt 0.875 0.31147
vt 0.875 0.25
vt 0.75 0.25
vt 0.75 0.31147
vt 1 0.31147
vt 1 0.25
vt 0.75 0.56527
vt 0.75 0.51
vt 0.91971 0.58029
vt 0.99 0.75
vt 0.88062 0.88062
vt 0.91971 0.91971
vt 0.75 0.93473
vt 0.75 0.99
vt 0.61938 0.88062
vt 0.58029 0.91971
vt 0.56527 0.75
vt 0.51 0.75
vt 0.61938 0.61938
vt 0.58029 0.58029
vt 0.875 0.38715
vt 0.75 0.38715
vt 0.625 0.31147
vt 0.625 0.38715
vt 0.5 0.38715
vt 0.375 0.38715
vt 0.25 0.38715
vt 0.125 0.38715
vt 0.125 0.5
vt 0 0.38715
vt 0 0.5
vt 0.25 0.5
vt 0.375 0.5
vt 0.5 0.5
vt 0.625 0.5
vt 0.75 0.5
vt 0.875 0.5
vt 1 0.38715
vt 0.625 0.25
vt 0 1
vt 1 0.01039
vt 0.83333 0
vt 0.83333 0.01039
vt 0.66667 0
vt 0.66667 0.01039
vt 0.5 0.01039
vt 0.33333 0
vt 0.33333 0.01039
vt 0.16667 0
vt 0.16667 0.01039
vt -0 0
vt -0 0.01039
vt 0.83333 0.01876
vt 0.33333 0.01876
vt 0.16667 0.01876
vt 0.5 0.01876
vt 0.66667 0.01876
vt -0 0.01876
vt 1 0.01876
vt 0.83333 0.5
vt 0.66667 0.5
vt 0.5 0.5
vt 0.33333 0.5
vt 0.16667 0.5
vt -0 0.5
vt 0.54215 0.63
vt 0.54215 0.87
vt 0.95785 0.63
vt 0.95785 0.87
vt 0.7119 0.968
vt 0.7119 0.968
vt 0.58026 0.892
vt 0.58026 0.892
vt 0.17691 0.5
vt 0.125 0.29315
vt 0.125 0.45685
vt 0.17691 0.25
vt 0.32242 0.5
vt 0.32242 0.25
vt 0.375 0.28908
vt 0.60893 0.94416
vt 0.89107 0.94416
vt 0.52175 0.82416
vt 0.97825 0.82416
vt 0.52175 0.67584
vt 0.97825 0.67584
vt 0.60893 0.55584
vt 0.89107 0.55584
vt 0.37951 0.92826
vt 0.12049 0.92826
vt 0.25 0.97034
vt 0.45956 0.81809
vt 0.04044 0.81809
vt 0.45956 0.68191
vt 0.04044 0.68191
vt 0.37951 0.57174
vt 0.12049 0.57174
vt 0.25 0.52966
vt 0.45785 0.63
vt 0.25 0.99
vt 0.45785 0.87
vt 0.04215 0.87
vt 0.25 0.51
vt 0.04215 0.63
usemtl mat1
f 144/97/55 145/98/56 146/99/57
f 144/97/55 146/99/57 147/100/58
f 148/101/59 149/102/60 150/103/61
f 148/101/59 150/103/61 151/104/62
f 152/105/63 153/106/64 154/107/65
f 152/105/63 154/107/65 155/108/66
f 156/109/67 157/110/68 153/106/64
f 156/109/67 153/106/64 152/105/63
f 158/111/69 159/112/70 156/109/71
f 158/111/69 156/109/71 160/113/72
f 161/114/73 162/115/74 163/116/75
f 161/114/73 163/116/75 164/117/76
f 151/104/62 150/103/61 165/118/77
f 151/104/62 165/118/77 166/119/78
f 146/99/79 145/98/56 167/120/80
f 146/99/79 167/120/80 168/121/81
f 169/122/82 149/102/83 148/101/59
f 169/122/82 148/101/59 170/123/84
f 171/124/85 172/125/86 173/126/87
f 171/124/85 173/126/87 174/127/88
f 168/121/81 167/120/80 175/128/89
f 168/121/81 175/128/89 176/129/90
f 177/130/91 171/124/92 178/131/88
f 177/130/91 178/131/88 179/132/74
f 180/133/93 175/128/89 181/134/94
f 180/133/93 181/134/94 182/135/95
f 166/119/78 183/136/96 184/137/97
f 166/119/78 184/137/97 185/138/98
f 186/139/99 187/140/100 188/141/101
f 186/139/99 188/141/101 189/142/102
f 190/143/103 177/130/104 191/144/74
f 190/143/103 191/144/74 192/145/105
f 193/146/106 190/143/107 194/147/108
f 193/146/106 194/147/108 195/148/109
f 172/125/110 186/139/111 196/149/112
f 172/125/110 196/149/112 197/150/113
f 198/151/114 199/152/65 200/153/115
f 198/151/114 200/153/115 201/154/116
f 202/155/117 193/146/106 195/148/109
f 202/155/117 195/148/109 203/156/118
f 187/140/100 202/155/117 203/156/118
f 187/140/100 203/156/118 188/141/101
f 204/157/98 205/158/119 206/159/120
f 204/157/98 206/159/120 207/160/94
f 147/100/58 146/99/57 208/161/69
f 147/100/58 208/161/69 209/162/121
f 149/102/83 169/122/82 160/113/72
f 149/102/83 160/113/72 156/109/71
f 162/115/74 161/114/73 170/123/84
f 162/115/74 170/123/84 148/101/59
f 145/98/56 144/97/55 164/117/76
f 145/98/56 164/117/76 163/116/75
f 156/109/67 152/105/63 150/103/61
f 156/109/67 150/103/61 149/102/60
f 192/145/105 191/144/74 148/101/59
f 192/145/105 148/101/59 151/104/62
f 167/120/80 145/98/56 174/127/88
f 167/120/80 174/127/88 173/126/87
f 146/99/79 168/121/81 210/163/122
f 146/99/79 210/163/122 208/161/68
f 197/150/113 196/149/112 175/128/89
f 197/150/113 175/128/89 167/120/80
f 154/107/65 153/106/64 211/164/123
f 154/107/65 211/164/123 212/164/124
f 152/105/63 155/108/66 165/118/77
f 152/105/63 165/118/77 150/103/61
f 195/148/109 194/147/108 151/104/62
f 195/148/109 151/104/62 166/119/78
f 206/159/120 205/158/119 213/165/116
f 206/159/120 213/165/116 214/166/115
f 204/157/98 207/160/94 188/141/101
f 204/157/98 188/141/101 203/156/118
f 166/119/78 185/138/98 203/156/118
f 166/119/78 203/156/118 195/148/109
f 181/134/94 175/128/89 189/142/102
f 181/134/94 189/142/102 188/141/101
f 180/133/93 182/135/95 215/161/115
f 180/133/93 215/161/115 216/161/125
f 184/137/97 183/136/96 198/151/114
f 184/137/97 198/151/114 201/154/116
f 217/167/126 218/168/127 219/169/128
f 217/167/126 219/169/128 220/170/128
f 220/170/128 219/169/128 221/171/129
f 220/170/128 221/171/129 222/172/129
f 222/172/129 221/171/129 223/173/130
f 222/172/129 223/173/130 224/174/131
f 224/174/131 223/173/130 225/175/132
f 224/174/131 225/175/132 226/176/132
f 226/176/132 225/175/132 227/177/133
f 226/176/132 227/177/133 228/178/133
f 228/178/133 227/177/133 229/179/134
f 228/178/133 229/179/134 230/180/134
f 230/180/134 229/179/134 231/181/135
f 230/180/134 231/181/135 232/182/135
f 232/182/135 231/181/135 233/183/136
f 232/182/135 233/183/136 234/184/136
f 235/179/137 236/185/138 237/177/139
f 235/179/137 237/177/139 238/186/140
f 234/184/136 233/183/136 239/187/141
f 234/184/136 239/187/141 240/188/141
f 240/188/141 239/187/141 241/189/142
f 240/188/141 241/189/142 242/190/142
f 243/189/143 244/191/144 245/187/145
f 243/189/143 245/187/145 246/189/146
f 247/177/147 248/175/148 249/175/149
f 247/177/147 249/175/149 250/185/150
f 251/171/151 252/169/152 253/169/153
f 251/171/151 253/169/153 254/171/154
f 248/175/148 255/173/155 256/173/156
f 248/175/148 256/173/156 249/175/149
f 219/169/157 218/168/157 257/168/158
f 219/169/157 257/168/158 258/169/159
f 255/173/155 251/171/151 254/171/154
f 255/173/155 254/171/154 256/173/156
f 259/187/160 260/183/161 261/183/162
f 259/187/160 261/183/162 262/191/163
f 260/183/161 263/181/164 264/181/165
f 260/183/161 264/181/165 261/183/162
f 263/181/164 265/186/166 266/179/167
f 263/181/164 266/179/167 264/181/165
f 239/187/157 233/183/157 267/183/168
f 239/187/157 267/183/168 268/187/169
f 229/179/157 227/177/157 269/192/170
f 229/179/157 269/192/170 270/179/171
f 223/173/157 221/171/157 271/171/172
f 223/173/157 271/171/172 272/173/173
f 241/189/157 239/187/157 268/187/169
f 241/189/157 268/187/169 273/189/174
f 231/181/157 229/179/157 270/179/171
f 231/181/157 270/179/171 274/181/175
f 225/175/157 223/173/157 272/173/173
f 225/175/157 272/173/173 275/193/176
f 221/171/157 219/169/157 258/169/159
f 221/171/157 258/169/159 271/171/172
f 233/183/157 231/181/157 274/181/175
f 233/183/157 274/181/175 267/183/168
f 227/177/157 225/175/157 276/175/177
f 227/177/157 276/175/177 269/192/170
f 258/169/159 257/168/158 277/168/178
f 258/169/159 277/168/178 252/169/152
f 271/171/172 258/169/159 252/169/152
f 271/171/172 252/169/152 251/171/151
f 272/173/173 271/171/172 251/171/151
f 272/173/173 251/171/151 255/173/155
f 275/193/176 272/173/173 255/173/155
f 275/193/176 255/173/155 248/175/148
f 269/192/170 276/175/177 248/175/148
f 269/192/170 248/175/148 247/177/147
f 270/179/171 269/192/170 236/185/138
f 270/179/171 236/185/138 235/179/137
f 274/181/175 270/179/171 265/186/166
f 274/181/175 265/186/166 263/181/164
f 267/183/168 274/181/175 263/181/164
f 267/183/168 263/181/164 260/183/161
f 268/187/169 267/183/168 260/183/161
f 268/187/169 260/183/161 259/187/160
f 273/189/174 268/187/169 244/191/144
f 273/189/174 244/191/144 243/189/143
f 253/169/153 278/168/179 279/194/180
f 253/169/153 279/194/180 280/195/181
f 254/171/154 253/169/153 281/196/182
f 254/171/154 281/196/182 282/197/183
f 256/173/156 254/171/154 283/198/184
f 256/173/156 283/198/184 284/199/185
f 249/175/149 256/173/156 285/200/185
f 249/175/149 285/200/185 286/201/186
f 250/185/150 249/175/149 287/202/186
f 250/185/150 287/202/186 288/203/187
f 238/186/140 237/177/139 289/204/187
f 238/186/140 289/204/187 290/205/188
f 264/181/165 266/179/167 291/206/188
f 264/181/165 291/206/188 292/207/189
f 261/183/162 264/181/165 293/208/189
f 261/183/162 293/208/189 294/209/190
f 262/191/163 261/183/162 295/210/190
f 262/191/163 295/210/190 296/211/191
f 246/189/146 245/187/145 297/212/191
f 246/189/146 297/212/191 298/213/180
f 252/169/152 277/168/178 278/168/179
f 252/169/152 278/168/179 253/169/153
f 299/214/192 300/215/193 301/216/194
f 299/214/192 301/216/194 302/217/195
f 302/217/195 301/216/194 303/218/196
f 302/217/195 303/218/196 304/219/197
f 304/219/197 303/218/196 305/220/198
f 304/219/197 305/220/198 306/221/199
f 306/221/199 305/220/198 307/222/200
f 306/221/199 307/222/200 308/223/201
f 308/223/201 307/222/200 309/224/202
f 308/223/201 309/224/202 310/225/203
f 310/225/203 309/224/202 311/226/204
f 310/225/203 311/226/204 312/227/205
f 312/227/205 311/226/204 313/228/206
f 312/227/205 313/228/206 314/229/207
f 314/229/207 313/228/206 315/230/208
f 314/229/207 315/230/208 316/231/209
f 316/231/209 315/230/208 317/232/210
f 316/231/209 317/232/210 318/233/211
f 318/233/211 317/232/210 300/215/193
f 318/233/211 300/215/193 299/214/192
f 319/234/212 320/235/133 321/235/133
f 319/234/212 321/235/133 322/234/212
f 323/236/213 324/237/214 325/238/215
f 323/236/213 325/238/215 326/239/157
f 327/240/142 328/241/142 324/237/214
f 327/240/142 324/237/214 323/236/213
f 329/242/216 330/243/216 328/241/142
f 329/242/216 328/241/142 327/240/142
f 331/244/217 332/245/218 330/243/216
f 331/244/217 330/243/216 329/242/216
f 332/245/142 331/244/142 333/244/142
f 332/245/142 333/244/142 334/245/142
f 335/246/219 336/247/212 337/248/220
f 335/246/219 337/248/220 338/249/221
f 339/250/157 340/251/215 336/247/212
f 339/250/157 336/247/212 335/246/219
f 319/234/222 341/252/222 342/253/222
f 319/234/222 342/253/222 343/254/222
f 320/235/222 319/234/222 343/254/222
f 320/235/222 343/254/222 344/255/222
f 345/256/222 320/235/222 344/255/222
f 345/256/222 344/255/222 346/257/222
f 347/258/222 345/256/222 346/257/222
f 347/258/222 346/257/222 348/259/222
f 349/260/222 347/258/222 348/259/222
f 349/260/222 348/259/222 350/261/222
f 351/262/222 349/260/222 350/261/222
f 351/262/222 350/261/222 352/263/222
f 353/264/222 351/262/222 352/263/222
f 353/264/222 352/263/222 354/265/222
f 341/252/222 353/264/222 354/265/222
f 341/252/222 354/265/222 342/253/222
f 355/264/223 356/252/223 357/252/223
f 355/264/223 357/252/223 358/264/223
f 351/262/142 353/264/214 355/264/214
f 351/262/142 355/264/214 359/262/142
f 347/258/224 349/260/216 360/260/216
f 347/258/224 360/260/216 361/258/224
f 320/235/133 345/256/225 362/256/225
f 320/235/133 362/256/225 321/235/133
f 341/252/157 319/234/212 322/234/212
f 341/252/157 322/234/212 356/252/157
f 353/264/214 341/252/157 356/252/157
f 353/264/214 356/252/157 355/264/214
f 349/260/216 351/262/142 359/262/142
f 349/260/216 359/262/142 360/260/216
f 345/256/225 347/258/224 361/258/224
f 345/256/225 361/258/224 362/256/225
f 363/235/133 364/256/225 365/256/225
f 363/235/133 365/256/225 366/235/133
f 360/260/223 359/262/223 367/262/223
f 360/260/223 367/262/223 368/260/223
f 362/256/223 361/258/223 369/258/223
f 362/256/223 369/258/223 364/256/223
f 322/234/223 321/235/223 363/235/223
f 322/234/223 363/235/223 370/234/223
f 359/262/226 355/264/226 358/264/226
f 359/262/223 358/264/223 367/262/223
f 361/258/223 360/260/223 368/260/223
f 361/258/223 368/260/223 369/258/223
f 321/235/226 362/256/226 364/256/226
f 321/235/223 364/256/223 363/235/223
f 356/252/223 322/234/223 370/234/223
f 356/252/223 370/234/223 357/252/223
f 357/252/157 370/234/212 371/234/212
f 357/252/157 371/234/212 372/252/157
f 358/264/214 357/252/157 372/252/157
f 358/264/214 372/252/157 373/264/214
f 368/260/216 367/262/142 374/262/142
f 368/260/216 374/262/142 375/260/216
f 364/256/225 369/258/224 376/258/224
f 364/256/225 376/258/224 365/256/225
f 370/234/212 363/235/133 366/235/133
f 370/234/212 366/235/133 371/234/212
f 367/262/142 358/264/214 373/264/214
f 367/262/142 373/264/214 374/262/142
f 369/258/224 368/260/216 375/260/216
f 369/258/224 375/260/216 376/258/224
f 339/250/223 335/246/223 377/246/223
f 339/250/223 377/246/223 378/250/223
f 379/266/219 335/246/219 338/249/221
f 379/266/219 338/249/221 380/267/133
f 380/267/133 338/249/221 381/268/225
f 380/267/133 381/268/225 382/269/225
f 382/269/225 381/268/225 331/244/217
f 382/269/225 331/244/217 383/270/224
f 383/270/224 331/244/217 329/242/216
f 383/270/224 329/242/216 384/271/216
f 384/271/216 329/242/216 327/240/142
f 384/271/216 327/240/142 385/272/142
f 385/272/142 327/240/142 323/236/213
f 385/272/142 323/236/213 386/273/213
f 335/246/219 379/266/219 387/266/133
f 335/246/219 387/266/133 377/246/133
f 388/274/214 386/273/213 389/275/215
f 388/274/214 389/275/215 390/276/157
f 391/277/142 385/272/142 386/273/213
f 391/277/142 386/273/213 388/274/214
f 392/278/216 384/271/216 385/272/142
f 392/278/216 385/272/142 391/277/142
f 393/279/224 383/270/224 384/271/216
f 393/279/224 384/271/216 392/278/216
f 394/280/225 382/269/225 383/270/224
f 394/280/225 383/270/224 393/279/224
f 395/281/133 380/267/133 382/269/225
f 395/281/133 382/269/225 394/280/225
f 396/282/212 379/266/219 380/267/133
f 396/282/212 380/267/133 395/281/133
f 397/167/157 398/283/215 379/266/219
f 397/167/157 379/266/219 396/282/212
f 323/236/223 326/239/223 399/239/223
f 323/236/223 399/239/223 400/236/223
f 389/275/222 386/273/222 401/273/222
f 389/275/222 401/273/222 402/275/222
f 386/273/142 323/236/142 400/236/142
f 386/273/142 400/236/142 401/273/142
f 379/266/222 398/283/222 403/283/222
f 379/266/222 403/283/222 387/266/222
f 404/268/227 405/284/227 334/245/227
f 404/268/227 334/245/227 333/244/227
f 381/268/133 406/284/133 405/284/133
f 381/268/133 405/284/133 404/268/133
f 331/244/222 381/268/222 404/268/222
f 331/244/222 404/268/222 333/244/222
f 407/249/228 408/248/228 405/284/229
f 407/249/228 405/284/229 404/268/229
f 381/268/222 338/249/222 407/249/222
f 381/268/222 407/249/222 404/268/222
f 338/249/221 337/248/220 408/248/228
f 338/249/221 408/248/228 407/249/228
f 409/234/212 410/234/212 411/235/133
f 409/234/212 411/235/133 412/235/133
f 413/236/213 414/239/215 325/238/215
f 413/236/213 325/238/215 324/237/214
f 415/240/142 413/236/213 324/237/214
f 415/240/142 324/237/214 328/241/142
f 416/242/216 415/240/142 328/241/142
f 416/242/216 328/241/142 330/243/216
f 417/244/217 416/242/216 330/243/216
f 417/244/217 330/243/216 332/245/218
f 332/245/142 334/245/142 418/244/142
f 332/245/142 418/244/142 417/244/142
f 419/285/222 420/285/222 421/285/222
f 419/285/222 421/285/222 422/285/222
f 423/246/219 424/249/221 337/248/220
f 423/246/219 337/248/220 336/247/212
f 425/250/215 423/246/219 336/247/212
f 425/250/215 336/247/212 340/251/215
f 409/234/223 426/254/223 427/253/223
f 409/234/223 427/253/223 428/252/223
f 412/235/223 429/255/223 426/254/223
f 412/235/223 426/254/223 409/234/223
f 430/256/223 431/257/223 429/255/223
f 430/256/223 429/255/223 412/235/223
f 432/258/223 433/259/223 431/257/223
f 432/258/223 431/257/223 430/256/223
f 434/260/223 435/261/223 433/259/223
f 434/260/223 433/259/223 432/258/223
f 436/262/223 437/263/223 435/261/223
f 436/262/223 435/261/223 434/260/223
f 438/264/223 439/265/223 437/263/223
f 438/264/223 437/263/223 436/262/223
f 428/252/223 427/253/223 439/265/223
f 428/252/223 439/265/223 438/264/223
f 440/264/222 441/264/222 442/252/222
f 440/264/222 442/252/222 443/252/222
f 436/262/142 444/262/142 440/264/214
f 436/262/142 440/264/214 438/264/214
f 432/258/224 445/258/224 446/260/216
f 432/258/224 446/260/216 434/260/216
f 412/235/133 411/235/133 447/256/225
f 412/235/133 447/256/225 430/256/225
f 428/252/157 443/252/157 410/234/212
f 428/252/157 410/234/212 409/234/212
f 438/264/214 440/264/214 443/252/157
f 438/264/214 443/252/157 428/252/157
f 434/260/216 446/260/216 444/262/142
f 434/260/216 444/262/142 436/262/142
f 430/256/225 447/256/225 445/258/224
f 430/256/225 445/258/224 432/258/224
f 448/235/133 449/235/133 450/256/225
f 448/235/133 450/256/225 451/256/225
f 446/260/222 452/260/222 453/262/222
f 446/260/222 453/262/222 444/262/222
f 447/256/222 451/256/222 454/258/222
f 447/256/222 454/258/222 445/258/222
f 410/234/222 455/234/222 448/235/222
f 410/234/222 448/235/222 411/235/222
f 444/262/222 453/262/222 441/264/222
f 444/262/230 441/264/230 440/264/230
f 445/258/222 454/258/222 452/260/222
f 445/258/222 452/260/222 446/260/222
f 411/235/222 448/235/222 451/256/222
f 411/235/230 451/256/230 447/256/230
f 443/252/222 442/252/222 455/234/222
f 443/252/222 455/234/222 410/234/222
f 442/252/157 456/252/157 457/234/212
f 442/252/157 457/234/212 455/234/212
f 441/264/214 458/264/214 456/252/157
f 441/264/214 456/252/157 442/252/157
f 452/260/216 459/260/216 460/262/142
f 452/260/216 460/262/142 453/262/142
f 451/256/225 450/256/225 461/258/224
f 451/256/225 461/258/224 454/258/224
f 455/234/212 457/234/212 449/235/133
f 455/234/212 449/235/133 448/235/133
f 453/262/142 460/262/142 458/264/214
f 453/262/142 458/264/214 441/264/214
f 454/258/224 461/258/224 459/260/216
f 454/258/224 459/260/216 452/260/216
f 425/250/222 462/250/222 463/246/222
f 425/250/222 463/246/222 423/246/222
f 464/266/219 465/267/133 424/249/221
f 464/266/219 424/249/221 423/246/219
f 465/267/133 466/269/225 467/268/225
f 465/267/133 467/268/225 424/249/221
f 466/269/225 468/270/224 417/244/217
f 466/269/225 417/244/217 467/268/225
f 468/270/224 469/271/216 416/242/216
f 468/270/224 416/242/216 417/244/217
f 469/271/216 470/272/142 415/240/142
f 469/271/216 415/240/142 416/242/216
f 470/272/142 471/273/213 413/236/213
f 470/272/142 413/236/213 415/240/142
f 423/246/219 463/246/133 472/266/133
f 423/246/219 472/266/133 464/266/219
f 473/274/214 474/276/215 475/275/157
f 473/274/214 475/275/157 471/273/213
f 476/277/142 473/274/214 471/273/213
f 476/277/142 471/273/213 470/272/142
f 477/278/216 476/277/142 470/272/142
f 477/278/216 470/272/142 469/271/216
f 478/279/224 477/278/216 469/271/216
f 478/279/224 469/271/216 468/270/224
f 479/280/225 478/279/224 468/270/224
f 479/280/225 468/270/224 466/269/225
f 480/281/133 479/280/225 466/269/225
f 480/281/133 466/269/225 465/267/133
f 481/282/212 480/281/133 465/267/133
f 481/282/212 465/267/133 464/266/219
f 482/167/215 481/282/212 464/266/219
f 482/167/215 464/266/219 483/283/157
f 413/236/222 484/236/222 485/239/222
f 413/236/222 485/239/222 414/239/222
f 475/275/223 486/275/223 487/273/223
f 475/275/223 487/273/223 471/273/223
f 471/273/142 487/273/142 484/236/142
f 471/273/142 484/236/142 413/236/142
f 464/266/223 472/266/223 488/283/223
f 464/266/223 488/283/223 483/283/223
f 489/268/227 418/244/227 334/245/227
f 489/268/227 334/245/227 405/284/227
f 467/268/133 489/268/133 405/284/133
f 467/268/133 405/284/133 406/284/133
f 417/244/223 418/244/223 489/268/223
f 417/244/223 489/268/223 467/268/223
f 422/285/222 421/285/222 490/285/222
f 422/285/222 490/285/222 491/285/222
f 492/249/228 489/268/229 405/284/229
f 492/249/228 405/284/229 408/248/228
f 467/268/223 489/268/223 492/249/223
f 467/268/223 492/249/223 424/249/223
f 424/249/221 492/249/228 408/248/228
f 424/249/221 408/248/228 337/248/220
f 493/286/157 494/168/157 495/287/231
f 493/286/157 495/287/231 496/288/232
f 496/288/232 495/287/231 497/289/233
f 496/288/232 497/289/233 498/290/233
f 498/290/233 497/289/233 499/185/224
f 498/290/233 499/185/224 500/291/224
f 500/291/224 499/185/224 501/292/234
f 500/291/224 501/292/234 502/293/234
f 502/293/234 501/292/234 503/294/235
f 502/293/234 503/294/235 504/295/236
f 504/295/236 503/294/235 505/296/215
f 504/295/236 505/296/215 506/297/215
f 496/288/232 507/298/232 508/298/223
f 496/288/232 508/298/223 509/288/223
f 510/299/234 502/293/234 504/295/236
f 510/299/234 504/295/236 511/300/236
f 512/301/224 500/291/224 502/293/234
f 512/301/224 502/293/234 510/299/234
f 513/302/233 498/290/233 500/291/224
f 513/302/233 500/291/224 512/301/224
f 507/298/232 496/288/232 498/290/233
f 507/298/232 498/290/233 513/302/233
f 514/303/133 511/300/133 515/300/133
f 514/303/133 515/300/133 516/303/133
f 517/167/157 518/304/157 507/298/232
f 517/167/157 507/298/232 519/305/231
f 519/305/231 507/298/232 513/302/233
f 519/305/231 513/302/233 520/306/233
f 520/306/233 513/302/233 512/301/224
f 520/306/233 512/301/224 521/307/224
f 521/307/224 512/301/224 510/299/234
f 521/307/224 510/299/234 522/308/234
f 522/308/234 510/299/234 511/300/236
f 522/308/234 511/300/236 523/309/235
f 523/309/235 511/300/236 514/303/215
f 523/309/235 514/303/215 524/310/215
f 504/295/142 506/297/142 525/297/142
f 504/295/142 525/297/142 526/295/142
f 493/286/142 496/288/142 509/288/142
f 493/286/142 509/288/142 527/286/142
f 507/298/133 518/304/133 528/304/133
f 507/298/133 528/304/133 508/298/133
f 511/300/236 504/295/236 526/295/222
f 511/300/236 526/295/222 515/300/222
f 529/311/237 530/311/238 531/253/239
f 529/311/237 531/253/239 532/253/239
f 533/312/240 534/312/240 530/311/238
f 533/312/240 530/311/238 529/311/237
f 535/312/241 536/311/241 537/313/241
f 535/312/241 537/313/241 538/314/241
f 539/314/242 540/314/242 541/259/243
f 539/314/242 541/259/243 542/259/243
f 543/315/244 544/316/244 545/316/244
f 543/315/244 545/316/244 546/315/244
f 532/253/239 531/253/239 547/313/245
f 532/253/239 547/313/245 548/313/245
f 549/311/246 550/311/246 551/253/239
f 549/311/246 551/253/239 552/253/239
f 553/312/247 554/312/248 555/314/248
f 553/312/247 555/314/248 540/314/247
f 556/312/249 557/311/250 558/311/244
f 556/312/249 558/311/244 559/312/249
f 560/314/251 561/259/239 562/259/239
f 560/314/251 562/259/239 563/314/251
f 564/314/252 565/314/252 566/259/243
f 564/314/252 566/259/243 567/259/243
f 567/259/243 566/259/243 568/312/248
f 567/259/243 568/312/248 554/312/248
f 557/311/250 569/253/243 570/253/243
f 557/311/250 570/253/243 558/311/244
f 552/253/239 551/253/239 571/313/253
f 552/253/239 571/313/253 572/313/253
f 561/259/239 556/312/249 559/312/249
f 561/259/239 559/312/249 562/259/239
f 569/253/243 573/313/254 574/313/255
f 569/253/243 574/313/255 570/253/243
f 568/312/256 566/259/142 562/259/142
f 568/312/256 562/259/142 559/312/142
f 551/253/142 550/311/256 558/311/142
f 551/253/142 558/311/142 570/253/142
f 549/311/257 552/253/133 569/253/133
f 549/311/257 569/253/133 557/311/133
f 572/313/258 571/313/258 574/313/255
f 572/313/258 574/313/255 573/313/254
f 564/314/133 567/259/133 561/259/133
f 564/314/133 561/259/133 560/314/133
f 550/311/256 568/312/256 559/312/142
f 550/311/256 559/312/142 558/311/142
f 571/313/142 551/253/142 570/253/142
f 571/313/142 570/253/142 574/313/142
f 554/312/257 549/311/257 557/311/133
f 554/312/257 557/311/133 556/312/133
f 565/314/259 564/314/259 560/314/251
f 565/314/259 560/314/251 563/314/251
f 567/259/133 554/312/257 556/312/133
f 567/259/133 556/312/133 561/259/133
f 552/253/133 572/313/133 573/313/133
f 552/253/133 573/313/133 569/253/133
f 566/259/142 565/314/142 563/314/142
f 566/259/142 563/314/142 562/259/142
f 575/311/260 550/311/261 576/313/261
f 575/311/260 576/313/261 548/313/260
f 577/311/262 578/312/263 579/314/263
f 577/311/262 579/314/263 580/313/263
f 543/315/264 581/317/264 533/312/240
f 543/315/264 533/312/240 542/259/243
f 582/318/264 544/316/264 541/259/243
f 582/318/264 541/259/243 534/312/240
f 544/316/264 543/315/264 542/259/243
f 544/316/264 542/259/243 541/259/243
f 581/317/264 582/318/264 534/312/240
f 581/317/264 534/312/240 533/312/240
f 546/315/264 545/316/264 583/318/264
f 546/315/264 583/318/264 584/317/264
f 581/317/133 543/315/133 546/315/133
f 581/317/133 546/315/133 584/317/133
f 582/318/238 581/317/238 584/317/238
f 582/318/238 584/317/238 583/318/238
f 544/316/142 582/318/142 583/318/142
f 544/316/142 583/318/142 545/316/142
f 585/285/265 586/285/266 587/285/267
f 585/285/265 587/285/267 588/285/268
f 589/285/269 590/285/270 586/285/266
f 589/285/269 586/285/266 585/285/265
f 591/285/271 592/285/272 590/285/270
f 591/285/271 590/285/270 589/285/269
f 593/285/273 594/285/274 592/285/272
f 593/285/273 592/285/272 591/285/271
f 595/285/275 596/285/276 594/285/274
f 595/285/275 594/285/274 593/285/273
f 597/285/277 598/285/278 596/285/276
f 597/285/277 596/285/276 595/285/275
f 599/285/279 600/285/280 598/285/278
f 599/285/279 598/285/278 597/285/277
f 601/285/281 602/285/282 600/285/280
f 601/285/281 600/285/280 599/285/279
f 603/285/283 604/285/284 602/285/282
f 603/285/283 602/285/282 601/285/281
f 588/285/268 587/285/267 604/285/284
f 588/285/268 604/285/284 603/285/283
f 586/285/266 605/285/285 606/285/286
f 586/285/266 606/285/286 587/285/267
f 590/285/270 607/285/287 605/285/285
f 590/285/270 605/285/285 586/285/266
f 592/285/272 608/285/288 607/285/287
f 592/285/272 607/285/287 590/285/270
f 594/285/274 609/285/289 608/285/288
f 594/285/274 608/285/288 592/285/272
f 596/285/276 610/285/290 609/285/289
f 596/285/276 609/285/289 594/285/274
f 598/285/278 611/285/291 610/285/290
f 598/285/278 610/285/290 596/285/276
f 600/285/280 612/285/292 611/285/291
f 600/285/280 611/285/291 598/285/278
f 602/285/282 613/285/293 612/285/292
f 602/285/282 612/285/292 600/285/280
f 604/285/284 614/285/294 613/285/293
f 604/285/284 613/285/293 602/285/282
f 587/285/267 606/285/286 614/285/294
f 587/285/267 614/285/294 604/285/284
f 605/285/285 615/285/295 616/285/296
f 605/285/285 616/285/296 606/285/286
f 607/285/287 617/285/297 615/285/295
f 607/285/287 615/285/295 605/285/285
f 608/285/288 618/285/298 617/285/297
f 608/285/288 617/285/297 607/285/287
f 609/285/289 619/285/299 618/285/298
f 609/285/289 618/285/298 608/285/288
f 610/285/290 620/285/300 619/285/299
f 610/285/290 619/285/299 609/285/289
f 611/285/291 621/285/301 620/285/300
f 611/285/291 620/285/300 610/285/290
f 612/285/292 622/285/302 621/285/301
f 612/285/292 621/285/301 611/285/291
f 613/285/293 623/285/303 622/285/302
f 613/285/293 622/285/302 612/285/292
f 614/285/294 624/285/304 623/285/303
f 614/285/294 623/285/303 613/285/293
f 606/285/286 616/285/296 624/285/304
f 606/285/286 624/285/304 614/285/294
f 615/285/295 625/285/305 626/285/306
f 615/285/295 626/285/306 616/285/296
f 617/285/297 627/285/307 625/285/305
f 617/285/297 625/285/305 615/285/295
f 618/285/298 628/285/308 627/285/307
f 618/285/298 627/285/307 617/285/297
f 619/285/299 629/285/309 628/285/308
f 619/285/299 628/285/308 618/285/298
f 620/285/300 630/285/310 629/285/309
f 620/285/300 629/285/309 619/285/299
f 621/285/301 631/285/311 630/285/310
f 621/285/301 630/285/310 620/285/300
f 622/285/302 632/285/312 631/285/311
f 622/285/302 631/285/311 621/285/301
f 623/285/303 633/285/313 632/285/312
f 623/285/303 632/285/312 622/285/302
f 624/285/304 634/285/314 633/285/313
f 624/285/304 633/285/313 623/285/303
f 616/285/296 626/285/306 634/285/314
f 616/285/296 634/285/314 624/285/304
f 625/285/305 635/285/315 636/285/316
f 625/285/305 636/285/316 626/285/306
f 627/285/307 637/285/317 635/285/315
f 627/285/307 635/285/315 625/285/305
f 628/285/308 638/285/318 637/285/317
f 628/285/308 637/285/317 627/285/307
f 629/285/309 639/285/319 638/285/318
f 629/285/309 638/285/318 628/285/308
f 630/285/310 640/285/320 639/285/319
f 630/285/310 639/285/319 629/285/309
f 631/285/311 641/285/321 640/285/320
f 631/285/311 640/285/320 630/285/310
f 632/285/312 642/285/322 641/285/321
f 632/285/312 641/285/321 631/285/311
f 633/285/313 643/285/323 642/285/322
f 633/285/313 642/285/322 632/285/312
f 634/285/314 644/285/324 643/285/323
f 634/285/314 643/285/323 633/285/313
f 626/285/306 636/285/316 644/285/324
f 626/285/306 644/285/324 634/285/314
f 635/285/315 645/285/325 646/285/326
f 635/285/315 646/285/326 636/285/316
f 637/285/317 647/285/327 645/285/325
f 637/285/317 645/285/325 635/285/315
f 638/285/318 648/285/328 647/285/327
f 638/285/318 647/285/327 637/285/317
f 639/285/319 649/285/329 648/285/328
f 639/285/319 648/285/328 638/285/318
f 640/285/320 650/285/330 649/285/329
f 640/285/320 649/285/329 639/285/319
f 641/285/321 651/285/331 650/285/330
f 641/285/321 650/285/330 640/285/320
f 642/285/322 652/285/332 651/285/331
f 642/285/322 651/285/331 641/285/321
f 643/285/323 653/285/333 652/285/332
f 643/285/323 652/285/332 642/285/322
f 644/285/324 654/285/334 653/285/333
f 644/285/324 653/285/333 643/285/323
f 636/285/316 646/285/326 654/285/334
f 636/285/316 654/285/334 644/285/324
f 645/285/325 655/285/335 656/285/336
f 645/285/325 656/285/336 646/285/326
f 647/285/327 657/285/337 655/285/335
f 647/285/327 655/285/335 645/285/325
f 648/285/328 658/285/338 657/285/337
f 648/285/328 657/285/337 647/285/327
f 649/285/329 659/285/339 658/285/338
f 649/285/329 658/285/338 648/285/328
f 650/285/330 660/285/340 659/285/339
f 650/285/330 659/285/339 649/285/329
f 651/285/331 661/285/341 660/285/340
f 651/285/331 660/285/340 650/285/330
f 652/285/332 662/285/342 661/285/341
f 652/285/332 661/285/341 651/285/331
f 653/285/333 663/285/343 662/285/342
f 653/285/333 662/285/342 652/285/332
f 654/285/334 664/285/344 663/285/343
f 654/285/334 663/285/343 653/285/333
f 646/285/326 656/285/336 664/285/344
f 646/285/326 664/285/344 654/285/334
f 655/285/335 665/285/345 666/285/346
f 655/285/335 666/285/346 656/285/336
f 657/285/337 667/285/347 665/285/345
f 657/285/337 665/285/345 655/285/335
f 658/285/338 668/285/348 667/285/347
f 658/285/338 667/285/347 657/285/337
f 659/285/339 669/285/349 668/285/348
f 659/285/339 668/285/348 658/285/338
f 660/285/340 670/285/350 669/285/349
f 660/285/340 669/285/349 659/285/339
f 661/285/341 671/285/351 670/285/350
f 661/285/341 670/285/350 660/285/340
f 662/285/342 672/285/352 671/285/351
f 662/285/342 671/285/351 661/285/341
f 663/285/343 673/285/353 672/285/352
f 663/285/343 672/285/352 662/285/342
f 664/285/344 674/285/354 673/285/353
f 664/285/344 673/285/353 663/285/343
f 656/285/336 666/285/346 674/285/354
f 656/285/336 674/285/354 664/285/344
f 665/285/345 675/285/355 676/285/356
f 665/285/345 676/285/356 666/285/346
f 667/285/347 677/285/357 675/285/355
f 667/285/347 675/285/355 665/285/345
f 668/285/348 678/285/358 677/285/357
f 668/285/348 677/285/357 667/285/347
f 669/285/349 679/285/359 678/285/358
f 669/285/349 678/285/358 668/285/348
f 670/285/350 680/285/360 679/285/359
f 670/285/350 679/285/359 669/285/349
f 671/285/351 681/285/361 680/285/360
f 671/285/351 680/285/360 670/285/350
f 672/285/352 682/285/362 681/285/361
f 672/285/352 681/285/361 671/285/351
f 673/285/353 683/285/363 682/285/362
f 673/285/353 682/285/362 672/285/352
f 674/285/354 684/285/364 683/285/363
f 674/285/354 683/285/363 673/285/353
f 666/285/346 676/285/356 684/285/364
f 666/285/346 684/285/364 674/285/354
f 675/285/355 685/285/365 686/285/366
f 675/285/355 686/285/366 676/285/356
f 677/285/357 687/285/367 685/285/365
f 677/285/357 685/285/365 675/285/355
f 678/285/358 688/285/368 687/285/367
f 678/285/358 687/285/367 677/285/357
f 679/285/359 689/285/369 688/285/368
f 679/285/359 688/285/368 678/285/358
f 680/285/360 690/285/370 689/285/369
f 680/285/360 689/285/369 679/285/359
f 681/285/361 691/285/371 690/285/370
f 681/285/361 690/285/370 680/285/360
f 682/285/362 692/285/372 691/285/371
f 682/285/362 691/285/371 681/285/361
f 683/285/363 693/285/373 692/285/372
f 683/285/363 692/285/372 682/285/362
f 684/285/364 694/285/374 693/285/373
f 684/285/364 693/285/373 683/285/363
f 676/285/356 686/285/366 694/285/374
f 676/285/356 694/285/374 684/285/364
f 685/285/365 695/285/375 696/285/376
f 685/285/365 696/285/376 686/285/366
f 687/285/367 697/285/377 695/285/375
f 687/285/367 695/285/375 685/285/365
f 688/285/368 698/285/378 697/285/377
f 688/285/368 697/285/377 687/285/367
f 689/285/369 699/285/379 698/285/378
f 689/285/369 698/285/378 688/285/368
f 690/285/370 700/285/380 699/285/379
f 690/285/370 699/285/379 689/285/369
f 691/285/371 701/285/381 700/285/380
f 691/285/371 700/285/380 690/285/370
f 692/285/372 702/285/382 701/285/381
f 692/285/372 701/285/381 691/285/371
f 693/285/373 703/285/383 702/285/382
f 693/285/373 702/285/382 692/285/372
f 694/285/374 704/285/384 703/285/383
f 694/285/374 703/285/383 693/285/373
f 686/285/366 696/285/376 704/285/384
f 686/285/366 704/285/384 694/285/374
f 695/285/375 705/285/385 706/285/386
f 695/285/375 706/285/386 696/285/376
f 697/285/377 707/285/387 705/285/385
f 697/285/377 705/285/385 695/285/375
f 698/285/378 708/285/388 707/285/387
f 698/285/378 707/285/387 697/285/377
f 699/285/379 709/285/389 708/285/388
f 699/285/379 708/285/388 698/285/378
f 700/285/380 710/285/390 709/285/389
f 700/285/380 709/285/389 699/285/379
f 701/285/381 711/285/391 710/285/390
f 701/285/381 710/285/390 700/285/380
f 702/285/382 712/285/392 711/285/391
f 702/285/382 711/285/391 701/285/381
f 703/285/383 713/285/393 712/285/392
f 703/285/383 712/285/392 702/285/382
f 704/285/384 714/285/394 713/285/393
f 704/285/384 713/285/393 703/285/383
f 696/285/376 706/285/386 714/285/394
f 696/285/376 714/285/394 704/285/384
f 705/285/385 715/285/395 716/285/396
f 705/285/385 716/285/396 706/285/386
f 707/285/387 717/285/397 715/285/395
f 707/285/387 715/285/395 705/285/385
f 708/285/388 718/285/398 717/285/397
f 708/285/388 717/285/397 707/285/387
f 709/285/389 719/285/399 718/285/398
f 709/285/389 718/285/398 708/285/388
f 710/285/390 720/285/400 719/285/399
f 710/285/390 719/285/399 709/285/389
f 711/285/391 721/285/401 720/285/400
f 711/285/391 720/285/400 710/285/390
f 712/285/392 722/285/402 721/285/401
f 712/285/392 721/285/401 711/285/391
f 713/285/393 723/285/403 722/285/402
f 713/285/393 722/285/402 712/285/392
f 714/285/394 724/285/404 723/285/403
f 714/285/394 723/285/403 713/285/393
f 706/285/386 716/285/396 724/285/404
f 706/285/386 724/285/404 714/285/394
f 715/285/395 725/285/405 726/285/406
f 715/285/395 726/285/406 716/285/396
f 717/285/397 727/285/407 725/285/405
f 717/285/397 725/285/405 715/285/395
f 718/285/398 728/285/408 727/285/407
f 718/285/398 727/285/407 717/285/397
f 719/285/399 729/285/409 728/285/408
f 719/285/399 728/285/408 718/285/398
f 720/285/400 730/285/410 729/285/409
f 720/285/400 729/285/409 719/285/399
f 721/285/401 731/285/411 730/285/410
f 721/285/401 730/285/410 720/285/400
f 722/285/402 732/285/412 731/285/411
f 722/285/402 731/285/411 721/285/401
f 723/285/403 733/285/413 732/285/412
f 723/285/403 732/285/412 722/285/402
f 724/285/404 734/285/414 733/285/413
f 724/285/404 733/285/413 723/285/403
f 716/285/396 726/285/406 734/285/414
f 716/285/396 734/285/414 724/285/404
f 725/285/405 735/285/415 736/285/416
f 725/285/405 736/285/416 726/285/406
f 727/285/407 737/285/417 735/285/415
f 727/285/407 735/285/415 725/285/405
f 728/285/408 738/285/418 737/285/417
f 728/285/408 737/285/417 727/285/407
f 729/285/409 739/285/419 738/285/418
f 729/285/409 738/285/418 728/285/408
f 730/285/410 740/285/420 739/285/419
f 730/285/410 739/285/419 729/285/409
f 731/285/411 741/285/421 740/285/420
f 731/285/411 740/285/420 730/285/410
f 732/285/412 742/285/422 741/285/421
f 732/285/412 741/285/421 731/285/411
f 733/285/413 743/285/423 742/285/422
f 733/285/413 742/285/422 732/285/412
f 734/285/414 744/285/424 743/285/423
f 734/285/414 743/285/423 733/285/413
f 726/285/406 736/285/416 744/285/424
f 726/285/406 744/285/424 734/285/414
f 735/285/415 745/285/425 746/285/426
f 735/285/415 746/285/426 736/285/416
f 737/285/417 747/285/427 745/285/425
f 737/285/417 745/285/425 735/285/415
f 738/285/418 748/285/428 747/285/427
f 738/285/418 747/285/427 737/285/417
f 739/285/419 749/285/429 748/285/428
f 739/285/419 748/285/428 738/285/418
f 740/285/420 750/285/430 749/285/429
f 740/285/420 749/285/429 739/285/419
f 741/285/421 751/285/431 750/285/430
f 741/285/421 750/285/430 740/285/420
f 742/285/422 752/285/432 751/285/431
f 742/285/422 751/285/431 741/285/421
f 743/285/423 753/285/433 752/285/432
f 743/285/423 752/285/432 742/285/422
f 744/285/424 754/285/434 753/285/433
f 744/285/424 753/285/433 743/285/423
f 736/285/416 746/285/426 754/285/434
f 736/285/416 754/285/434 744/285/424
f 745/285/425 755/285/435 756/285/436
f 745/285/425 756/285/436 746/285/426
f 747/285/427 757/285/437 755/285/435
f 747/285/427 755/285/435 745/285/425
f 748/285/428 758/285/438 757/285/437
f 748/285/428 757/285/437 747/285/427
f 749/285/429 759/285/439 758/285/438
f 749/285/429 758/285/438 748/285/428
f 750/285/430 760/285/440 759/285/439
f 750/285/430 759/285/439 749/285/429
f 751/285/431 761/285/441 760/285/440
f 751/285/431 760/285/440 750/285/430
f 752/285/432 762/285/442 761/285/441
f 752/285/432 761/285/441 751/285/431
f 753/285/433 763/285/443 762/285/442
f 753/285/433 762/285/442 752/285/432
f 754/285/434 764/285/444 763/285/443
f 754/285/434 763/285/443 753/285/433
f 746/285/426 756/285/436 764/285/444
f 746/285/426 764/285/444 754/285/434
f 755/285/435 765/285/445 766/285/446
f 755/285/435 766/285/446 756/285/436
f 757/285/437 767/285/447 765/285/445
f 757/285/437 765/285/445 755/285/435
f 758/285/438 768/285/448 767/285/447
f 758/285/438 767/285/447 757/285/437
f 759/285/439 769/285/449 768/285/448
f 759/285/439 768/285/448 758/285/438
f 760/285/440 770/285/450 769/285/449
f 760/285/440 769/285/449 759/285/439
f 761/285/441 771/285/451 770/285/450
f 761/285/441 770/285/450 760/285/440
f 762/285/442 772/285/452 771/285/451
f 762/285/442 771/285/451 761/285/441
f 763/285/443 773/285/453 772/285/452
f 763/285/443 772/285/452 762/285/442
f 764/285/444 774/285/454 773/285/453
f 764/285/444 773/285/453 763/285/443
f 756/285/436 766/285/446 774/285/454
f 756/285/436 774/285/454 764/285/444
f 765/285/445 775/285/455 776/285/456
f 765/285/445 776/285/456 766/285/446
f 767/285/447 777/285/457 775/285/455
f 767/285/447 775/285/455 765/285/445
f 768/285/448 778/285/458 777/285/457
f 768/285/448 777/285/457 767/285/447
f 769/285/449 779/285/459 778/285/458
f 769/285/449 778/285/458 768/285/448
f 770/285/450 780/285/460 779/285/459
f 770/285/450 779/285/459 769/285/449
f 771/285/451 781/285/461 780/285/460
f 771/285/451 780/285/460 770/285/450
f 772/285/452 782/285/462 781/285/461
f 772/285/452 781/285/461 771/285/451
f 773/285/453 783/285/463 782/285/462
f 773/285/453 782/285/462 772/285/452
f 774/285/454 784/285/464 783/285/463
f 774/285/454 783/285/463 773/285/453
f 766/285/446 776/285/456 784/285/464
f 766/285/446 784/285/464 774/285/454
f 775/285/455 785/285/465 786/285/466
f 775/285/455 786/285/466 776/285/456
f 777/285/457 787/285/467 785/285/465
f 777/285/457 785/285/465 775/285/455
f 778/285/458 788/285/468 787/285/467
f 778/285/458 787/285/467 777/285/457
f 779/285/459 789/285/469 788/285/468
f 779/285/459 788/285/468 778/285/458
f 780/285/460 790/285/470 789/285/469
f 780/285/460 789/285/469 779/285/459
f 781/285/461 791/285/471 790/285/470
f 781/285/461 790/285/470 780/285/460
f 782/285/462 792/285/472 791/285/471
f 782/285/462 791/285/471 781/285/461
f 783/285/463 793/285/473 792/285/472
f 783/285/463 792/285/472 782/285/462
f 784/285/464 794/285/474 793/285/473
f 784/285/464 793/285/473 783/285/463
f 776/285/456 786/285/466 794/285/474
f 776/285/456 794/285/474 784/285/464
f 795/319/133 796/320/133 797/321/133
f 796/320/133 795/319/133 798/322/133
f 798/322/133 795/319/133 799/323/133
f 798/322/133 799/323/133 800/324/133
f 800/324/133 799/323/133 161/114/133
f 800/324/133 161/114/133 801/325/133
f 802/326/157 803/327/157 804/259/157
f 803/327/157 802/326/157 805/328/157
f 803/327/157 805/328/157 806/329/157
f 806/329/157 805/328/157 807/330/157
f 806/329/157 807/330/157 808/331/157
f 808/331/157 807/330/157 809/332/157
f 808/331/157 809/332/157 810/333/157
f 810/333/157 809/332/157 811/253/157
f 812/334/475 813/335/476 814/336/477
f 813/335/476 812/334/475 815/337/478
f 813/335/476 815/337/478 816/338/479
f 816/338/479 815/337/478 817/339/183
f 816/338/479 817/339/183 818/340/480
f 818/340/480 817/339/183 819/341/481
f 818/340/480 819/341/481 820/342/482
f 820/342/482 819/341/481 821/343/483
f 303/218/196 307/222/200 305/220/198
f 307/222/200 303/218/196 309/224/202
f 309/224/202 303/218/196 301/216/194
f 309/224/202 301/216/194 311/226/204
f 311/226/204 301/216/194 300/215/193
f 311/226/204 300/215/193 313/228/206
f 313/228/206 300/215/193 317/232/210
f 313/228/206 317/232/210 315/230/208
f 371/234/222 373/264/222 372/252/222
f 373/264/222 371/234/222 366/235/222
f 373/264/222 366/235/222 374/262/222
f 374/262/222 366/235/222 365/256/222
f 374/262/222 365/256/222 375/260/222
f 375/260/222 365/256/222 376/258/222
f 458/264/223 457/234/223 456/252/223
f 457/234/223 458/264/223 449/235/223
f 449/235/223 458/264/223 460/262/223
f 449/235/223 460/262/223 459/260/223
f 449/235/223 459/260/223 450/256/223
f 450/256/223 459/260/223 461/258/223
f 822/344/142 823/345/142 824/346/142
f 823/345/142 822/344/142 825/347/142
f 825/347/142 822/344/142 826/348/142
f 825/347/142 826/348/142 827/349/142
f 828/259/133 829/313/133 830/314/133
f 829/313/133 828/259/133 831/312/133
f 829/313/133 831/312/133 832/253/133
f 832/253/133 831/312/133 833/311/133
f 531/253/142 540/314/256 547/313/256
f 540/314/256 531/253/142 541/259/142
f 541/259/142 531/253/142 530/311/142
f 541/259/142 530/311/142 534/312/142
f 539/314/257 532/253/133 548/313/257
f 532/253/133 539/314/257 542/259/133
f 532/253/133 542/259/133 529/311/133
f 529/311/133 542/259/133 533/312/133
# Vertices: 690, normals: 429, texture coordinates: 253, faces: 1042

o obj5
v -2.0758511 -0.63243137 0.44713712
v -10.62375839 -0.6324334 0.44713712
v -10.62375849 0.19424167 0.4471371
v -2.0758512 0.19424371 0.4471371
v -2.0758511 -0.63243121 0.4471372
v -2.0758512 0.19424371 0.4471371
v -2.07585085 0.19424371 4.71167066
v -2.07585075 -0.63243137 4.71167076
vn 1 0 0
vn 0 -1 0
vt 4.50124 0.17829
vt 3.79671 0.17829
vt 3.79671 0.24954
vt 4.50124 0.24954
vt 3.50058 0.17829
vt 3.50058 0.24954
vt 3.14885 0.24954
vt 3.14885 0.17829
usemtl mat3
f 834/350/484 835/351/484 836/352/484
f 834/350/484 836/352/484 837/353/484
f 838/354/485 839/355/485 840/356/485
f 838/354/485 840/356/485 841/357/485
# Vertices: 8, normals: 2, texture coordinates: 8, faces: 4

